<svg width="130" height="90" viewBox="0 0 130 90" fill="none" xmlns="http://www.w3.org/2000/svg">
<mask id="path-1-outside-1_222_122" maskUnits="userSpaceOnUse" x="11" y="-0.700195" width="107" height="91" fill="black">
<rect fill="white" x="11" y="-0.700195" width="107" height="91"/>
<path d="M108.868 4.59432C105.864 6.93455 14.0364 86.3758 14.0364 86.3758C14.0364 86.3758 109.807 12.1023 112.811 9.76213C115.815 7.42195 111.872 2.2541 108.868 4.59432Z"/>
</mask>
<path d="M108.868 4.59432C105.864 6.93455 14.0364 86.3758 14.0364 86.3758C14.0364 86.3758 109.807 12.1023 112.811 9.76213C115.815 7.42195 111.872 2.2541 108.868 4.59432Z" fill="#FCCD05"/>
<path d="M14.0364 86.3758L11.4193 83.3507L16.4877 89.5366L14.0364 86.3758ZM14.0364 86.3758C16.6534 89.4009 16.6537 89.4006 16.6544 89.4C16.6551 89.3994 16.6562 89.3985 16.6576 89.3973C16.6604 89.3948 16.6645 89.3912 16.6701 89.3864C16.6812 89.3768 16.6978 89.3624 16.7199 89.3433C16.764 89.3051 16.8299 89.2482 16.9168 89.173C17.0906 89.0226 17.3486 88.7995 17.6852 88.5083C18.3585 87.9259 19.3463 87.0715 20.6046 85.9831C23.1213 83.8064 26.7199 80.6943 31.0476 76.9523C39.7031 69.4684 51.2749 59.4656 62.9404 49.3898C74.6062 39.3137 86.3645 29.1658 95.3934 21.3911C99.9082 17.5034 103.738 14.2111 106.532 11.8186C107.93 10.6219 109.065 9.65332 109.895 8.94896C110.311 8.59643 110.646 8.31377 110.898 8.10345C111.024 7.99818 111.124 7.91438 111.202 7.85079C111.24 7.8191 111.271 7.79446 111.294 7.77601C111.318 7.75655 111.327 7.749 111.326 7.74978L106.41 1.43887C104.802 2.69173 80.9535 23.2604 57.7111 43.3355C46.0442 53.4125 34.4713 63.4163 25.8152 70.9007C21.4871 74.643 17.8882 77.7554 15.3713 79.9324C14.1128 81.0208 13.1248 81.8754 12.4515 82.4578C12.1148 82.7491 11.8568 82.9723 11.6829 83.1227C11.596 83.1979 11.5301 83.2549 11.4859 83.2931C11.4638 83.3122 11.4472 83.3266 11.4361 83.3362C11.4305 83.341 11.4263 83.3447 11.4235 83.3471C11.4221 83.3483 11.4211 83.3492 11.4204 83.3498C11.4197 83.3504 11.4193 83.3507 14.0364 86.3758ZM111.326 7.74978C111.241 7.81615 111.065 7.9192 110.81 7.97042C110.56 8.02053 110.337 8.00046 110.176 7.95895C109.896 7.88688 109.858 7.77769 109.912 7.84926C109.966 7.91919 109.883 7.86796 109.884 7.60804C109.886 7.45703 109.919 7.25205 110.023 7.03577C110.131 6.8137 110.267 6.67317 110.352 6.60665L115.269 12.9176C117.027 11.5479 117.87 9.61304 117.884 7.66856C117.898 5.85462 117.205 4.21891 116.273 2.99689C115.342 1.7765 113.942 0.667874 112.172 0.211899C110.266 -0.279104 108.172 0.0663543 106.41 1.43887L111.326 7.74978ZM110.352 6.60665C108.855 7.77323 84.1677 26.9218 59.8456 45.7858C47.6866 55.2162 35.6214 64.5735 26.596 71.5732C22.0833 75.073 18.3306 77.9835 15.706 80.019C14.3937 81.0367 13.3635 81.8357 12.6613 82.3803C12.3102 82.6525 12.0411 82.8612 11.8598 83.0018C11.7692 83.0721 11.7005 83.1254 11.6544 83.1611C11.6314 83.179 11.6141 83.1924 11.6025 83.2014C11.5967 83.2059 11.5923 83.2093 11.5894 83.2116C11.5879 83.2127 11.5868 83.2135 11.5861 83.2141C11.5854 83.2147 11.585 83.215 14.0364 86.3758C16.4877 89.5366 16.4881 89.5363 16.4888 89.5358C16.4895 89.5352 16.4906 89.5344 16.4921 89.5332C16.495 89.531 16.4993 89.5276 16.5051 89.5231C16.5167 89.5141 16.5341 89.5006 16.5571 89.4828C16.6032 89.4471 16.6719 89.3938 16.7625 89.3235C16.9438 89.1829 17.2129 88.9742 17.564 88.7019C18.2662 88.1574 19.2964 87.3584 20.6087 86.3406C23.2333 84.3051 26.9861 81.3947 31.4988 77.8948C40.5242 70.8951 52.5894 61.5378 64.7485 52.1073C89.0626 33.2495 113.762 14.0912 115.269 12.9176L110.352 6.60665Z" fill="white" mask="url(#path-1-outside-1_222_122)"/>
<path d="M36.2022 40.2177C34.2994 37.7854 31.9471 36.0766 29.1663 35.1263C29.5943 33.6514 30.2681 32.1556 31.2022 30.6377C32.4446 28.6188 33.7421 26.9866 35.0853 25.7179L36.2755 24.5939L35.052 23.5063L30.6782 19.6185L29.839 18.8725L28.8867 19.4676C26.2352 21.1249 23.6693 22.9875 21.1889 25.0545L21.1793 25.0625L21.1698 25.0707C18.7441 27.1617 16.5674 29.4638 14.6412 31.9762L14.6315 31.9889L14.622 32.0018C12.7592 34.542 11.2766 37.295 10.1757 40.2569C9.05298 43.196 8.5 46.374 8.5 49.7762C8.5 51.9128 8.90173 53.9373 9.71471 55.8342C10.5095 57.6888 11.5757 59.3359 12.9149 60.7645L12.948 60.7998L12.9833 60.8329C14.4 62.161 15.9966 63.2254 17.7674 64.0223L17.7797 64.0278L17.7921 64.0331C19.689 64.8461 21.7135 65.2478 23.8501 65.2478C25.9823 65.2478 28.0029 64.8477 29.8965 64.0381C31.8357 63.2432 33.504 62.1684 34.8731 60.7992C36.2984 59.374 37.4142 57.7248 38.2168 55.8614C39.1172 53.9602 39.5646 51.9258 39.5646 49.7762C39.5646 46.1993 38.4384 42.9944 36.2022 40.2177Z" fill="#0F903D" stroke="white" stroke-width="3"/>
<path d="M70.3583 44.7984C69.4408 41.8497 67.8466 39.4183 65.5829 37.5443C66.5057 36.3167 67.6658 35.1567 69.0772 34.0683C70.9543 32.6206 72.746 31.554 74.4516 30.8436L75.9629 30.2143L75.2041 28.7637L72.4917 23.5784L71.9712 22.5834L70.8698 22.8025C67.8031 23.4127 64.7437 24.2453 61.6919 25.2993L61.6801 25.3034L61.6683 25.3077C58.6591 26.4036 55.8078 27.785 53.1164 29.4518L53.1028 29.4603L53.0894 29.469C50.4473 31.1843 48.0854 33.2333 46.0065 35.613C43.9152 37.9636 42.272 40.7395 41.0665 43.921C40.3094 45.9189 39.9678 47.9544 40.0558 50.0163C40.1419 52.0322 40.5553 53.9502 41.3015 55.7606L41.3199 55.8054L41.3412 55.8488C42.1954 57.5928 43.3112 59.1538 44.6848 60.5264L44.6943 60.536L44.704 60.5453C46.1898 61.9777 47.9406 63.0707 49.9386 63.8278C51.9324 64.5833 53.9637 64.9251 56.0214 64.839C58.1164 64.7828 60.0572 64.3688 61.8227 63.5737C63.6605 62.7459 65.2883 61.5991 66.6991 60.141C68.2147 58.6822 69.354 56.9383 70.1156 54.9282C71.3831 51.5834 71.4655 48.1874 70.3583 44.7984Z" fill="#CC3D41" stroke="white" stroke-width="3"/>
<path d="M10 75.5388L9.33908 74.1922L10.5879 76.9188L10 75.5388ZM10 75.5388C9.33908 74.1922 9.3395 74.192 9.34033 74.1916L9.34406 74.1898L9.35894 74.1825L9.41811 74.1534L9.6519 74.0387L10.5641 73.591L14.0297 71.8904C17.017 70.4245 21.2886 68.3288 26.4254 65.8092C36.6989 60.7701 50.4336 54.0356 64.2776 47.2541C91.9251 33.7112 120.113 19.9298 121.909 19.1599C123.226 18.5956 124.526 18.7284 125.59 19.3225C126.609 19.8909 127.343 20.8365 127.76 21.8366C128.177 22.8374 128.331 24.024 128.026 25.1494C127.708 26.322 126.906 27.3537 125.591 27.9173C123.839 28.6682 95.0862 40.9194 66.7754 52.9812C52.6192 59.0124 38.5723 64.9968 28.0645 69.4734L15.3857 74.8748L11.8409 76.3849L10.9079 76.7825L10.6687 76.8843L10.6082 76.9101L10.593 76.9166L10.5892 76.9182C10.5883 76.9186 10.5879 76.9188 10 75.5388Z" fill="#FCCD05" stroke="white" stroke-width="3"/>
</svg>
