<svg width="145" height="138" viewBox="0 0 145 138" fill="none" xmlns="http://www.w3.org/2000/svg">
<circle cx="76.3539" cy="67.5" r="58.5" transform="rotate(90 76.3539 67.5)" fill="#FDEFCC"/>
<circle cx="119.808" cy="105.739" r="9" transform="rotate(90 119.808 105.739)" fill="#FDEFCC"/>
<circle cx="49.8539" cy="117" r="9" transform="rotate(90 49.8539 117)" fill="#FDEFCC"/>
<circle cx="23.8539" cy="39" r="9" transform="rotate(90 23.8539 39)" fill="#FDEFCC"/>
<circle cx="33.3539" cy="28.5" r="6.5" transform="rotate(90 33.3539 28.5)" fill="#FDEFCC"/>
<circle cx="40.3539" cy="19.5" r="6.5" transform="rotate(90 40.3539 19.5)" fill="#FDEFCC"/>
<circle cx="88.3539" cy="11.5" r="6.5" transform="rotate(90 88.3539 11.5)" fill="#FDEFCC"/>
<circle cx="81.3539" cy="6.5" r="6.5" transform="rotate(90 81.3539 6.5)" fill="#FDEFCC"/>
<circle cx="69.3539" cy="6.5" r="6.5" transform="rotate(90 69.3539 6.5)" fill="#FDEFCC"/>
<circle cx="8.35388" cy="42.5" r="3.5" transform="rotate(90 8.35388 42.5)" fill="#FDEFCC"/>
<circle cx="4.35388" cy="31.5" r="3.5" transform="rotate(90 4.35388 31.5)" fill="#FDEFCC"/>
<circle cx="18.3539" cy="21.5" r="3.5" transform="rotate(90 18.3539 21.5)" fill="#FDEFCC"/>
<circle cx="47.3539" cy="134.5" r="3.5" transform="rotate(90 47.3539 134.5)" fill="#FDEFCC"/>
<circle cx="117.354" cy="126.5" r="3.5" transform="rotate(90 117.354 126.5)" fill="#FDEFCC"/>
<circle cx="141.354" cy="74.5" r="3.5" transform="rotate(90 141.354 74.5)" fill="#FDEFCC"/>
</svg>
