<svg width="138" height="144" viewBox="0 0 138 144" fill="none" xmlns="http://www.w3.org/2000/svg">
<circle cx="70.4999" cy="75.5" r="58.5" transform="rotate(-180 70.4999 75.5)" fill="#FDEFCC"/>
<circle cx="32.2609" cy="118.954" r="9" transform="rotate(-180 32.2609 118.954)" fill="#FDEFCC"/>
<circle cx="20.9999" cy="49" r="9" transform="rotate(-180 20.9999 49)" fill="#FDEFCC"/>
<circle cx="99" cy="23" r="9" transform="rotate(-180 99 23)" fill="#FDEFCC"/>
<circle cx="109.5" cy="32.5" r="6.5" transform="rotate(-180 109.5 32.5)" fill="#FDEFCC"/>
<circle cx="118.5" cy="39.5" r="6.5" transform="rotate(-180 118.5 39.5)" fill="#FDEFCC"/>
<circle cx="126.5" cy="87.5" r="6.5" transform="rotate(-180 126.5 87.5)" fill="#FDEFCC"/>
<circle cx="131.5" cy="80.5" r="6.5" transform="rotate(-180 131.5 80.5)" fill="#FDEFCC"/>
<circle cx="131.5" cy="68.5" r="6.5" transform="rotate(-180 131.5 68.5)" fill="#FDEFCC"/>
<circle cx="95.5" cy="7.5" r="3.5" transform="rotate(-180 95.5 7.5)" fill="#FDEFCC"/>
<circle cx="106.5" cy="3.5" r="3.5" transform="rotate(-180 106.5 3.5)" fill="#FDEFCC"/>
<circle cx="116.5" cy="17.5" r="3.5" transform="rotate(-180 116.5 17.5)" fill="#FDEFCC"/>
<circle cx="3.49995" cy="46.5" r="3.5" transform="rotate(-180 3.49995 46.5)" fill="#FDEFCC"/>
<circle cx="11.4999" cy="116.5" r="3.5" transform="rotate(-180 11.4999 116.5)" fill="#FDEFCC"/>
<circle cx="63.4999" cy="140.5" r="3.5" transform="rotate(-180 63.4999 140.5)" fill="#FDEFCC"/>
</svg>
