<svg width="71" height="71" viewBox="0 0 71 71" fill="none" xmlns="http://www.w3.org/2000/svg">
<path d="M16.7731 5.90341C16.0274 5.61532 15.2171 5.53683 14.43 5.67643C13.6429 5.81603 12.9091 6.16841 12.308 6.69537L0 17.4858L18.8264 31.5584L37.6527 31.9951L48.5166 18.167L16.7731 5.90341Z" fill="#E5E0B4"/>
<path d="M58.3389 13.6754C57.4283 13.2418 56.4346 13.0105 55.426 12.9973C54.4175 12.9841 53.4181 13.1894 52.4964 13.599L35.4238 21.186L39.3061 30.2977L50.9888 35.3322L67.5613 26.5876L71.0002 19.7038L58.3389 13.6754Z" fill="#EF595C"/>
<path d="M50.9884 28.5968L44.7974 32.664V46.4482L50.9884 52.1395L68.1679 44.505C69.0108 44.1304 69.727 43.5194 70.2296 42.7461C70.7323 41.9727 70.9998 41.0701 70.9998 40.1477V19.7038L50.9884 28.5968Z" fill="#CE3A3D"/>
<path d="M35.4238 44.7288L50.9888 52.1396V28.5968L35.4238 21.1859V44.7288Z" fill="#E25053"/>
<path d="M51.0427 25.3746C50.0174 25.3746 48.814 24.9843 47.8519 24.585C47.191 24.3109 44.9746 23.3237 44.2005 22.1283C44.046 21.8898 43.9926 21.5997 44.052 21.3218C44.1114 21.0439 44.2788 20.801 44.5173 20.6465C44.7558 20.492 45.0459 20.4386 45.3238 20.498C45.6017 20.5574 45.8446 20.7248 45.9991 20.9633C46.1849 21.2504 47.0975 21.9329 48.5444 22.5515C49.6529 23.0255 50.4507 23.1969 50.8982 23.2309C50.0592 21.3229 50.0373 19.9137 50.8336 19.0419C51.4608 18.3553 52.4663 18.1827 53.5932 18.5685C53.8264 18.6483 54.0605 18.7547 54.3289 18.9033C56.6346 20.178 57.4764 19.9858 57.6077 19.9406C57.6666 19.715 57.5413 18.6285 55.9063 16.6731C55.8161 16.5652 55.748 16.4405 55.7059 16.3062C55.6638 16.172 55.6486 16.0307 55.6611 15.8906C55.6736 15.7505 55.7135 15.6141 55.7787 15.4894C55.8439 15.3648 55.933 15.2541 56.0409 15.1639C56.1489 15.0736 56.2735 15.0055 56.4078 14.9634C56.542 14.9213 56.6833 14.9061 56.8234 14.9186C56.9636 14.9311 57.0999 14.971 57.2246 15.0362C57.3493 15.1014 57.4599 15.1905 57.5502 15.2984C59.685 17.8517 60.3092 20.0441 59.2625 21.3129C58.5475 22.1797 56.9311 22.7905 53.2921 20.7786C53.1357 20.6922 53.0109 20.634 52.8988 20.5957C52.6545 20.5121 52.4922 20.5042 52.4158 20.5115C52.382 20.6541 52.329 21.1815 52.8838 22.4228C53.5076 23.8182 52.9769 24.7242 52.2723 25.107C51.923 25.2967 51.5005 25.3746 51.0427 25.3746Z" fill="#FFF9C5"/>
<path d="M37.6529 45.631L2.7568 32.1839C1.94532 31.8713 1.24758 31.3202 0.755468 30.6033C0.26336 29.8863 -2.74779e-05 29.0371 2.15009e-09 28.1675L2.15009e-09 17.4858L37.6529 31.9949V45.631Z" fill="#CBC595"/>
<path d="M26.9539 25.8236C26.0539 25.8236 25.1679 25.6099 24.7109 24.8364C23.789 23.2761 25.705 21.125 27.7009 19.2265C28.5831 18.3872 29.5013 17.4814 30.1802 16.45C30.3868 16.1362 30.5026 15.8717 30.5589 15.6942C29.4536 15.6222 28.2159 16.4032 27.0383 17.2142C26.4818 17.5973 25.9515 18.0103 25.3902 18.4475C24.554 19.0986 23.6895 19.7719 22.731 20.3389C20.9069 21.418 18.2644 22.7374 16.3886 21.7399C15.7943 21.4239 15.4304 20.9069 15.3634 20.2841C15.236 19.0961 16.2021 17.7005 18.4961 15.759L18.5713 15.6953C19.9999 14.4774 20.8939 13.5903 21.4521 12.9663C20.5174 13.387 19.1211 14.1403 17.1652 15.4377C15.3789 16.6226 13.7616 17.5137 12.4882 18.0145C11.7907 18.2888 9.938 19.0175 9.0505 17.8604C8.20349 16.7566 9.19181 15.2245 10.1474 14.0131C11.329 12.5152 13.2524 10.5866 15.864 8.28136C16.077 8.09332 16.356 7.9976 16.6396 8.01526C16.9232 8.03291 17.1882 8.16251 17.3762 8.37552C17.5643 8.58854 17.66 8.86754 17.6423 9.15113C17.6247 9.43473 17.4951 9.69969 17.2821 9.88774C13.2801 13.4205 11.7768 15.2973 11.2128 16.1958C12.0629 15.9232 13.6049 15.2277 15.9806 13.6518C17.8828 12.3899 19.5682 11.4349 20.8549 10.8894C21.612 10.5683 23.3851 9.81674 24.2197 10.924C25.0172 11.9824 23.9207 13.3459 23.5079 13.8592C22.756 14.7941 21.563 15.9603 19.9619 17.3254L19.8808 17.3943C18.1856 18.8289 17.6947 19.5944 17.5527 19.9086C18.0018 20.0316 19.1121 19.9897 21.6404 18.4941C22.4813 17.9967 23.2548 17.3943 24.0739 16.7564C24.6351 16.3195 25.2152 15.8677 25.8234 15.449C26.9805 14.6524 28.9172 13.3186 30.9618 13.581C31.9945 13.7136 32.4156 14.3147 32.5748 14.6612C33.057 15.7113 32.4031 16.9707 31.9705 17.6278C31.1669 18.8484 30.1077 19.8942 29.1782 20.7786C27.4597 22.4133 26.8923 23.2836 26.7052 23.6741C27.3415 23.7271 28.7135 23.503 29.8808 23.133C30.1517 23.0471 30.4456 23.0724 30.6978 23.2032C30.9501 23.334 31.14 23.5597 31.2259 23.8306C31.3117 24.1014 31.2865 24.3953 31.1556 24.6476C31.0248 24.8998 30.7991 25.0898 30.5283 25.1756C30.4853 25.1892 29.4612 25.5118 28.3357 25.6945C27.9121 25.7635 27.4309 25.8235 26.9539 25.8236ZM54.4103 51.7485C53.2829 43.5521 49.2952 30.0253 36.2137 30.0253C23.1322 30.0253 19.1444 43.5524 18.017 51.7485C17.2771 57.1284 20.4904 62.2942 25.6549 63.9731C28.255 64.8184 31.687 65.3909 36.2138 65.3909C40.7406 65.3909 44.1726 64.8183 46.7727 63.9731C51.937 62.2942 55.1503 57.1283 54.4103 51.7485Z" fill="#734233"/>
<path d="M39.785 64.3909C35.2582 64.3909 31.8262 63.8183 29.2261 62.9731C24.0617 61.2942 20.8483 56.1283 21.5882 50.7485C22.5138 44.0199 25.3684 33.7008 33.5977 30.2201C22.5889 31.8964 19.0652 44.1265 18.0167 51.7485C17.2768 57.1284 20.4901 62.2942 25.6546 63.9731C28.2547 64.8184 31.6867 65.3909 36.2135 65.3909C40.7403 65.3909 44.1723 64.8183 46.7724 63.9731C47.0164 63.8928 47.2575 63.8042 47.4954 63.7074C45.3646 64.1323 42.8223 64.3909 39.785 64.3909Z" fill="#663B2D"/>
<path d="M35.0656 61.6953C29.4104 61.6953 24.8096 57.0944 24.8096 51.4392C24.8096 46.7969 28.5864 43.02 33.2288 43.02C37.0608 43.02 40.1783 46.1377 40.1783 49.9696C40.1783 53.1533 37.5882 55.7436 34.4043 55.7436C31.7391 55.7436 29.5709 53.5753 29.5709 50.9102C29.5709 50.626 29.6837 50.3535 29.8847 50.1526C30.0856 49.9517 30.3581 49.8388 30.6422 49.8388C30.9264 49.8388 31.1989 49.9517 31.3998 50.1526C31.6007 50.3535 31.7136 50.626 31.7136 50.9102C31.7136 52.3937 32.9206 53.6007 34.4041 53.6007C36.4064 53.6007 38.0353 51.9719 38.0353 49.9696C38.0353 47.3191 35.8789 45.1628 33.2285 45.1628C29.7676 45.1628 26.9522 47.9784 26.9522 51.4391C26.9522 55.9126 30.5918 59.5522 35.0653 59.5522C40.8051 59.5522 45.4746 54.8826 45.4746 49.143C45.4746 41.8207 39.5174 35.8635 32.195 35.8635C31.9108 35.8635 31.6383 35.7506 31.4374 35.5497C31.2365 35.3487 31.1236 35.0762 31.1236 34.7921C31.1236 34.5079 31.2365 34.2354 31.4374 34.0345C31.6383 33.8336 31.9108 33.7207 32.195 33.7207C40.6989 33.7207 47.6174 40.6392 47.6174 49.143C47.6178 56.0643 41.9869 61.6953 35.0656 61.6953Z" fill="#FFF9C5"/>
</svg>
