<svg width="60" height="60" viewBox="0 0 60 60" fill="none" xmlns="http://www.w3.org/2000/svg">
<g clip-path="url(#clip0_2217_4001)">
<path d="M56.6249 35.3658C56.6249 36.4501 56.1858 37.4309 55.4759 38.1408C54.7648 38.8507 53.784 39.2898 52.7009 39.2898H7.29902C5.1327 39.2898 3.375 37.5334 3.375 35.3658C3.375 34.7851 3.50063 34.2351 3.72633 33.7398C3.92144 33.3122 4.19161 32.9231 4.52402 32.5908C5.23512 31.8809 6.21586 31.4418 7.29902 31.4418H52.701C54.2879 31.4418 55.6553 32.3834 56.2737 33.7398C56.506 34.2503 56.6258 34.8049 56.6249 35.3658Z" fill="#884D00"/>
<path d="M56.2739 33.7398C56.0783 34.1668 55.8082 34.5555 55.4762 34.8877C54.7651 35.5976 53.7844 36.0367 52.7012 36.0367H7.29926C5.71359 36.0367 4.34625 35.0951 3.72656 33.7399C3.92164 33.3123 4.19181 32.9232 4.52426 32.5909C5.23535 31.881 6.21609 31.4419 7.29926 31.4419H52.7012C54.288 31.4418 55.6554 32.3835 56.2739 33.7398Z" fill="#AA6100"/>
<path d="M60 42.4574C60 47.5133 57.6593 51.2701 53.8755 53.7621C50.0906 56.2553 44.8628 57.4836 39.0884 57.4836H20.9115C9.36293 57.4836 0 52.5692 0 42.4574C0 41.8938 0.140273 41.3596 0.393984 40.879C0.608672 40.4692 0.905039 40.0996 1.26492 39.7848C2.04562 39.1005 3.12633 38.6772 4.31801 38.6772H55.6821C57.4227 38.6772 58.923 39.5798 59.6061 40.879C59.8597 41.3597 60 41.8939 60 42.4574Z" fill="#FFA733"/>
<path d="M59.6061 40.8791C58.7913 44.2456 56.7494 46.8681 53.8756 48.7611C50.0907 51.2543 44.8628 52.4826 39.0884 52.4826H20.9116C10.751 52.4826 2.28346 48.6794 0.394043 40.8791C0.60873 40.4693 0.905098 40.0997 1.26498 39.7849C2.04568 39.1006 3.12639 38.6774 4.31807 38.6774H55.6822C57.4228 38.6774 58.923 39.5801 59.6061 40.8791Z" fill="#FFB655"/>
<path d="M46.6861 29.7952L36.5352 39.9461C36.2856 40.1954 36.0127 40.4205 35.7204 40.6181C33.5712 42.0733 30.6267 41.8501 28.7227 39.9461L18.5718 29.7952H46.6861Z" fill="#EEBF00"/>
<path d="M46.6858 29.7952L36.5349 39.9461C36.2852 40.1954 36.0124 40.4205 35.7201 40.6181C34.9215 40.3464 34.1964 39.8939 33.6013 39.2959L24.1006 29.7952H46.6858Z" fill="#FFD422"/>
<path d="M58.8606 31.2113C58.8606 31.7431 58.7729 32.287 58.5826 32.8177C57.8372 34.8974 55.8418 35.7048 54.2866 34.5558L52.4215 33.1787C51.1201 32.2164 49.46 32.6104 48.5183 34.1058L48.4389 34.2314C47.5351 35.6683 45.9591 36.0952 44.6723 35.2535L40.4958 32.5225C39.5322 31.8931 38.3771 31.9614 37.4648 32.7042L34.1178 35.4267C33.1566 36.2086 31.932 36.2415 30.9452 35.5109L27.1273 32.681C26.1515 31.9577 24.9415 31.9808 23.984 32.742L20.5077 35.5024C19.5746 36.2428 18.4012 36.2855 17.4364 35.6159L12.9354 32.4884C12.0499 31.8736 10.9826 31.8565 10.0849 32.4433L5.8865 35.189C3.09075 35.5488 1.73079 33.4959 1.73079 33.4959C1.06118 32.3323 0.994034 30.9527 1.35638 29.7952C1.78692 28.412 2.82989 27.3459 4.18622 27.3459H55.8151C57.1445 27.3459 58.207 28.3962 58.6437 29.7891C58.7882 30.2493 58.8614 30.7289 58.8606 31.2113Z" fill="#6DC82A"/>
<path d="M58.6437 29.7891C58.6254 29.85 58.6046 29.9098 58.5827 29.9708C57.8374 32.0517 55.842 32.8593 54.2868 31.7102L52.4217 30.3319C51.1202 29.3707 49.4602 29.7647 48.5184 31.2589L48.4391 31.3857C47.5352 32.8226 45.9593 33.2495 44.6725 32.4079L40.496 29.6768C39.5324 29.0462 38.3773 29.1157 37.465 29.8586L34.118 32.5811C33.1568 33.3629 31.9322 33.3947 30.9454 32.664L27.1275 29.8342C26.1517 29.1109 24.9417 29.1353 23.9842 29.8951L20.5078 32.6566C19.5746 33.3959 18.4013 33.4397 17.4364 32.7701L12.9355 29.6426C12.0499 29.0266 10.9827 29.0095 10.0849 29.5975L5.88656 32.3419C3.09082 32.7029 1.73086 30.6489 1.73086 30.6489C1.57592 30.3784 1.4504 30.0922 1.35645 29.795C1.78699 28.4119 2.82996 27.3457 4.18629 27.3457H55.8151C57.1445 27.3458 58.2069 28.3961 58.6437 29.7891Z" fill="#7ED63E"/>
<path d="M57.8188 24.8355C57.8272 25.2299 57.7767 25.6234 57.6688 26.0028C57.1968 27.6471 55.6818 28.8498 53.8864 28.8498C46.8361 28.8498 28.0579 28.6912 25.2257 28.7851C25.1623 28.7876 25.0989 28.79 25.0367 28.7912C21.4604 28.9266 20.6456 29.4998 20.6456 31.4064V38.3822C20.6456 38.7408 20.5004 39.0664 20.2651 39.3019C20.1446 39.4227 20.0014 39.5185 19.8438 39.5838C19.6862 39.6491 19.5172 39.6826 19.3465 39.6824C18.6281 39.6824 18.0462 40.2642 18.0462 40.9827V44.0211C18.0462 44.3297 18.0097 44.6286 17.9389 44.9164C17.5376 46.5778 16.0385 47.811 14.2381 47.811H14.1418C12.095 47.811 10.4385 46.1484 10.4446 44.1016L10.4617 38.6018C10.462 38.4009 10.5019 38.202 10.5792 38.0166C10.6564 37.8312 10.7694 37.6628 10.9119 37.5211C11.0541 37.3789 11.2229 37.2661 11.4088 37.1893C11.5947 37.1125 11.7939 37.0731 11.995 37.0734C12.8416 37.0734 13.5283 36.3867 13.5283 35.5401V31.4064C13.5283 29.9939 12.3842 28.8498 10.9717 28.8498H6.18767C4.03482 28.8498 2.22345 27.1507 2.17951 24.9978C2.13556 22.7889 3.914 20.9836 6.11326 20.9836H53.8083C55.9624 20.9836 57.7762 22.6827 57.8188 24.8355Z" fill="#FF3501"/>
<path d="M57.8189 24.8355C57.8273 25.2299 57.7768 25.6234 57.6689 26.0028C50.2053 25.9956 32.3711 25.8479 29.617 25.9382C25.8796 26.0613 25.0368 26.6212 25.0368 28.5607V28.7912C21.4605 28.9266 20.6457 29.4998 20.6457 31.4064V38.3822C20.6457 38.7408 20.5005 39.0664 20.2652 39.3019C20.1447 39.4227 20.0015 39.5185 19.8439 39.5838C19.6863 39.6491 19.5173 39.6826 19.3466 39.6824C18.6282 39.6824 18.0463 40.2642 18.0463 40.9827V44.0211C18.0463 44.3297 18.0098 44.6286 17.939 44.9164C16.1752 44.6323 14.8298 43.099 14.8359 41.2547L14.853 35.756C14.8531 35.5551 14.893 35.3562 14.9702 35.1708C15.0475 34.9853 15.1606 34.8169 15.3031 34.6753C15.4453 34.5331 15.6142 34.4203 15.8001 34.3435C15.9859 34.2667 16.1851 34.2273 16.3863 34.2276C17.2328 34.2276 17.9195 33.5409 17.9195 32.6944V28.5606C17.9195 27.1481 16.7754 26.004 15.363 26.004H10.5789C8.42606 26.004 6.61469 24.3049 6.57074 22.1521C6.56221 21.7572 6.61321 21.3633 6.72203 20.9836H53.8084C55.9625 20.9836 57.7763 22.6827 57.8189 24.8355Z" fill="#FF5023"/>
<path d="M35.3167 16.9852L26.6137 25.6918C25.7415 26.564 24.7132 27.1848 23.6179 27.552C20.9173 28.4644 17.8143 27.8435 15.6651 25.6918L6.9585 16.9852H35.3167Z" fill="#EEBF00"/>
<path d="M35.3168 16.9852L26.6137 25.6918C25.7416 26.564 24.7133 27.1848 23.618 27.552C22.5238 27.1848 21.4956 26.564 20.6246 25.6918L11.918 16.9852H35.3168Z" fill="#FFD422"/>
<path d="M60 18.2099C60 18.2746 59.9975 18.338 59.9939 18.4014C59.9481 19.1935 59.6125 19.9412 59.051 20.5018C58.7504 20.8033 58.3931 21.0423 57.9998 21.2051C57.6064 21.368 57.1848 21.4515 56.7591 21.4508H3.24094C1.45148 21.4507 0 19.9992 0 18.2099C0 14.3262 1.80035 11.4023 4.51922 9.20308C6.72574 7.41738 9.53848 6.10851 12.483 5.14863C20.7213 2.46644 30 2.51636 30 2.51636C30 2.51636 60 2.35417 60 18.2099Z" fill="#FFA733"/>
<path d="M59.9998 18.2099C59.9998 18.2746 59.9973 18.338 59.9937 18.4014H9.82736C8.03803 18.4014 6.58643 16.9499 6.58643 15.1604C6.58643 11.2767 8.38678 8.35289 11.1056 6.15374C11.5423 5.79996 12.0021 5.46585 12.4827 5.14863C20.7211 2.46644 29.9998 2.51636 29.9998 2.51636C29.9998 2.51636 59.9998 2.35417 59.9998 18.2099Z" fill="#FFB655"/>
<path d="M46.1248 8.18612C46.645 8.73667 46.6204 9.60468 46.07 10.125C45.5194 10.6452 44.6514 10.6206 44.1312 10.0701C43.611 9.51972 42.6535 7.61225 43.204 7.09194C43.7546 6.57163 45.6046 7.63546 46.1248 8.18612ZM38.8551 14.9641C39.1266 15.6712 38.7735 16.4646 38.0664 16.7361C37.3593 17.0076 36.566 16.6546 36.2944 15.9475C36.0229 15.2403 35.8634 13.1121 36.5704 12.8406C37.2775 12.5692 38.5836 14.257 38.8551 14.9641ZM31.3713 9.32331C31.3713 10.0808 30.7572 10.6948 29.9998 10.6948C29.2423 10.6948 28.6284 10.0807 28.6284 9.32331C28.6284 8.56581 29.2424 6.52194 29.9998 6.52194C30.7573 6.52182 31.3713 8.56581 31.3713 9.32331ZM23.8304 15.8236C23.641 16.5569 22.8929 16.9979 22.1595 16.8085C21.4262 16.6192 20.9852 15.871 21.1746 15.1377C21.3639 14.4043 22.4696 12.5789 23.2031 12.7683C23.9364 12.9576 24.0198 15.0903 23.8304 15.8236ZM16.2853 9.8496C15.955 10.5312 15.1348 10.8162 14.453 10.4859C13.7715 10.1557 13.4865 9.3355 13.8167 8.6537C14.1469 7.97214 15.5906 6.40018 16.2724 6.73054C16.954 7.06089 16.6155 9.16804 16.2853 9.8496Z" fill="#FFF5CC"/>
</g>
<defs>
<clipPath id="clip0_2217_4001">
<rect width="60" height="60" fill="white"/>
</clipPath>
</defs>
</svg>
