<svg width="56" height="56" viewBox="0 0 56 56" fill="none" xmlns="http://www.w3.org/2000/svg">
<g clip-path="url(#clip0_2217_4073)">
<path d="M55.9935 4.31582C55.917 3.48533 55.1817 2.87415 54.3514 2.9506L53.1625 3.05997L53.2719 1.87107C53.3483 1.04058 52.737 0.305584 51.9067 0.229022C51.0762 0.152569 50.3411 0.763865 50.2646 1.59435L50.0388 4.04829L46.0287 8.0583C45.439 8.64805 45.439 9.6041 46.0287 10.1937C46.6184 10.7835 47.5745 10.7835 48.1642 10.1937L52.1742 6.18372L54.6281 5.95787C55.4586 5.88141 56.0699 5.1463 55.9935 4.31582Z" fill="#FFF1AC"/>
<path d="M46.5195 10.6846L47.63 9.57413C47.8427 9.36151 46.8213 7.99531 46.6087 7.78268L46.1863 7.36027C46.0841 7.25819 45.9456 7.20084 45.8012 7.20084C45.6568 7.20084 45.5183 7.25819 45.4162 7.36027L44.3057 8.47076C44.1829 8.59311 44.0326 8.68443 43.8675 8.73716C43.7023 8.78988 43.527 8.80249 43.356 8.77395C40.7448 8.34574 37.4309 9.57009 34.8082 12.1927C31.1214 15.8795 30.197 20.9325 32.7435 23.4791C35.29 26.0256 40.3431 25.1011 44.0298 21.4144C46.6525 18.7917 46.6447 14.2458 46.2165 11.6344C46.1879 11.4634 46.2004 11.2881 46.2531 11.1229C46.3058 10.9577 46.3972 10.8075 46.5195 10.6846Z" fill="#BC7C63"/>
<path d="M48.8622 10.0361L46.6086 7.78256C46.6592 7.83312 46.6993 7.89315 46.7267 7.95922C46.754 8.02529 46.7681 8.0961 46.7681 8.16762C46.7681 8.23913 46.754 8.30995 46.7267 8.37601C46.6993 8.44208 46.6592 8.50211 46.6086 8.55267L45.4982 9.66327C45.3759 9.78609 45.2845 9.93631 45.2318 10.1015C45.1791 10.2666 45.1665 10.442 45.195 10.613C45.6232 13.2242 44.3989 16.538 41.7763 19.1607C38.6523 22.2847 34.548 23.4243 31.8184 22.1506C32.0478 22.6425 32.3547 23.0902 32.7435 23.479C35.2899 26.0254 40.343 25.101 44.0299 21.4143C46.6525 18.7916 47.8768 15.4777 47.4486 12.8665C47.42 12.6955 47.4327 12.5202 47.4854 12.355C47.5381 12.1899 47.6294 12.0397 47.7518 11.9168L48.8622 10.8065C48.9127 10.7559 48.9529 10.6958 48.9802 10.6297C49.0076 10.5637 49.0217 10.4928 49.0217 10.4213C49.0217 10.3498 49.0076 10.2789 48.9802 10.2128C48.9529 10.1468 48.9127 10.0867 48.8622 10.0361Z" fill="#935B44"/>
<path d="M47.4634 28.8062C47.4634 26.8153 48.1453 24.6405 47.281 22.8805C46.4453 21.1785 45.2257 20.5355 43.731 19.1634C42.3475 17.8934 41.5027 15.4497 39.6758 14.5546C38.2259 13.8444 36.3043 12.9536 34.557 12.7701C34.2639 12.7392 33.9741 12.6961 33.6901 12.6338C31.8414 12.2283 30.019 10.8084 27.9999 10.8084C25.9809 10.8084 24.1586 12.2283 22.31 12.6337C20.3322 13.0675 18.0756 12.5761 16.3824 13.4054C14.5556 14.3003 13.6004 16.3997 12.217 17.6696C10.7223 19.0418 8.56279 19.8905 7.72694 21.5925C6.86266 23.3526 7.54451 25.5273 7.54451 27.5182L47.4634 28.8062Z" fill="#FFE54C"/>
<path d="M48.2728 21.5924C47.437 19.8904 45.2774 19.0418 43.7827 17.6695C42.3992 16.3996 41.444 14.3002 39.6172 13.4053C38.1673 12.695 36.3042 12.9531 34.5568 12.7695C34.6251 12.7983 34.6928 12.8284 34.7594 12.8611C36.6568 13.7905 37.6488 15.9708 39.0856 17.2897C40.6381 18.7147 42.8808 19.5962 43.7488 21.3638C44.6464 23.1918 43.9383 25.4504 43.9383 27.5181L24.7051 42.7223L47.4997 44.8428L48.4552 27.5181C48.4553 25.5272 49.1372 23.3525 48.2728 21.5924Z" fill="#FFD500"/>
<path d="M50.0059 26.898H4.86758L1.63599 34.6605C1.36505 35.3113 1.32856 36.0359 1.53274 36.7106L2.31149 39.2845L4.08894 41.4352L3.99313 44.8426L5.9936 51.4549C6.77016 54.0216 9.13561 55.7773 11.8173 55.7773H43.0563C45.738 55.7773 48.1034 54.0216 48.88 51.4549L53.3408 36.7106C53.545 36.0359 53.5085 35.3113 53.2376 34.6605L50.0059 26.898Z" fill="#935B44"/>
<path d="M54.3641 34.6605L51.1325 26.898H46.6255L49.8571 34.6605C50.128 35.3113 50.1645 36.0359 49.9603 36.7106L45.4995 51.4549C44.7229 54.0216 42.3574 55.7773 39.6758 55.7773H44.1828C46.8645 55.7773 49.2299 54.0216 50.0065 51.4549L52.0069 44.8428L51.7209 42.0636L53.6885 39.2845L54.4672 36.7106C54.6715 36.0359 54.635 35.3113 54.3641 34.6605Z" fill="#7C4B37"/>
<path d="M3.99316 44.8427H47.5002L49.9023 40.7019L49.1818 39.2846H2.31152L3.99316 44.8427Z" fill="#FFE54C"/>
<path d="M52.007 44.8427L53.6887 39.2846H49.1815L47.5 44.8427H52.007Z" fill="#FFD500"/>
<path d="M17.598 22.2144C17.3738 22.2144 17.1589 22.1253 17.0004 21.9669C16.842 21.8084 16.7529 21.5935 16.7529 21.3693C16.7529 21.1452 16.842 20.9303 17.0004 20.7718C17.1589 20.6133 17.3738 20.5243 17.598 20.5243C17.8221 20.5243 18.037 20.6133 18.1955 20.7718C18.354 20.9303 18.443 21.1452 18.443 21.3693C18.443 21.5935 18.354 21.8084 18.1955 21.9669C18.037 22.1253 17.8221 22.2144 17.598 22.2144ZM33.9089 16.9041C33.6848 16.9041 33.4699 16.8151 33.3114 16.6566C33.1529 16.4981 33.0639 16.2832 33.0639 16.0591C33.0639 15.835 33.1529 15.62 33.3114 15.4616C33.4699 15.3031 33.6848 15.2141 33.9089 15.2141C34.1331 15.2141 34.348 15.3031 34.5065 15.4616C34.6649 15.62 34.754 15.835 34.754 16.0591C34.754 16.2832 34.6649 16.4981 34.5065 16.6566C34.348 16.8151 34.1331 16.9041 33.9089 16.9041ZM41.246 22.2144C41.0219 22.2144 40.807 22.1253 40.6485 21.9669C40.49 21.8084 40.401 21.5935 40.401 21.3693C40.401 21.1452 40.49 20.9303 40.6485 20.7718C40.807 20.6133 41.0219 20.5243 41.246 20.5243C41.4702 20.5243 41.6851 20.6133 41.8436 20.7718C42.002 20.9303 42.0911 21.1452 42.0911 21.3693C42.0911 21.5935 42.002 21.8084 41.8436 21.9669C41.6851 22.1253 41.4702 22.2144 41.246 22.2144Z" fill="#FE76A8"/>
<path d="M13.9907 18.7168H11.3598C11.2858 18.7168 11.2125 18.7022 11.1442 18.6739C11.0758 18.6456 11.0137 18.6041 10.9614 18.5518C10.909 18.4995 10.8676 18.4374 10.8392 18.369C10.8109 18.3007 10.7964 18.2274 10.7964 18.1534V16.0838C10.7964 16.0098 10.8109 15.9365 10.8392 15.8682C10.8676 15.7998 10.909 15.7377 10.9614 15.6854C11.0137 15.6331 11.0758 15.5916 11.1442 15.5633C11.2125 15.535 11.2858 15.5204 11.3598 15.5204H13.9907C14.0647 15.5204 14.1379 15.535 14.2063 15.5633C14.2747 15.5916 14.3368 15.6331 14.3891 15.6854C14.4414 15.7377 14.4829 15.7998 14.5112 15.8682C14.5395 15.9365 14.5541 16.0098 14.5541 16.0838V18.1534C14.5541 18.3028 14.4947 18.4461 14.3891 18.5518C14.2834 18.6574 14.1401 18.7168 13.9907 18.7168Z" fill="#FEC165"/>
<path d="M15.1173 15.5204H12.8638C12.9378 15.5204 13.011 15.535 13.0794 15.5633C13.1477 15.5916 13.2099 15.6331 13.2622 15.6854C13.3145 15.7377 13.356 15.7998 13.3843 15.8682C13.4126 15.9365 13.4272 16.0098 13.4272 16.0838V18.1534C13.4272 18.2274 13.4126 18.3007 13.3843 18.369C13.356 18.4374 13.3145 18.4995 13.2622 18.5518C13.2099 18.6041 13.1477 18.6456 13.0794 18.6739C13.011 18.7022 12.9378 18.7168 12.8638 18.7168H15.1173C15.1913 18.7168 15.2646 18.7022 15.3329 18.6739C15.4013 18.6456 15.4634 18.6041 15.5157 18.5518C15.5681 18.4995 15.6096 18.4374 15.6379 18.369C15.6662 18.3007 15.6807 18.2274 15.6807 18.1534V16.0838C15.6807 15.9344 15.6213 15.7911 15.5157 15.6855C15.41 15.5798 15.2667 15.5204 15.1173 15.5204Z" fill="#FEA613"/>
<path d="M27.6246 18.7804L25.7642 16.9202C25.7119 16.8679 25.6703 16.8058 25.642 16.7374C25.6137 16.6691 25.5991 16.5958 25.5991 16.5218C25.5991 16.4478 25.6137 16.3745 25.642 16.3062C25.6703 16.2378 25.7119 16.1757 25.7642 16.1234L27.2276 14.66C27.2799 14.6076 27.342 14.5661 27.4104 14.5378C27.4787 14.5095 27.552 14.4949 27.626 14.4949C27.7 14.4949 27.7732 14.5095 27.8416 14.5378C27.9099 14.5661 27.972 14.6076 28.0243 14.66L29.8847 16.5202C29.937 16.5725 29.9785 16.6346 30.0069 16.703C30.0352 16.7713 30.0498 16.8446 30.0498 16.9186C30.0498 16.9926 30.0352 17.0659 30.0069 17.1342C29.9785 17.2026 29.937 17.2647 29.8847 17.317L28.4212 18.7804C28.3689 18.8328 28.3068 18.8743 28.2385 18.9026C28.1701 18.9309 28.0969 18.9455 28.0229 18.9455C27.9489 18.9455 27.8757 18.9309 27.8073 18.9026C27.739 18.8743 27.6769 18.8328 27.6246 18.7804Z" fill="#FEC165"/>
<path d="M30.6812 17.317L29.0878 15.7235C29.1401 15.7758 29.1816 15.8379 29.2099 15.9063C29.2382 15.9746 29.2528 16.0479 29.2528 16.1219C29.2528 16.1958 29.2382 16.2691 29.2099 16.3374C29.1816 16.4058 29.1401 16.4679 29.0878 16.5202L27.6243 17.9836C27.572 18.036 27.5099 18.0775 27.4416 18.1058C27.3732 18.1341 27.3 18.1487 27.226 18.1487C27.152 18.1487 27.0787 18.1341 27.0104 18.1058C26.942 18.0775 26.8799 18.036 26.8276 17.9836L28.4211 19.5771C28.4734 19.6295 28.5355 19.671 28.6039 19.6993C28.6723 19.7276 28.7455 19.7422 28.8195 19.7422C28.8935 19.7422 28.9668 19.7276 29.0351 19.6993C29.1035 19.671 29.1656 19.6295 29.2179 19.5771L30.6814 18.1137C30.7337 18.0614 30.7752 17.9993 30.8035 17.9309C30.8318 17.8626 30.8463 17.7893 30.8463 17.7153C30.8463 17.6413 30.8317 17.5681 30.8034 17.4997C30.7751 17.4314 30.7336 17.3693 30.6812 17.317Z" fill="#FEA613"/>
<path d="M24.7053 22.2144H22.6702C22.5593 22.2144 22.4494 22.1925 22.3468 22.1501C22.2443 22.1076 22.1511 22.0454 22.0727 21.9669C21.9942 21.8884 21.932 21.7953 21.8895 21.6927C21.847 21.5902 21.8252 21.4803 21.8252 21.3693C21.8252 21.2584 21.847 21.1485 21.8895 21.0459C21.932 20.9434 21.9942 20.8503 22.0727 20.7718C22.1511 20.6933 22.2443 20.6311 22.3468 20.5886C22.4494 20.5461 22.5593 20.5243 22.6702 20.5243H24.7053C24.9294 20.5243 25.1443 20.6133 25.3028 20.7718C25.4613 20.9303 25.5503 21.1452 25.5503 21.3693C25.5503 21.5935 25.4613 21.8084 25.3028 21.9669C25.1443 22.1253 24.9294 22.2144 24.7053 22.2144ZM35.5953 21.4423L34.1564 20.0034C33.8263 19.6733 33.8263 19.1383 34.1564 18.8082C34.4864 18.4781 35.0214 18.4781 35.3515 18.8082L36.7904 20.2472C36.9461 20.4062 37.0328 20.6203 37.0316 20.8428C37.0304 21.0654 36.9414 21.2785 36.7841 21.4359C36.6267 21.5933 36.4136 21.6823 36.191 21.6834C35.9684 21.6846 35.7544 21.598 35.5953 21.4423ZM21.7879 16.9363L20.349 18.3752C20.0189 18.7053 19.4839 18.7053 19.1538 18.3752C18.8237 18.0451 18.8237 17.5102 19.1538 17.1801L20.5928 15.7411C20.6712 15.6626 20.7644 15.6004 20.8669 15.5579C20.9694 15.5154 21.0793 15.4935 21.1903 15.4935C21.3013 15.4935 21.4112 15.5154 21.5137 15.5579C21.6163 15.6004 21.7094 15.6626 21.7879 15.7411C21.8664 15.8196 21.9286 15.9128 21.9711 16.0153C22.0136 16.1178 22.0354 16.2277 22.0354 16.3387C22.0354 16.4497 22.0136 16.5596 21.9711 16.6621C21.9286 16.7646 21.8664 16.8578 21.7879 16.9363Z" fill="#00F2A6"/>
<path d="M42.409 14.7586L39.752 17.4157C39.6997 17.468 39.6376 17.5095 39.5692 17.5378C39.5008 17.5662 39.4276 17.5807 39.3536 17.5807C39.2796 17.5807 39.2063 17.5662 39.138 17.5378C39.0696 17.5095 39.0075 17.468 38.9552 17.4157L37.4917 15.9522C37.4394 15.8999 37.3979 15.8378 37.3696 15.7694C37.3412 15.7011 37.3267 15.6278 37.3267 15.5538C37.3267 15.4798 37.3412 15.4065 37.3696 15.3382C37.3979 15.2698 37.4394 15.2077 37.4917 15.1554L40.1488 12.4984C40.2011 12.4461 40.2632 12.4045 40.3315 12.3762C40.3999 12.3479 40.4731 12.3333 40.5471 12.3333C40.6211 12.3333 40.6944 12.3479 40.7627 12.3762C40.8311 12.4045 40.8932 12.4461 40.9455 12.4984L42.4089 13.9618C42.5146 14.0675 42.5739 14.2108 42.574 14.3602C42.574 14.5096 42.5147 14.6529 42.409 14.7586Z" fill="#FEA613"/>
<path d="M48.8275 30.3571H2.83894C1.27105 30.3571 0 29.0861 0 27.5182C0 25.9503 1.27105 24.6793 2.83894 24.6793H48.8904C50.4583 24.6793 54.8732 25.9503 54.8732 27.5182C54.8732 29.0861 50.3954 30.3571 48.8275 30.3571Z" fill="#BC7C63"/>
<path d="M53.1608 24.6791H48.6538C50.2217 24.6791 51.4927 25.9502 51.4927 27.5181C51.4927 29.086 50.2217 30.357 48.6538 30.357H53.1608C54.7287 30.357 55.9998 29.086 55.9998 27.5181C55.9998 25.9502 54.7287 24.6791 53.1608 24.6791Z" fill="#935B44"/>
</g>
<defs>
<clipPath id="clip0_2217_4073">
<rect width="56" height="56" fill="white"/>
</clipPath>
</defs>
</svg>
