<svg width="58" height="74" viewBox="0 0 58 74" fill="none" xmlns="http://www.w3.org/2000/svg">
<path d="M49.7422 26.2144C49.7422 27.2753 50.1636 28.2927 50.9138 29.0429L52.6995 30.8286C53.4497 31.5788 53.8711 32.5962 53.8711 33.657V70.7097C53.8711 70.9947 53.64 71.2258 53.355 71.2258C53.0699 71.2258 52.8389 71.4568 52.8389 71.7419V72.258C52.8389 72.8281 52.3767 73.2902 51.8066 73.2902H35.29C34.72 73.2902 34.2578 72.8281 34.2578 72.258V71.7419C34.2578 71.4568 34.0267 71.2258 33.7417 71.2258C33.4567 71.2258 33.2256 70.9947 33.2256 70.7097V33.657C33.2256 32.5962 33.647 31.5788 34.3972 30.8286L36.1829 29.0428C36.9331 28.2927 37.3545 27.2753 37.3545 26.2144V15.1181C37.3545 14.6766 37.4276 14.2383 37.5707 13.8207L38.9053 9.92838C39.4597 8.31167 40.98 7.22577 42.6891 7.22577H44.4076C46.1167 7.22577 47.637 8.31167 48.1913 9.92838L49.5259 13.8207C49.6691 14.2382 49.7422 14.6766 49.7422 15.1181V26.2144Z" fill="#FFB902"/>
<mask id="mask0_2217_4245" style="mask-type:alpha" maskUnits="userSpaceOnUse" x="26" y="0" width="32" height="20">
<rect x="26" y="-3.05176e-05" width="32" height="19.6129" fill="#5F4B36"/>
</mask>
<g mask="url(#mask0_2217_4245)">
<path d="M49.7422 26.2144C49.7422 27.2753 50.1636 28.2927 50.9138 29.0428L52.6995 30.8286C53.4497 31.5787 53.8711 32.5961 53.8711 33.657V70.7096C53.8711 70.9947 53.64 71.2257 53.355 71.2257C53.0699 71.2257 52.8389 71.4568 52.8389 71.7419V72.258C52.8389 72.828 52.3767 73.2902 51.8066 73.2902H35.29C34.72 73.2902 34.2578 72.828 34.2578 72.258V71.7419C34.2578 71.4568 34.0267 71.2257 33.7417 71.2257C33.4567 71.2257 33.2256 70.9947 33.2256 70.7096V33.657C33.2256 32.5961 33.647 31.5787 34.3972 30.8286L36.1829 29.0428C36.9331 28.2927 37.3545 27.2753 37.3545 26.2144V15.118C37.3545 14.6766 37.4276 14.2382 37.5707 13.8207L38.9053 9.92835C39.4597 8.31164 40.98 7.22574 42.6891 7.22574H44.4076C46.1167 7.22574 47.637 8.31164 48.1913 9.92835L49.5259 13.8207C49.6691 14.2382 49.7422 14.6766 49.7422 15.118V26.2144Z" fill="#604D38"/>
</g>
<rect x="38.3877" y="7.2258" width="10.3226" height="2.06452" rx="1.03226" fill="#040302"/>
<rect x="39.4199" y="6.19354" width="8.25806" height="2.06452" rx="1.03226" fill="#040302"/>
<path d="M39.811 34.2472V40.3874H37.355V34.2472C37.3584 33.9238 37.4893 33.6148 37.7192 33.3873C37.9492 33.1598 38.2596 33.0322 38.583 33.0322C38.9064 33.0322 39.2168 33.1598 39.4468 33.3873C39.6767 33.6148 39.8076 33.9238 39.811 34.2472Z" fill="#FFD046"/>
<path d="M39.8112 40.3874V48.9836C39.8112 49.3094 39.6818 49.6217 39.4515 49.852C39.2212 50.0823 38.9088 50.2117 38.5831 50.2117C38.2574 50.2117 37.945 50.0823 37.7147 49.852C37.4844 49.6217 37.355 49.3094 37.355 48.9836V40.3874H39.8112Z" fill="#FED93D"/>
<path d="M39.811 58.6564V62.9519H37.355V58.6564C37.3584 58.4302 37.4893 58.214 37.7192 58.0549C37.9492 57.8957 38.2596 57.8065 38.583 57.8065C38.9064 57.8065 39.2168 57.8957 39.4468 58.0549C39.6767 58.214 39.8076 58.4302 39.811 58.6564Z" fill="#FFE56F"/>
<path d="M39.8112 62.9518V68.9655C39.8112 69.1933 39.6818 69.4119 39.4515 69.573C39.2212 69.7341 38.9088 69.8246 38.5831 69.8246C38.2574 69.8246 37.945 69.7341 37.7147 69.573C37.4844 69.4119 37.355 69.1933 37.355 68.9655V62.9518H39.8112Z" fill="#FED93D"/>
<path d="M16.6593 8.569V13.744C16.6447 14.6264 16.882 15.4946 17.3435 16.2469C17.8049 16.9991 18.4714 17.6042 19.2646 17.991C23.476 19.938 26.1733 24.1535 26.1764 28.793V69.2414C26.2818 71.7601 24.3288 73.8888 21.8104 74C19.2965 73.883 17.3501 71.7557 17.4563 69.2414C17.5617 71.7601 15.6086 73.8888 13.0903 74C10.5719 73.8887 8.61872 71.7601 8.72424 69.2414C8.83044 71.7559 6.88402 73.883 4.37009 74C1.85172 73.8887 -0.10144 71.7601 0.00408203 69.2414V28.7932C0.00731641 24.1536 2.70466 19.9381 6.91596 17.9912C7.70919 17.6044 8.37565 16.9993 8.83711 16.2471C9.29858 15.4948 9.53591 14.6265 9.52125 13.7441V8.56914L16.6593 8.569Z" fill="#59474E"/>
<path d="M10.711 5H15.4696C16.7837 5 17.8488 6.06519 17.8488 7.37929V8.56901C17.8488 8.88454 17.7235 9.18714 17.5004 9.41026C17.2773 9.63337 16.9747 9.75872 16.6591 9.75872H9.52126C9.20572 9.75872 8.90312 9.63337 8.68 9.41026C8.45689 9.18714 8.33154 8.88454 8.33154 8.56901V7.37929C8.33154 6.06532 9.39687 5 10.711 5Z" fill="#C03A2B"/>
<path d="M0.00390625 34.7415H26.1764V54.9657H0.00390625V34.7415Z" fill="#0098F7"/>
<path d="M5.95253 28.7931V34.7414H3.57324V28.7931C3.57658 28.4798 3.70338 28.1805 3.92612 27.9601C4.14886 27.7397 4.44955 27.6161 4.76289 27.6161C5.07623 27.6161 5.37691 27.7397 5.59965 27.9601C5.82239 28.1805 5.9492 28.4798 5.95253 28.7931Z" fill="#7A6C6C"/>
<path d="M5.95267 34.7415V43.069C5.95267 43.3846 5.82732 43.6872 5.60421 43.9103C5.3811 44.1334 5.07849 44.2588 4.76296 44.2588C4.44742 44.2588 4.14482 44.1334 3.9217 43.9103C3.69859 43.6872 3.57324 43.3846 3.57324 43.069V34.7415H5.95267Z" fill="#9AD8FF"/>
<path d="M5.95218 54.9657V62.1037C5.95218 62.4192 5.82684 62.7218 5.60372 62.9449C5.38061 63.168 5.078 63.2934 4.76247 63.2934C4.44694 63.2934 4.14433 63.168 3.92121 62.9449C3.6981 62.7218 3.57275 62.4192 3.57275 62.1037V54.9657H5.95218Z" fill="#7A6C6C"/>
<path d="M5.95253 47.8277V54.9657H3.57324V47.8277C3.57658 47.5143 3.70338 47.215 3.92612 46.9946C4.14886 46.7742 4.44955 46.6506 4.76289 46.6506C5.07623 46.6506 5.37691 46.7742 5.59965 46.9946C5.82239 47.215 5.9492 47.5143 5.95253 47.8277Z" fill="#9AD8FF"/>
<circle cx="13" cy="45" r="6" fill="white"/>
<g clip-path="url(#clip0_2217_4245)">
<path d="M18.0334 48.264C18.1549 47.8695 18.2179 47.4525 18.2179 47.0205C18.2179 45.6293 17.5339 44.406 16.4944 43.6373C14.6824 42.3038 12.0424 42.3015 8.39893 41.154C9.49693 39.8363 11.1492 39 12.9987 39C16.3122 39 18.9987 41.685 18.9987 44.9985C18.9987 46.2015 18.6424 47.3228 18.0334 48.264Z" fill="#303F9F"/>
<path d="M12.9985 51C9.68496 51 7.00146 48.3135 7.00146 44.9977C7.00146 43.6687 7.36821 42.909 7.97721 41.9385C12.0715 43.0515 15.3925 45.7793 16.5977 49.8015C15.5957 50.5537 14.3492 51 12.9985 51Z" fill="#D32F2F"/>
</g>
<defs>
<clipPath id="clip0_2217_4245">
<rect width="12" height="12" fill="white" transform="matrix(1 0 0 -1 7 51)"/>
</clipPath>
</defs>
</svg>
