<svg width="68" height="68" viewBox="0 0 68 68" fill="none" xmlns="http://www.w3.org/2000/svg">
<g clip-path="url(#clip0_2217_4018)">
<path d="M59.4626 9.82627L60.4641 11.1849L52.7542 18.8948L49.1011 15.2417L63.5864 0.756242C64.5947 -0.252203 66.2312 -0.252203 67.2395 0.756242L59.4626 9.82627Z" fill="#90BAC4"/>
<path d="M52.7551 18.8948L67.2399 4.41005C68.2488 3.40107 68.2488 1.76522 67.2399 0.756378L50.9282 17.068L52.7551 18.8948Z" fill="#688D97"/>
<path d="M56.0283 18.5145C54.3641 18.3077 52.8168 17.5506 51.6322 16.3636C48.6877 13.4178 48.6877 8.64265 51.6322 5.69833C53.9527 3.37916 57.4088 2.88669 60.2109 4.22199L60.2123 4.22331C60.3314 4.33833 67.1409 10.9728 56.0283 18.5145Z" fill="#E22334"/>
<path d="M62.2978 16.3636C59.3534 19.308 54.5784 19.308 51.6326 16.3636C51.025 15.7569 50.5256 15.0508 50.1562 14.2756C52.9583 15.6111 56.4145 15.1185 58.7335 12.7993C61.054 10.4788 61.5466 7.02407 60.2112 4.22186C60.9857 4.5916 61.6913 5.09089 62.2977 5.69821C65.2436 8.64266 65.2436 13.4178 62.2978 16.3636Z" fill="#C21D2C"/>
<path d="M51.6381 7.19791L48.3309 3.89061C47.8674 3.4271 47.0744 3.74213 47.055 4.39729L46.8599 11.0303C46.8372 11.7995 46.9721 12.5651 47.256 13.2803C47.54 13.9954 47.9672 14.645 48.5113 15.1891L53.3495 20.0273L51.6381 7.19791Z" fill="#23F1A8"/>
<path d="M57.5676 22.994C57.5567 22.994 56.317 22.9926 55.6698 22.3468C55.6616 22.3385 55.6533 22.3318 55.6465 22.3249L51.3203 17.9986L51.6377 7.19791L56.2924 11.8539H56.2937C56.3007 11.8607 56.3265 11.8854 56.3676 11.9292C56.7056 12.2727 58.0587 13.7818 58.1366 15.8574C58.2256 18.2284 57.5676 22.994 57.5676 22.994Z" fill="#158F5E"/>
<path d="M60.601 18.6676L60.3971 25.5798C60.3808 26.1298 59.7158 26.394 59.3272 26.004L55.6699 22.3468C56.0612 22.7258 56.7166 22.4603 56.7331 21.9158L57.1295 15.1961C57.1732 13.6883 57.3282 12.943 56.2925 11.8539L58.9497 14.5096C59.4937 15.0537 59.9208 15.7031 60.2047 16.4181C60.4887 17.1331 60.6235 17.8986 60.601 18.6676Z" fill="#0C6842"/>
<path d="M53.6848 31.9531C53.1429 32.6605 52.1003 32.7275 51.4696 32.0968L49.1163 29.7448V29.7435C49.2737 17.5759 38.3964 18.862 38.2527 18.8798H38.2513L35.8993 16.5265C35.2686 15.8958 35.3357 14.8532 36.0431 14.3114C40.9769 10.531 48.0683 10.8977 52.5835 15.4128C57.0987 19.9279 57.4652 27.0192 53.6848 31.9531Z" fill="#E2F4C6"/>
<path d="M53.6845 31.9531C53.1426 32.6605 52.1 32.7275 51.4693 32.0968L49.116 29.7448V29.7435C49.1255 29.0074 49.0941 28.3205 49.027 27.6802C49.0941 27.6201 49.1555 27.5543 49.2117 27.4805C52.3449 23.3909 52.6295 17.8181 50.0641 13.459C50.9826 14.0016 51.829 14.6581 52.583 15.4128C57.0983 19.9277 57.4648 27.0192 53.6845 31.9531ZM44.8267 25.454H44.8253L38.251 18.8797C40.4894 16.6413 43.765 16.0735 46.5301 17.1736C46.5301 17.1736 50.7126 21.4766 44.8267 25.454Z" fill="#BCEA73"/>
<path d="M49.1179 18.8797C48.3807 18.1407 47.5002 17.5602 46.5306 17.1736C47.6333 19.9387 47.0656 23.2156 44.8271 25.454L49.1165 29.7448C52.117 26.7442 52.117 21.8789 49.1179 18.8797Z" fill="#99D53B"/>
<path d="M46.3386 21.6572L42.2353 27.9059L33.5033 34.4925L31.6768 32.6659L42.6841 21.6572C43.6939 20.6488 45.329 20.6488 46.3386 21.6572Z" fill="#90BAC4"/>
<path d="M46.3387 25.3117L35.33 36.3191L33.5034 34.4925L46.3387 21.6572C47.3471 22.667 47.3471 24.3019 46.3387 25.3117Z" fill="#688D97"/>
<path d="M34.4372 46.8893L21.1069 33.5591L31.7993 22.8667C32.9523 21.7137 34.8218 21.7137 35.9749 22.8667L45.1294 32.0212C46.2825 33.1743 46.2825 35.0438 45.1294 36.1969L34.4372 46.8893Z" fill="#26D192"/>
<path d="M45.1291 36.1972L34.4365 46.8898L30.9517 43.405L41.6443 32.7124C42.7976 31.5589 42.7976 29.69 41.6443 28.5366L45.1291 32.0215C46.2825 33.1748 46.2825 35.0439 45.1291 36.1972Z" fill="#1EB07C"/>
<path d="M25.0532 53.3233C25.0477 53.3233 25.0436 53.3233 25.0382 53.3219C25.0163 53.3178 24.9943 53.3137 24.9711 53.3096C24.9657 53.3083 24.9601 53.3068 24.9561 53.3068C24.9246 53.3014 24.8931 53.2945 24.8617 53.289C22.4317 52.8238 20.1099 51.6498 18.2272 49.7685C13.2264 44.7663 13.2264 36.6582 18.2272 31.6574C20.1371 29.7473 22.5015 28.5666 24.9711 28.1151H24.9739C25.1832 28.1068 35.7075 27.7484 37.5356 39.667C39.3457 51.4844 26.7252 53.5394 25.0532 53.3233Z" fill="#FB8627"/>
<path d="M36.3383 49.7686C33.2475 52.8594 28.9691 54.0402 24.9712 53.3096C27.4422 52.8581 29.8052 51.6787 31.7151 49.7687C36.7159 44.7665 36.7159 36.6584 31.7151 31.6576C29.8052 29.7475 27.4422 28.5668 24.9712 28.1152C28.9691 27.3846 33.2475 28.5653 36.3383 31.6576C41.3406 36.6584 41.3406 44.7664 36.3383 49.7686Z" fill="#F2671F"/>
<path d="M24.7371 46.3125C24.0831 46.017 23.4715 45.5997 22.9338 45.062C20.5312 42.6607 20.5312 38.7654 22.9338 36.3629C23.4715 35.8251 24.0831 35.4078 24.7371 35.1123C24.7371 35.1123 30.1552 35.0822 30.4179 40.7125C30.6821 46.344 24.7371 46.3125 24.7371 46.3125Z" fill="#FCCA9F"/>
<path d="M31.6331 45.062C29.7682 46.9268 27.003 47.3442 24.7373 46.3125C25.3913 46.017 26.0029 45.5997 26.5406 45.062C28.9432 42.6607 28.9432 38.7655 26.5406 36.3629C26.0029 35.8251 25.3914 35.4078 24.7373 35.1123C27.0031 34.0806 29.7682 34.4979 31.6331 36.3629C34.0356 38.7655 34.0356 42.6607 31.6331 45.062Z" fill="#FCA863"/>
<path d="M6.38067 61.6152C4.75372 59.9882 4.75372 57.3409 6.38067 55.7139C8.00763 54.087 10.655 54.087 12.2819 55.7139C13.9089 57.3409 13.9089 59.9882 12.2819 61.6152C10.655 63.2422 8.00763 63.2422 6.38067 61.6152ZM28.6298 39.3661C28.125 38.8612 27.4641 38.6081 26.8032 38.6081C26.1424 38.6081 25.4815 38.8612 24.9767 39.3661L13.8503 50.4924C10.2382 48.4976 5.57676 49.0708 2.57347 52.2178C-0.281999 55.2074 -0.763577 59.6938 1.15875 63.1841V63.1854C1.15875 63.1854 5.57676 67.2162 11.7488 63.388C17.9209 59.5598 16.0533 53.3385 16.0533 53.3385L28.6298 39.3661Z" fill="#90BAC4"/>
<path d="M28.6299 43.0192L17.5035 54.1455C19.4642 57.696 18.9429 62.2618 15.9355 65.2691C12.1894 69.0152 6.02561 68.9072 2.41749 64.9448C1.9298 64.4096 1.50726 63.8186 1.15869 63.184C4.70784 65.1473 9.27367 64.6234 12.2823 61.6146C14.4086 59.4883 15.2919 56.5826 14.9325 53.8083C14.8784 53.3905 15.0242 52.9716 15.3221 52.6736L28.6296 39.366C29.6397 40.3745 29.6397 42.0109 28.6299 43.0192Z" fill="#688D97"/>
<path d="M25.221 52.7412C25.1905 52.7359 25.1599 52.7293 25.1294 52.7239C25.1573 52.7279 25.1865 52.7332 25.221 52.7412Z" fill="#F2671F"/>
</g>
<defs>
<clipPath id="clip0_2217_4018">
<rect width="68" height="68" fill="white"/>
</clipPath>
</defs>
</svg>
