<svg width="88" height="55" viewBox="0 0 88 55" fill="none" xmlns="http://www.w3.org/2000/svg">
<path d="M31.4961 14.4243C36.4695 14.7352 35.3297 16.0826 41.4429 14.4243C47.5561 12.7661 57.3993 8.10223 59.886 5.51122C62.3727 2.9202 67.657 0.22555 69.4184 0.0182685C71.1798 -0.189013 78.0183 1.3656 81.852 4.78573C85.6857 8.20587 87.0627 25.1152 84.3687 24.3897C81.6748 23.6642 75.8424 19.399 75.1171 18.0517C74.3918 16.7044 74.8063 15.4607 74.5991 12.0406C74.3922 8.62681 73.6891 8.68923 71.9348 7.96804C71.5364 8.28455 71.0796 8.63907 70.5582 9.035C63.6783 14.2585 63.2707 19.9863 63.9269 22.1973L58.4354 35.8779C54.4291 36.2234 45.9812 36.707 44.2405 35.8779C42.0646 34.8415 23.5179 23.5447 24.9684 21.5755C26.1289 20.0002 29.8037 16.1516 31.4961 14.4243Z" fill="#DEE9EE"/>
<ellipse cx="30.8174" cy="33.3417" rx="28.8641" ry="17.7764" transform="rotate(-7.00826 30.8174 33.3417)" fill="#A7C9E3"/>
<ellipse cx="30.3954" cy="29.9088" rx="28.8641" ry="14.3177" transform="rotate(-7.00826 30.3954 29.9088)" fill="#C9E2E7"/>
<ellipse cx="30.3954" cy="28.4664" rx="28.8641" ry="14.3177" transform="rotate(-7.00826 30.3954 28.4664)" fill="#86B6DA"/>
<ellipse cx="30.6476" cy="30.6904" rx="25.5527" ry="11.2308" transform="rotate(-7.00826 30.6476 30.6904)" fill="#E23A3A"/>
<path d="M86.9204 21.6455C87.5401 20.2024 87.4377 11.0559 85.3712 8.24507C72.1741 -9.70617 59.7617 24.994 58.6215 31.5411L56.2461 37.829C56.6592 37.6572 57.7127 37.0868 58.6215 36.1797C59.7576 35.0459 62.6256 26.9777 64.5085 22.1609C67.1162 15.4901 71.9203 9.65988 74.4139 8.71056C77.9106 7.37937 79.9975 7.77259 81.1336 10.4527C82.2696 13.1328 82.5826 13.5022 83.099 17.0069C83.6154 20.5116 83.3056 22.0578 84.0286 23.7071C84.7515 25.3563 86.3007 23.0886 86.9204 21.6455Z" fill="#A7C9E3"/>
<path d="M20 22.5001C16.5223 26.999 18.6466 20.9422 8.46191 35.845C9.37274 36.6885 12.1383 38.713 15.9141 40.0627C20.6338 41.7498 20.8822 40.3439 32.8057 38.3756C44.7292 36.4073 42.9903 36.9697 51.933 32.1896C60.8756 27.4094 49.4489 26.2847 44.4808 21.7857C39.5127 17.2868 40.4649 21.406 35 20.0001C29.5351 18.5941 30.57 20.0987 27.5892 17.0056C24.6083 13.9126 23.4777 18.0011 20 22.5001Z" fill="#D42626"/>
<path d="M27.7938 23.8234C27.7938 23.7096 27.7483 23.6004 27.6674 23.5199C27.5865 23.4394 27.4767 23.3942 27.3623 23.3942C24.1232 23.3942 21.4879 26.0151 21.4879 29.2366C21.4879 29.4736 21.6811 29.6658 21.9194 29.6658C22.1578 29.6658 22.3509 29.4736 22.3509 29.2366C22.3509 26.4884 24.599 24.2525 27.3623 24.2525C27.4767 24.2525 27.5865 24.2073 27.6674 24.1268C27.7483 24.0463 27.7938 23.9372 27.7938 23.8234ZM36.8998 29.2992C37.1352 29.2992 37.331 29.1093 37.331 28.8696C37.331 28.5659 36.631 27.606 35.4995 27.606C35.0879 27.606 33.9976 27.8218 33.9976 28.3412C33.9976 28.574 34.1866 28.7703 34.4301 28.7703C34.6801 28.7703 34.9101 28.4646 35.4961 28.4646C36.424 28.4646 36.3984 29.2992 36.8998 29.2992ZM22.973 35.7339C22.7334 35.7339 22.5418 35.928 22.5418 36.1626C22.5418 36.398 22.5396 36.6177 22.4227 36.9066C21.9922 37.9709 20.9053 37.3492 20.9053 38.0781C20.9053 38.3632 21.1493 38.5077 21.3363 38.5077C21.441 38.5077 23.4079 38.4029 23.4079 36.2611C23.408 35.7197 22.9855 35.7339 22.973 35.7339ZM33.1589 36.2296C31.1703 36.2296 30.9597 38.1135 30.9597 38.3953C30.9597 38.5083 31.0045 38.6167 31.0844 38.697C31.1642 38.7774 31.2727 38.8231 31.3863 38.8244C31.4999 38.8257 31.6094 38.7824 31.6911 38.7039C31.7728 38.6254 31.82 38.518 31.8226 38.4051C31.8251 38.2518 31.9231 37.0879 33.159 37.0879C33.1934 37.0879 33.207 37.0886 33.2195 37.0886C33.7655 37.0886 33.8432 36.2296 33.1589 36.2296Z" fill="#F9B044"/>
<path d="M5.78552 31.9105C5.78552 31.9105 5.64714 28.2869 8.4286 27.6538C8.4286 27.6538 11.3347 19.63 20.586 20.9125C20.586 20.9125 20.5484 16.5029 22.0838 16.4178L24.5919 26.5647L5.78552 31.9105ZM34.0212 19.4958C34.0212 19.4958 47.1595 15.7261 55.1432 26.3223L39.5641 32.3759L34.0212 19.4958Z" fill="#E0E4AE" fill-opacity="0.4"/>
<path d="M55.6196 29.3404C54.62 34.2282 48.0741 37.4527 40.6532 39.4106C35.7441 40.7054 30.4545 41.4482 26.1306 41.7479C23.5036 41.9309 21.2332 41.9509 19.6233 41.8364C11.3607 41.2456 4.61485 34.5999 5.95966 30.9524C6.08463 30.6143 6.2177 30.3165 6.35804 30.0527C7.73933 27.4649 9.7691 28.2086 9.7691 28.2086C9.7691 28.2086 9.28458 22.1404 20.5631 20.9221C20.5631 20.9221 20.6104 20.6899 20.7157 20.2847C21.2053 18.4127 20.7602 16.9218 25.0008 13.4996C25.181 13.3543 25.362 13.2152 25.5511 13.0782C31.1533 9.00964 29.6785 16.1843 32.6427 16.893C35.6069 17.6016 41.2807 16.956 42.9089 21.1839C42.9089 21.1839 48.309 19.4948 50.82 23.4436C50.82 23.4436 52.9548 23.9728 54.4075 25.4055C55.3291 26.3192 55.9768 27.5977 55.6196 29.3404Z" fill="#EF573B"/>
<path d="M20.5293 22.3949C20.9465 22.7735 21.4104 23.0886 21.8955 23.3085C22.1561 23.4256 22.4292 23.5378 22.7007 23.5803C22.9804 23.6248 23.2632 23.634 23.5438 23.6275C23.8533 23.6203 24.0722 23.2377 24.065 22.8954C24.0549 22.5313 23.8213 22.1881 23.5089 22.1353C23.3932 22.1161 23.2796 22.0934 23.1652 22.0645C23.1161 22.0521 23.0641 22.0369 23.0146 22.0214C22.9733 22.008 22.9049 21.9696 22.8662 21.9749C22.9686 22.0118 22.9849 22.0159 22.9131 21.9908L22.6976 21.9152C22.6399 21.8977 22.5853 21.8829 22.5277 21.8653C22.396 21.826 22.6722 21.9219 22.5333 21.8677C22.4778 21.8466 22.4223 21.8256 22.3664 21.8014C22.1574 21.7155 21.9561 21.6094 21.7583 21.4901C21.7183 21.467 21.6805 21.4403 21.6405 21.4172C21.6147 21.4016 21.5885 21.383 21.5623 21.3643C21.6496 21.4255 21.6612 21.4334 21.5975 21.3913C21.4978 21.3158 21.3977 21.2373 21.3023 21.155C21.0135 20.9082 20.5791 20.9261 20.3775 21.2809C20.182 21.6222 20.2259 22.1184 20.5293 22.3949ZM31.5528 16.5423C31.4481 16.6233 31.3429 16.7012 31.2416 16.7881C31.1209 16.8872 31.0303 17.033 30.932 17.1608C30.8047 17.3275 30.8239 17.6618 30.9506 17.8384C31.1 18.0469 31.2949 18.0871 31.499 18.0212C31.6149 17.9831 31.7268 17.9552 31.8311 17.8901C31.9328 17.8254 32.0336 17.7545 32.1349 17.6867C32.4145 17.4992 32.5563 17.1303 32.3659 16.7557C32.1819 16.3898 31.8239 16.3305 31.5528 16.5423ZM9.99793 28.867C10.9172 30.1308 12.0595 31.1385 13.3198 31.8345C14.5947 32.5412 15.961 32.8954 17.3366 32.9115C18.1139 32.92 18.8699 32.7917 19.6122 32.5634C19.7311 32.5281 19.8472 32.3566 19.8874 32.2272C19.9359 32.0807 19.9345 31.8775 19.8749 31.7299C19.7271 31.3781 19.4539 31.285 19.1658 31.3719C19.3097 31.3269 19.1809 31.3667 19.1529 31.3737C19.115 31.3852 19.0767 31.3936 19.0414 31.4048C18.9652 31.4247 18.8915 31.4443 18.8149 31.4611C18.6517 31.4992 18.4877 31.531 18.3202 31.557C18.0137 31.6051 17.7068 31.6311 17.3969 31.6351L17.1838 31.6355C17.1524 31.6366 17.118 31.635 17.0861 31.633C17.2376 31.6441 17.1046 31.6336 17.0754 31.6312C16.9058 31.6226 16.7384 31.6104 16.5701 31.592C16.2603 31.5579 15.9501 31.5016 15.6429 31.4291C15.488 31.3929 15.3357 31.3565 15.1822 31.3107C15.1194 31.2938 15.0561 31.2738 14.9929 31.2538C14.9546 31.2431 14.9159 31.2293 14.8802 31.2183C14.8527 31.2093 14.6802 31.1597 14.8225 31.2007C14.5214 31.1146 14.217 30.9654 13.9293 30.8234C13.636 30.679 13.3487 30.5211 13.0693 30.343C13.0001 30.2984 12.9309 30.2538 12.8612 30.2061L12.7568 30.1345C12.6407 30.0549 12.8475 30.2016 12.7335 30.1186C12.5964 30.0196 12.4645 29.92 12.3312 29.811C12.0329 29.572 11.748 29.3152 11.4756 29.0345C11.3347 28.8884 11.1985 28.7385 11.0645 28.5851C10.9679 28.4743 11.1341 28.671 11.0422 28.5564C11.0044 28.5106 10.9666 28.4649 10.9314 28.4189C10.8678 28.3386 10.8038 28.2551 10.7403 28.1748C10.5698 27.9469 10.2704 27.8542 10.0695 28.0595C9.87761 28.2541 9.81974 28.6212 9.99793 28.867ZM42.4193 21.3775C42.4037 21.456 42.4072 21.4428 42.4297 21.338C42.4237 21.3706 42.4146 21.4004 42.4085 21.4331L42.3721 21.5715C42.3418 21.6773 42.3063 21.7839 42.2678 21.8877C42.2501 21.9314 42.235 21.9748 42.2147 22.0188C42.2043 22.0393 42.1969 22.0626 42.1866 22.0831C42.1641 22.1306 42.1749 22.1133 42.2129 22.0254C42.1943 22.1202 42.1071 22.2337 42.0652 22.3125C41.9651 22.4851 41.8563 22.6525 41.7381 22.8084C41.7269 22.8227 41.6075 22.9692 41.6825 22.8827C41.7549 22.7966 41.6346 22.9369 41.6208 22.9515C41.557 23.0238 41.4928 23.0929 41.4259 23.1624C41.1164 23.4779 40.7767 23.7467 40.4268 23.9977C40.0696 24.253 39.7205 24.5294 39.3602 24.7819C39.1297 24.9436 39.1199 25.374 39.2495 25.6297C39.3932 25.9121 39.6903 26.0464 39.9419 25.9231C40.3955 25.6992 40.8555 25.484 41.2783 25.1881C41.6458 24.9314 41.9992 24.6481 42.3153 24.3031C42.9742 23.5777 43.4638 22.691 43.6434 21.6145C43.7056 21.2405 43.4081 20.8138 43.0974 20.7735C42.7347 20.718 42.4941 20.9796 42.4193 21.3775ZM27.6051 35.1139C28.6405 35.1827 29.6615 35.1262 30.6716 34.9124C31.6765 34.6992 32.6764 34.3723 33.6091 33.8988C34.1579 33.6207 34.6745 33.2801 35.1753 32.9005C35.4041 32.7263 35.4229 32.3042 35.2865 32.0367C35.1497 31.7661 34.8255 31.5878 34.5829 31.7384C33.7414 32.263 32.8557 32.7333 31.9496 33.0919C31.72 33.1836 31.4892 33.2659 31.2549 33.3423L31.096 33.3925C31.0129 33.4197 31.192 33.3635 31.1059 33.388C31.0753 33.3953 31.0452 33.4058 31.015 33.4163C30.8936 33.4519 30.7717 33.4844 30.6473 33.5172C30.1793 33.635 29.7048 33.725 29.2265 33.787C28.6785 33.8585 28.1305 33.9109 27.5757 33.9133C27.3261 33.9155 27.1504 34.2287 27.1559 34.5013C27.1645 34.7766 27.3529 35.0974 27.6051 35.1139ZM55.6193 29.3403C54.6197 34.2281 48.0738 37.4526 40.6529 39.4105C40.5601 39.3469 40.4772 39.2597 40.4265 39.1776C40.3484 39.0484 40.2949 38.9063 40.2684 38.7509C40.2011 38.3724 40.4023 37.9763 40.6836 37.8394C41.0782 37.6458 41.5045 37.5306 41.9149 37.3952C42.3176 37.2609 42.7133 37.1148 43.116 36.9805C46.0013 36.009 48.8072 34.7242 51.3913 32.9515C51.3939 32.9512 51.396 32.9477 51.3986 32.9473C52.1282 32.4316 52.8286 31.8563 53.4341 31.1445C53.7162 30.7819 53.9734 30.3909 54.1837 29.9649C54.3375 29.6071 54.4604 29.2344 54.5493 28.844C54.6067 28.512 54.6391 28.1707 54.6427 27.8301C54.6268 27.559 54.5929 27.2902 54.5357 27.0247C54.4903 26.8656 54.4346 26.7079 54.3768 26.5537C54.2255 26.1579 54.2534 25.7441 54.4054 25.4119C55.3288 26.3191 55.9765 27.5976 55.6193 29.3403ZM26.1269 41.7419C23.4999 41.9249 21.2295 41.9449 19.6195 41.8305C11.3569 41.2396 4.61112 34.5939 5.95593 30.9464C6.0809 30.6083 6.21397 30.3105 6.3543 30.0467C6.68035 30.1612 6.90951 30.5495 6.87224 30.9519C6.8538 31.1642 6.84137 31.382 6.84186 31.598C6.85896 31.9167 6.90705 32.2312 6.97581 32.5428C7.0836 32.9286 7.22413 33.3036 7.39353 33.6588C7.61147 34.0613 7.86693 34.4302 8.14782 34.7733C8.85143 35.5738 9.65859 36.2266 10.4865 36.8195C10.8119 37.0453 11.1443 37.2638 11.4775 37.4695C12.7402 38.2415 14.032 38.8983 15.3792 39.3822C15.3792 39.3822 15.3818 39.3819 15.3822 39.385C17.0426 39.9471 18.7477 40.2583 20.4507 40.322L20.4532 40.3216C21.9428 40.3444 23.4293 40.1705 24.8756 39.8178C25.1658 39.7465 25.487 39.9029 25.7281 40.1085C25.9838 40.3247 26.1291 40.6768 26.1901 41.0277C26.234 41.2537 26.2039 41.5153 26.1269 41.7419Z" fill="#DA3C40" fill-opacity="0.2"/>
<g opacity="0.33">
<path d="M21.9457 19.2081C21.9079 19.4325 21.9331 19.2702 21.9457 19.2081V19.2081Z" fill="#DA3C40"/>
<path d="M25.0446 14.4751C25.0255 14.6547 24.9382 14.7901 24.8219 14.9092C24.4368 15.2972 24.0549 15.6847 23.6857 16.0908C23.6827 16.0931 23.6799 16.0971 23.6785 16.0992C23.0602 16.7955 22.4801 17.5511 22.0328 18.3937C21.9138 18.6293 21.8058 18.8707 21.7105 19.1197C21.66 19.2538 21.6116 19.3913 21.5719 19.5313C21.5525 19.5984 21.535 19.6672 21.5173 19.7341L21.52 19.7171C21.5155 19.7454 21.5072 19.7705 21.5026 19.7988L21.5036 19.806C21.5183 20.0124 21.4655 20.2039 21.3137 20.3334C21.2068 20.4235 21.0568 20.4679 20.9212 20.4458C20.8491 20.4335 20.7834 20.4074 20.7241 20.3657C21.0503 19.2741 22.2125 16.0297 24.9391 14.0083C25.0242 14.1405 25.0614 14.3272 25.0446 14.4751Z" fill="#DA3C40"/>
</g>
<path d="M12.5076 30.0222C12.831 30.4072 13.1787 30.719 13.5807 30.9662C13.9827 31.2134 14.4037 31.3881 14.8391 31.5131C15.7868 31.7877 16.7771 31.834 17.7318 31.7548C18.0155 31.732 18.2979 31.6999 18.5794 31.6616C18.7137 31.6433 18.8455 31.6253 18.9747 31.5887C19.0556 31.5649 19.1396 31.544 19.2175 31.5175C19.308 31.4861 19.3842 31.428 19.4657 31.3692C19.5738 31.2941 19.6039 31.0898 19.5671 30.9549C19.5239 30.7924 19.4221 30.7014 19.2874 30.6593C19.0452 30.5811 18.7805 30.6076 18.5369 30.6344C18.3035 30.6598 18.0698 30.6821 17.8378 30.6978C17.5954 30.715 17.3548 30.7255 17.1134 30.7298C17.0058 30.7317 16.8982 30.7337 16.7876 30.7328C16.6507 30.7324 16.6244 30.7328 16.4811 30.7237C16.0469 30.7034 15.6131 30.6481 15.1838 30.5476C15.0831 30.5232 14.9824 30.4988 14.8835 30.4677L14.7351 30.4212C14.7132 30.4147 14.6938 30.4078 14.6719 30.4012C14.5949 30.3768 14.7686 30.4357 14.6362 30.3902C14.5725 30.3671 14.5088 30.344 14.443 30.3243C14.5067 30.3474 14.385 30.3036 14.3656 30.2967C14.2628 30.2567 14.1626 30.2163 14.0641 30.1693C13.6603 29.986 13.2793 29.7582 12.9514 29.4755C12.8143 29.3575 12.6306 29.3603 12.5184 29.5027C12.4248 29.6267 12.3878 29.8764 12.5076 30.0222ZM40.1843 24.3009C40.6983 23.9989 41.1517 23.6193 41.5575 23.1413C41.7615 22.9006 41.9561 22.6484 42.1321 22.3765C42.3151 22.0973 42.4538 21.7638 42.5839 21.4441C42.6669 21.2421 42.5637 20.967 42.4042 20.8584C42.2417 20.747 42.0105 20.769 41.903 20.9648C41.6202 21.4769 41.2961 21.9755 40.9437 22.4208C40.9325 22.435 40.8984 22.4746 40.9304 22.4385C40.9053 22.4673 40.8803 22.4962 40.8557 22.5281C40.8105 22.582 40.7647 22.6327 40.719 22.6834C40.625 22.7852 40.5306 22.8839 40.4327 22.9767C40.2258 23.1765 40.0249 23.3819 39.8072 23.5609C39.4883 23.8268 39.8263 24.5118 40.1843 24.3009ZM20.6664 21.1589C21.3728 21.8255 22.16 22.3317 23.0147 22.6189C23.241 22.6962 23.4669 22.462 23.516 22.2233C23.5681 21.9683 23.4545 21.6564 23.2326 21.5531C22.8649 21.3839 22.4946 21.215 22.1404 21.009C21.9662 20.9088 21.7938 20.802 21.6214 20.6951C21.5384 20.646 21.4576 20.5935 21.3764 20.5378C21.2693 20.4666 21.2315 20.4399 21.1524 20.3808C20.9624 20.2414 20.705 20.2256 20.5712 20.4599C20.4486 20.6801 20.4791 20.981 20.6664 21.1589ZM31.2233 17.1148C31.3216 17.006 31.4225 16.8969 31.5204 16.7851C31.6571 16.6298 31.7426 16.4656 31.8024 16.2477C31.8829 15.9506 31.681 15.5109 31.374 15.5941C31.1914 15.6444 31.0351 15.6943 30.8889 15.8381C30.7846 15.9413 30.6867 16.0532 30.5884 16.1619C30.3999 16.3624 30.3352 16.7367 30.5232 16.9972C30.6915 17.2285 31.0245 17.3357 31.2233 17.1148ZM28.0697 34.1575C29.9307 33.6816 31.7545 33.0867 33.541 32.3348C33.7848 32.2317 33.9073 31.8368 33.789 31.5478C33.657 31.2352 33.3839 31.104 33.1195 31.2099C32.2516 31.5601 31.3735 31.8736 30.4949 32.184C30.0608 32.3385 29.6229 32.4839 29.1841 32.6232L28.8663 32.7236C28.8486 32.7292 28.6695 32.7854 28.7474 32.7589C28.6996 32.775 28.6488 32.7882 28.601 32.8043C28.371 32.8737 28.1432 32.9397 27.9124 33.0029C27.6717 33.0707 27.457 33.3097 27.5154 33.6418C27.5657 33.9338 27.8079 34.225 28.0697 34.1575ZM16.9698 36.8994C17.8478 37.1072 18.736 37.196 19.6227 37.1769C20.5098 37.161 21.3734 36.9925 22.2218 36.7307C22.4035 36.6742 22.4819 36.3807 22.4284 36.1813C22.3741 35.9758 22.1842 35.7792 21.9965 35.8302C20.3689 36.2616 18.7148 36.3058 17.0584 35.9275C16.8467 35.8801 16.6213 36.0792 16.6088 36.3352C16.5937 36.6106 16.7439 36.8444 16.9698 36.8994ZM45.4437 28.0692C45.6839 28.0365 45.8815 27.7489 45.83 27.4477C45.7784 27.1464 45.5524 26.9166 45.2916 26.9521C45.0513 26.9848 44.8537 27.2723 44.9053 27.5736C44.9598 27.8777 45.1854 28.1044 45.4437 28.0692Z" fill="#FEC666" fill-opacity="0.0666667"/>
<path d="M46.0302 27.554C46.417 27.1485 46.796 26.7441 47.1609 26.313C47.2765 26.1765 47.3164 25.9676 47.2005 25.7927C47.0979 25.6382 46.8884 25.5873 46.7642 25.7186C46.3805 26.1269 46.0152 26.5548 45.6507 26.9891C45.5421 27.1183 45.5008 27.3178 45.6129 27.4837C45.7142 27.6288 45.913 27.678 46.0302 27.554ZM48.0737 34.8496C50.211 33.872 52.1462 32.2989 53.6617 30.2713C54.0732 29.7194 54.4543 29.1367 54.8052 28.5264C54.9814 28.2163 54.9473 27.7347 54.665 27.4966C54.3946 27.2696 54.0021 27.285 53.8126 27.6127C53.5035 28.1443 53.1704 28.6537 52.8132 29.141C52.6337 29.3879 52.4452 29.6265 52.2563 29.862C52.2338 29.8905 52.1735 29.9496 52.2744 29.8405C52.2537 29.8624 52.236 29.887 52.2157 29.912C52.1661 29.9728 52.1161 30.0305 52.0661 30.0882C51.9665 30.2066 51.8638 30.3223 51.7608 30.4349C50.9716 31.3052 50.0988 32.0629 49.1753 32.7195C49.1012 32.7741 49.2934 32.6398 49.1727 32.7198C49.1365 32.7438 49.0982 32.7713 49.062 32.7953C49.0017 32.8353 48.9388 32.8757 48.8758 32.916C48.7406 33.0044 48.6022 33.0899 48.4635 33.1724C48.1861 33.3373 47.9047 33.4932 47.6166 33.6374C47.3607 33.7676 47.2167 34.1591 47.3526 34.4806C47.4927 34.8143 47.7963 34.9764 48.0737 34.8496ZM6.64345 32.9473C7.02831 33.6482 7.46702 34.3195 7.96354 34.9129C8.23413 35.2384 8.50818 35.5507 8.81199 35.8303C9.09475 36.0906 9.38571 36.3338 9.68746 36.5597C9.91313 36.7292 10.2282 36.7435 10.3849 36.4647C10.5312 36.2064 10.5005 35.826 10.2701 35.6222C9.99164 35.3741 9.71922 35.1124 9.46017 34.833C9.33687 34.7004 9.21531 34.5613 9.09201 34.4287C9.02413 34.3553 8.95884 34.2815 8.89312 34.2047C8.88109 34.1936 8.79003 34.0852 8.84673 34.1538C8.903 34.2192 8.79647 34.0939 8.7866 34.0793C8.30126 33.4907 7.85559 32.8649 7.46294 32.1842C7.30074 31.9011 6.91434 31.8457 6.71126 32.0545C6.48232 32.2859 6.47268 32.6401 6.64345 32.9473ZM26.0122 14.6749C26.1503 14.4717 26.2935 14.2679 26.4406 14.073C26.5183 13.9671 26.599 13.8639 26.68 13.7639C26.7115 13.7247 26.7409 13.6889 26.7723 13.6496C26.8129 13.5996 26.8129 13.5996 26.7723 13.6496L26.8332 13.5746C27.1385 13.2088 27.4593 12.86 27.796 12.5313C28.1302 12.2029 28.4703 11.88 28.8272 11.5835C29.0091 11.4316 29.1922 11.2891 29.381 11.1489C29.4693 11.0829 29.5555 11.0203 29.6443 10.9573C29.6947 10.9219 29.6947 10.9219 29.6469 10.957C29.6736 10.9406 29.6973 10.9215 29.724 10.9052C29.7744 10.8697 29.8278 10.837 29.8783 10.8015C30.1075 10.6495 30.2664 10.3291 30.1301 10.0044C30.0127 9.72163 29.6993 9.50687 29.452 9.66133C28.6252 10.1776 27.8227 10.7764 27.1096 11.4901C26.3969 12.2069 25.7413 13.0145 25.1605 13.8882C24.9922 14.14 25.0492 14.5772 25.2812 14.7745C25.5253 14.9828 25.8301 14.9412 26.0122 14.6749Z" fill="#FEC666" fill-opacity="0.0666667"/>
</svg>
