<svg width="82" height="69" viewBox="0 0 82 69" fill="none" xmlns="http://www.w3.org/2000/svg">
<ellipse cx="73.577" cy="22.6064" rx="6.84236" ry="10.0623" transform="rotate(4.86569 73.577 22.6064)" fill="#C4E2FF"/>
<path d="M70.5092 30.3411C71.0753 30.3893 71.4893 30.9007 71.4161 31.4647L70.2581 40.6122L74.1027 40.9394L74.5062 31.7278C74.5116 31.5928 74.5443 31.4604 74.6024 31.3384C74.6604 31.2165 74.7425 31.1075 74.8439 31.0182C74.9452 30.9289 75.0635 30.8611 75.1918 30.8188C75.3201 30.7766 75.4556 30.7608 75.5901 30.7724C76.9858 30.8912 78.2116 29.8577 78.3303 28.4634L79.3749 16.1924C79.4496 15.3142 78.0025 15.0995 77.92 16.0686C77.9088 16.2002 77.0768 25.6155 77.1967 24.2067C77.1605 24.6319 76.7345 24.8848 76.4225 24.8582C76.0275 24.8246 75.7425 24.4184 75.7708 24.0853L76.4639 15.9433C76.473 15.8494 76.4632 15.7547 76.4351 15.6647C76.407 15.5747 76.3612 15.4912 76.3003 15.4192C76.2395 15.3471 76.1648 15.288 76.0808 15.2453C75.9968 15.2025 75.905 15.177 75.811 15.1702C75.6227 15.1573 75.4369 15.218 75.2926 15.3396C75.1484 15.4613 75.0571 15.6342 75.038 15.8219C75.0533 15.6269 74.3211 23.885 74.3046 24.0798C74.2857 24.301 73.9512 24.6478 73.5404 24.6129C73.3554 24.6 73.1829 24.5146 73.0604 24.3753C72.938 24.236 72.8754 24.0541 72.8863 23.8689L73.5818 15.6979C73.5948 15.5095 73.5339 15.3234 73.412 15.1791C73.2901 15.0348 73.1168 14.9436 72.9289 14.9249C72.8351 14.9158 72.7405 14.9256 72.6506 14.9536C72.5607 14.9817 72.4773 15.0274 72.4053 15.0881C72.3333 15.1488 72.2741 15.2233 72.2313 15.3072C72.1885 15.391 72.1629 15.4826 72.1559 15.5765L71.4199 23.8648C71.3645 24.0197 71.2603 24.1525 71.123 24.2432C70.9856 24.3339 70.8226 24.3775 70.6583 24.3675C70.4706 24.3485 70.2977 24.2572 70.1761 24.1129C70.0544 23.9687 69.9937 23.7828 70.0066 23.5946L70.6997 15.4526C70.7044 15.2661 70.6376 15.0849 70.5132 14.9459C70.3887 14.807 70.2159 14.7208 70.03 14.705C69.8441 14.6892 69.6592 14.7449 69.5131 14.8608C69.3669 14.9767 69.2705 15.144 69.2436 15.3286L68.199 27.5996C68.0802 28.9952 69.1149 30.2225 70.5092 30.3411Z" fill="#A7C9E3"/>
<path d="M79.3738 16.1937L78.3294 28.462C78.2725 29.1308 77.9523 29.7497 77.4392 30.1825C76.9261 30.6153 76.2622 30.8266 75.5933 30.77C75.4588 30.7586 75.3233 30.7746 75.1951 30.8172C75.0669 30.8597 74.9487 30.9279 74.8476 31.0175C74.7466 31.1071 74.6649 31.2164 74.6074 31.3386C74.5499 31.4608 74.5178 31.5934 74.5131 31.7284L74.1018 40.9381L73.3895 40.8775L73.9335 30.8568C73.9397 30.7213 73.9732 30.5884 74.032 30.4661C74.0908 30.3438 74.1736 30.2346 74.2756 30.1451C74.3776 30.0556 74.4966 29.9876 74.6255 29.9451C74.7543 29.9027 74.8905 29.8867 75.0257 29.8982C76.4134 30.0163 77.6104 28.4804 77.7295 27.0808L78.6615 16.1331C78.685 15.8566 78.534 15.605 78.3169 15.4924C78.7883 15.2513 79.4215 15.6328 79.3738 16.1937Z" fill="#C4E2FF"/>
<path d="M70.4556 30.3326C70.0091 30.2859 69.5833 30.1205 69.2224 29.8535C68.8615 29.5866 68.5786 29.2278 68.4033 28.8145C68.73 29.028 69.1318 29.1683 69.5544 29.2043C70.1219 29.2526 70.5303 29.7674 70.4556 30.3326Z" fill="#EAF6FF"/>
<path d="M71.3368 39.2027C71.0507 39.1785 70.7663 39.2656 70.5429 39.446C70.3195 39.6264 70.1743 39.8861 70.1378 40.1709C69.7833 42.9336 67.8427 58.5326 67.8539 58.4009C67.744 59.6912 68.5032 60.9467 69.7392 61.3357C70.1565 61.4754 70.6006 61.5161 71.0363 61.4545C71.472 61.3929 71.8875 61.2307 72.2497 60.9808C72.6119 60.7309 72.911 60.4001 73.1233 60.0147C73.3356 59.6292 73.4552 59.1996 73.4728 58.7599L74.2931 40.5246C74.3052 40.2375 74.2059 39.9568 74.0159 39.7412C73.8259 39.5256 73.56 39.3917 73.2736 39.3676L71.3368 39.2027Z" fill="#FAA019"/>
<path d="M73.4766 58.7629C73.4592 59.2023 73.3396 59.6317 73.1272 60.0168C72.9148 60.4019 72.6155 60.7322 72.2532 60.9814C71.8908 61.2305 71.4752 61.3918 71.0396 61.4522C70.604 61.5126 70.1603 61.4706 69.7437 61.3295C69.1251 61.1336 68.5983 60.7204 68.2606 60.1662C68.4492 60.2884 68.6531 60.3853 68.8738 60.4571C70.7535 61.0428 72.528 59.7179 72.6052 57.8758L73.4267 39.6419C73.4345 39.5498 73.4281 39.4697 73.4085 39.3884C73.9453 39.5004 74.3166 39.9843 74.2968 40.5276L73.4766 58.7629Z" fill="#F5871E"/>
<g opacity="0.3">
<path d="M69.6058 55.5848L69.5808 55.5827C69.4589 55.5654 69.3488 55.5006 69.2746 55.4023C69.2005 55.304 69.1683 55.1803 69.1852 55.0583L69.9344 49.6065C69.9516 49.4847 70.0163 49.3747 70.1142 49.3003C70.2122 49.226 70.3356 49.1933 70.4576 49.2095C70.7105 49.2443 70.8881 49.4795 70.8545 49.7339L70.104 55.1856C70.0879 55.3032 70.0272 55.4102 69.9345 55.4845C69.8418 55.5588 69.7242 55.5947 69.6058 55.5848ZM70.6044 48.3255L70.5794 48.3233C70.4575 48.3061 70.3474 48.2412 70.2732 48.1429C70.199 48.0447 70.1669 47.921 70.1838 47.799L70.2706 47.1685C70.29 47.048 70.355 46.9395 70.4521 46.8656C70.5493 46.7917 70.6711 46.7579 70.7924 46.7713C71.0467 46.8062 71.2243 47.0415 71.1894 47.2958L71.1027 47.925C71.0869 48.0429 71.0263 48.1502 70.9336 48.2248C70.8408 48.2993 70.723 48.3354 70.6044 48.3255Z" fill="white"/>
</g>
<ellipse cx="73.1595" cy="21.4828" rx="6.96251" ry="10.1966" transform="rotate(4.86569 73.1595 21.4828)" fill="#A7C9E3"/>
<path d="M71.5063 39.9555C71.2202 39.9312 70.9357 40.0184 70.7123 40.1988C70.4889 40.3791 70.3438 40.6388 70.3072 40.9236C69.9527 43.6864 68.0121 59.2853 68.0233 59.1537C67.9135 60.4439 68.6726 61.6995 69.9086 62.0885C70.3259 62.2282 70.77 62.2688 71.2057 62.2072C71.6415 62.1456 72.0569 61.9835 72.4191 61.7336C72.7813 61.4837 73.0804 61.1529 73.2927 60.7674C73.505 60.3819 73.6247 59.9523 73.6422 59.5126L74.4625 41.2774C74.4746 40.9902 74.3753 40.7096 74.1853 40.4939C73.9953 40.2783 73.7294 40.1445 73.443 40.1204L71.5063 39.9555Z" fill="#FC6559"/>
<path d="M73.6455 59.5154C73.6282 59.9549 73.5085 60.3842 73.2962 60.7694C73.0838 61.1545 72.7845 61.4848 72.4221 61.7339C72.0597 61.9831 71.6442 62.1443 71.2086 62.2048C70.7729 62.2652 70.3292 62.2232 69.9127 62.0821C69.294 61.8862 68.7672 61.4729 68.4296 60.9188C68.6181 61.0409 68.8221 61.1379 69.0427 61.2097C70.9224 61.7954 72.6969 60.4704 72.7741 58.6283L73.5956 40.3945C73.6035 40.3023 73.597 40.2222 73.5774 40.141C74.1143 40.253 74.4855 40.7368 74.4658 41.2802L73.6455 59.5154Z" fill="#F05543"/>
<g opacity="0.3">
<path d="M69.7748 56.3375L69.7498 56.3353C69.6278 56.3181 69.5177 56.2532 69.4436 56.1549C69.3694 56.0566 69.3372 55.9329 69.3541 55.811L70.1033 50.3592C70.1206 50.2374 70.1852 50.1274 70.2832 50.053C70.3812 49.9786 70.5046 49.946 70.6265 49.9621C70.8795 49.9969 71.0571 50.2322 71.0235 50.4866L70.2729 55.9383C70.2568 56.0559 70.1961 56.1629 70.1035 56.2372C70.0108 56.3115 69.8931 56.3474 69.7748 56.3375ZM70.7734 49.0782L70.7483 49.076C70.6264 49.0588 70.5163 48.9939 70.4421 48.8956C70.368 48.7973 70.3358 48.6736 70.3527 48.5517L70.4395 47.9212C70.4589 47.8007 70.5239 47.6922 70.6211 47.6183C70.7182 47.5444 70.84 47.5106 70.9614 47.524C71.2157 47.5589 71.3932 47.7942 71.3583 48.0485L71.2716 48.6776C71.2558 48.7956 71.1953 48.9029 71.1025 48.9775C71.0098 49.052 70.8919 49.0881 70.7734 49.0782Z" fill="white"/>
</g>
<path d="M66.4328 29.8777C70.1904 52.7652 50.6707 72.2849 27.7832 68.5273C13.9222 66.2518 2.74377 55.0734 0.466406 41.2124C-3.29318 18.323 16.2285 -1.19869 39.116 2.56089C52.977 4.83825 64.1554 16.0166 66.4328 29.8777Z" fill="#A7C9E3"/>
<path d="M27.7829 68.5273C20.3487 67.3076 13.671 63.5132 8.75342 58.1325C13.4201 62.4112 19.266 65.3911 25.7121 66.4564C48.5919 70.2122 68.1232 50.6982 64.3694 27.7991C63.304 21.3723 60.3415 15.5458 56.0647 10.881C61.4455 15.7966 65.2205 22.457 66.4402 29.8719C70.196 52.771 50.6627 72.2811 27.7829 68.5273Z" fill="#C4E2FF"/>
<path d="M28.5497 64.1446C16.5706 62.2062 6.80458 52.4414 4.82867 40.4606C1.60615 20.6331 18.4708 3.62218 38.356 6.93349C50.3326 8.90968 60.0986 18.6367 62.0745 30.6579C65.3046 50.4501 48.44 67.4609 28.5522 64.1446H28.5497Z" fill="#DEEFFF"/>
<path d="M54.8074 15.8366C50.7267 12.0588 45.5824 9.42318 39.9554 8.48315C20.0778 5.14757 3.14136 22.1464 6.37554 42.0411C7.3156 47.6067 9.87275 52.7725 13.7282 56.8946C9.11448 52.6114 5.8702 46.8575 4.83172 40.4946C1.58491 20.5847 18.5795 3.60612 38.4116 6.93918C44.7713 7.97776 50.4993 11.2249 54.8074 15.8366Z" fill="#C4E2FF"/>
<path opacity="0.3" d="M33.5001 61.4973C33.2974 61.4632 33.1166 61.35 32.9973 61.1826C32.8781 61.0153 32.8302 60.8073 32.8642 60.6046C32.8983 60.4019 33.0114 60.2211 33.1788 60.1018C33.3462 59.9826 33.5541 59.9347 33.7568 59.9687C39.9192 60.9974 45.6725 58.969 49.7852 54.8852C49.8573 54.8136 49.9428 54.7569 50.0369 54.7183C50.1309 54.6798 50.2316 54.6601 50.3332 54.6605C50.4348 54.6608 50.5353 54.6812 50.6291 54.7204C50.7228 54.7596 50.8079 54.8169 50.8795 54.889C50.9511 54.9611 51.0078 55.0466 51.0464 55.1407C51.0849 55.2347 51.1046 55.3354 51.1042 55.437C51.1039 55.5386 51.0835 55.6391 51.0443 55.7329C51.0051 55.8266 50.9478 55.9117 50.8757 55.9833C46.4811 60.3489 40.255 62.6224 33.5021 61.4953L33.5001 61.4973Z" fill="white"/>
<path d="M39.8586 12.6305C41.9619 13.4626 43.902 14.6589 45.59 16.1644L45.7672 16.3223L45.8978 16.1241C46.7952 14.7602 47.9526 13.5866 49.3039 12.6704C50.0857 12.1411 50.925 11.7024 51.8059 11.3627C51.4185 8.28035 49.911 5.49207 47.6607 3.47893C47.5013 3.33699 47.3024 3.24708 47.0906 3.22123C46.8788 3.19537 46.6641 3.23479 46.4752 3.33422C43.0368 5.15457 40.4913 8.52285 39.8586 12.6305Z" fill="#017B4E"/>
<path d="M48.7317 6.74374C48.9206 6.6443 49.1353 6.60488 49.3471 6.63074C49.5589 6.6566 49.7578 6.74651 49.9172 6.88845C50.2192 7.15936 50.5081 7.44456 50.7829 7.74306C50.0509 6.11955 48.9875 4.66704 47.6609 3.47878C47.5016 3.33684 47.3027 3.24693 47.0908 3.22107C46.879 3.19521 46.6643 3.23463 46.4754 3.33407C43.0367 5.15427 40.4912 8.52256 39.8588 12.6301C40.8111 13.0081 41.7316 13.4617 42.6115 13.9866C43.656 10.8182 45.8861 8.24994 48.7317 6.74374Z" fill="#026841"/>
<path d="M45.6072 16.1882C48.1263 18.4333 50.0029 21.308 51.0449 24.5175C52.7647 24.2172 54.4499 23.5556 55.9882 22.5109C59.5629 20.0832 61.5075 16.154 61.5546 12.1376C61.5566 11.9242 61.4935 11.7153 61.3735 11.5387C61.2536 11.3621 61.0827 11.2264 60.8835 11.1496C57.1328 9.71264 52.7635 10.0718 49.1887 12.4995C47.7552 13.4711 46.5362 14.7266 45.6072 16.1882Z" fill="#80D261"/>
<path d="M45.6054 16.1879C46.542 17.0235 47.394 17.9494 48.149 18.9522C48.832 18.1946 49.6038 17.522 50.4476 16.949C53.7032 14.7378 57.6178 14.2433 61.1241 15.258C61.3951 14.2396 61.5391 13.1915 61.5527 12.1376C61.5547 11.9242 61.4915 11.7153 61.3716 11.5387C61.2517 11.3621 61.0807 11.2264 60.8816 11.1496C57.1308 9.71264 52.7615 10.0718 49.1868 12.4995C47.7533 13.471 46.5343 14.7264 45.6054 16.1879Z" fill="#68CA44"/>
<path d="M48.0013 18.7591C48.6305 19.5726 49.1926 20.436 49.6819 21.3406L53.362 18.8412C53.6988 18.6113 53.9307 18.2572 54.0067 17.8566C54.0828 17.4559 53.9968 17.0415 53.7677 16.7041C53.5386 16.3668 53.185 16.1341 52.7846 16.0571C52.3841 15.9801 51.9695 16.0651 51.6316 16.2934L48.0013 18.7591Z" fill="#017B4E"/>
<path d="M15.2236 12.5571H48.4964L51.2691 15.3299V58.3072H15.2236V12.5571Z" fill="#FFAB40"/>
<path d="M15.2236 54.8413H48.4964L51.2691 57.614H15.2236V54.8413Z" fill="#9A2F0E"/>
<path d="M48.4969 12.2105H15.2241V39.75H48.4969V12.2105Z" fill="#FFD54F"/>
<path d="M48.4969 39.2446H15.2241V47.3996H48.4969V39.2446Z" fill="#E0E0E0"/>
<path d="M48.4969 46.5231H15.2241V54.8413H21.8787H30.1969H33.5241H41.8423H48.4969V46.5231Z" fill="#BF360C"/>
<path d="M40.1784 32.8043C40.1784 31.1927 38.9369 29.8867 37.4053 29.8867H26.3151C24.7835 29.8867 23.542 31.1927 23.542 32.8043C23.542 33.0476 23.5784 33.2805 23.6325 33.5062C23.9548 35.2883 26.2485 37.1797 29.0881 37.1797C30.4742 37.1797 30.5168 37.1797 31.8612 37.1797C32.9915 37.1797 33.7266 37.1797 34.6343 37.1797C37.4074 37.1797 39.7489 35.3902 40.09 33.5062C40.142 33.2805 40.1784 33.0476 40.1784 32.8043Z" fill="#3E2723"/>
<path d="M26.1416 27.8071C29.3 27.8071 31.8604 25.2468 31.8604 22.0884C31.8604 18.93 29.3 16.3696 26.1416 16.3696C22.9832 16.3696 20.4229 18.93 20.4229 22.0884C20.4229 25.2468 22.9832 27.8071 26.1416 27.8071Z" fill="white"/>
<path d="M37.5791 27.8071C40.7375 27.8071 43.2979 25.2468 43.2979 22.0884C43.2979 18.93 40.7375 16.3696 37.5791 16.3696C34.4207 16.3696 31.8604 18.93 31.8604 22.0884C31.8604 25.2468 34.4207 27.8071 37.5791 27.8071Z" fill="white"/>
<path d="M26.1414 24.6878C27.5771 24.6878 28.7409 23.524 28.7409 22.0884C28.7409 20.6528 27.5771 19.489 26.1414 19.489C24.7058 19.489 23.542 20.6528 23.542 22.0884C23.542 23.524 24.7058 24.6878 26.1414 24.6878Z" fill="#0288D1"/>
<path d="M33.4202 34.0458C32.5593 34.0458 31.8605 34.7476 31.8605 35.6127C31.8605 34.7476 31.1618 34.0458 30.3009 34.0458C29.4399 34.0458 28.7412 34.7476 28.7412 35.6127V37.1797H30.3009H33.4202H34.9799V35.6127C34.9799 34.7476 34.2811 34.0458 33.4202 34.0458Z" fill="#FF1744"/>
<path d="M18.3226 17.9293C18.3226 15.7624 17.025 13.9366 15.2241 13.2503V22.6083C17.025 21.922 18.3226 20.0962 18.3226 17.9293Z" fill="#FFAB40"/>
<path d="M46.2021 34.573C46.2021 36.013 47.2294 37.1797 48.4969 37.1797V31.9662C47.2294 31.9662 46.2021 33.1329 46.2021 34.573Z" fill="#FFAB40"/>
<path d="M31.8603 21.5685C30.7114 21.5685 29.7808 22.4991 29.7808 23.6481V27.8072H33.9399V23.6481C33.9399 22.4991 33.0093 21.5685 31.8603 21.5685Z" fill="#FFAB40"/>
<path d="M26.1415 22.6083C26.4286 22.6083 26.6614 22.3755 26.6614 22.0884C26.6614 21.8013 26.4286 21.5685 26.1415 21.5685C25.8543 21.5685 25.6216 21.8013 25.6216 22.0884C25.6216 22.3755 25.8543 22.6083 26.1415 22.6083Z" fill="#1A1A1A"/>
<path d="M37.5789 24.6878C39.0146 24.6878 40.1784 23.524 40.1784 22.0884C40.1784 20.6528 39.0146 19.489 37.5789 19.489C36.1433 19.489 34.9795 20.6528 34.9795 22.0884C34.9795 23.524 36.1433 24.6878 37.5789 24.6878Z" fill="#0288D1"/>
<path d="M37.579 22.6083C37.8661 22.6083 38.0989 22.3755 38.0989 22.0884C38.0989 21.8013 37.8661 21.5685 37.579 21.5685C37.2918 21.5685 37.0591 21.8013 37.0591 22.0884C37.0591 22.3755 37.2918 22.6083 37.579 22.6083Z" fill="#1A1A1A"/>
<path d="M44.8575 17.4094C45.7189 17.4094 46.4172 16.7111 46.4172 15.8498C46.4172 14.9884 45.7189 14.2901 44.8575 14.2901C43.9961 14.2901 43.2979 14.9884 43.2979 15.8498C43.2979 16.7111 43.9961 17.4094 44.8575 17.4094Z" fill="#FFAB40"/>
<path d="M44.3378 31.9662C45.4864 31.9662 46.4174 31.0352 46.4174 29.8867C46.4174 28.7382 45.4864 27.8071 44.3378 27.8071C43.1893 27.8071 42.2583 28.7382 42.2583 29.8867C42.2583 31.0352 43.1893 31.9662 44.3378 31.9662Z" fill="#FFF59D"/>
<path d="M19.3833 31.9662C20.5318 31.9662 21.4628 31.0352 21.4628 29.8867C21.4628 28.7382 20.5318 27.8071 19.3833 27.8071C18.2348 27.8071 17.3037 28.7382 17.3037 29.8867C17.3037 31.0352 18.2348 31.9662 19.3833 31.9662Z" fill="#FFF59D"/>
<path d="M30.8208 29.8867H28.7412V31.9663H30.8208V29.8867Z" fill="white"/>
<path d="M34.9794 29.8867H32.8999V31.9663H34.9794V29.8867Z" fill="white"/>
</svg>
