<svg width="56" height="67" viewBox="0 0 56 67" fill="none" xmlns="http://www.w3.org/2000/svg">
<path d="M38.5591 17.0127C39.4557 15.5094 41.0974 14.5019 42.9749 14.5019C45.813 14.5019 48.1136 16.8026 48.1136 19.6406C48.1136 19.8451 48.1003 20.0465 48.0771 20.2449C48.696 20.0712 49.3232 19.9808 49.9424 19.9808C50.5159 19.9808 51.0572 20.0599 51.5585 20.2119C51.5717 20.0218 51.5787 19.8313 51.5794 19.6407C51.5794 14.8884 47.7269 11.0361 42.9748 11.0361C40.1426 11.0361 37.6306 12.4047 36.0626 14.5164L38.5591 17.0127ZM8.27473 34.0939L8.45257 34.0618L8.36659 33.9028C8.22257 33.6362 8.09518 33.361 7.98514 33.0787C5.4924 32.7245 3.57518 30.5828 3.57518 27.9923C3.57518 25.1542 5.87595 22.8536 8.71389 22.8536C10.199 22.8536 11.5363 23.4843 12.4744 24.4917C12.6747 23.6106 13.091 22.8326 13.7096 22.2141C13.9414 21.9825 14.1978 21.7769 14.4743 21.6011C12.9492 20.2257 10.9296 19.3878 8.71402 19.3878C3.96187 19.3878 0.109375 23.2403 0.109375 27.9924C0.109375 31.432 2.12827 34.3992 5.04525 35.7764C5.7901 34.9443 6.91811 34.3382 8.27473 34.0939Z" fill="#FED2A4"/>
<path d="M31.5665 25.3342C31.9391 25.1567 32.3535 25.0662 32.8022 25.0662C33.5474 25.0662 34.3805 25.3185 35.2116 25.796L35.3827 25.8941L35.4067 25.6983C35.8269 22.2836 37.6334 19.805 39.7021 19.805C41.2011 19.805 42.5824 21.0837 43.397 23.2256L43.4779 23.4383L43.621 23.2613C43.8247 23.0093 44.0411 22.7677 44.2693 22.5376L30.7157 8.98408C30.4389 8.70732 29.9875 8.72564 29.7288 9.01942C26.8492 12.2888 26.1922 16.8287 27.7524 20.6807C29.4558 20.8543 30.944 22.7019 31.5665 25.3342Z" fill="#FB2B3A"/>
<path d="M31.5665 25.3342C31.9391 25.1567 32.3535 25.0662 32.8022 25.0662C32.9365 25.0662 33.0746 25.0772 33.2141 25.0935C29.8932 21.0774 29.7903 15.2976 32.9012 11.1696L30.7157 8.98408C30.4389 8.70732 29.9875 8.72564 29.7288 9.01942C26.8492 12.2888 26.1922 16.8287 27.7524 20.6807C29.4558 20.8543 30.944 22.7019 31.5665 25.3342Z" fill="#E41F2D"/>
<path d="M33.1849 22.212C33.056 22.2121 32.9283 22.1868 32.8092 22.1375C32.6901 22.0882 32.582 22.0158 32.4909 21.9245C32.3069 21.7404 32.2035 21.4908 32.2035 21.2305C32.2035 20.9703 32.3069 20.7206 32.4909 20.5366L33.5773 19.4502C33.7614 19.2662 34.011 19.1628 34.2713 19.1628C34.5316 19.1628 34.7812 19.2662 34.9652 19.4502C35.1493 19.6342 35.2526 19.8839 35.2526 20.1441C35.2526 20.4044 35.1493 20.654 34.9652 20.8381L33.8788 21.9245C33.7878 22.0158 33.6796 22.0881 33.5606 22.1375C33.4415 22.1868 33.3138 22.2121 33.1849 22.212ZM32.8499 17.3869H31.3135C31.0532 17.3869 30.8035 17.2835 30.6195 17.0995C30.4354 16.9154 30.332 16.6658 30.332 16.4055C30.332 16.1452 30.4354 15.8956 30.6195 15.7115C30.8035 15.5274 31.0532 15.424 31.3135 15.424H32.8499C33.1102 15.424 33.3598 15.5274 33.5439 15.7115C33.7279 15.8956 33.8313 16.1452 33.8313 16.4055C33.8313 16.6658 33.7279 16.9154 33.5439 17.0995C33.3598 17.2835 33.1102 17.3869 32.8499 17.3869Z" fill="#FE646F"/>
<path d="M22.4795 14.0092C26.2279 10.2608 26.3923 4.28547 22.9725 0.34163C22.9118 0.271623 22.8373 0.214865 22.7537 0.174893C22.6701 0.13492 22.5792 0.112587 22.4865 0.109285C22.3939 0.105983 22.3016 0.121782 22.2154 0.155699C22.1291 0.189616 22.0508 0.240924 21.9852 0.306429L8.77667 13.5151C8.71117 13.5807 8.65986 13.659 8.62594 13.7452C8.59203 13.8315 8.57623 13.9238 8.57953 14.0164C8.58283 14.109 8.60516 14.2 8.64514 14.2836C8.68511 14.3672 8.74187 14.4417 8.81188 14.5024C12.7556 17.922 18.731 17.7577 22.4795 14.0092Z" fill="#FD4755"/>
<path d="M11.3097 11.433C11.2273 11.3606 11.164 11.2691 11.1255 11.1664L8.77667 13.5152C8.71117 13.5808 8.65986 13.6591 8.62594 13.7454C8.59203 13.8316 8.57623 13.9239 8.57953 14.0165C8.58283 14.1091 8.60516 14.2001 8.64514 14.2837C8.68511 14.3673 8.74187 14.4418 8.81188 14.5025C12.7557 17.9223 18.731 17.7579 22.4795 14.0095C23.1928 13.2966 23.7945 12.4802 24.2644 11.5879C20.5044 14.6946 15.012 14.6432 11.3097 11.433Z" fill="#FB2B3A"/>
<path d="M19.6445 12.3496C19.5156 12.3498 19.3879 12.3245 19.2688 12.2752C19.1498 12.2258 19.0416 12.1534 18.9506 12.0621L17.9816 11.0931C17.7975 10.9091 17.6941 10.6595 17.6941 10.3992C17.6941 10.1389 17.7975 9.88929 17.9816 9.70524C18.1656 9.5212 18.4152 9.41782 18.6755 9.41782C18.9358 9.41782 19.1854 9.5212 19.3695 9.70524L20.3385 10.6742C20.4757 10.8115 20.5692 10.9864 20.607 11.1767C20.6449 11.3671 20.6255 11.5644 20.5512 11.7438C20.4769 11.9231 20.3511 12.0764 20.1897 12.1842C20.0284 12.2921 19.8386 12.3496 19.6445 12.3496ZM15.3408 14.0187C15.0805 14.0187 14.8309 13.9153 14.6468 13.7313C14.4628 13.5472 14.3594 13.2976 14.3594 13.0373V11.6669C14.3594 11.4066 14.4628 11.157 14.6468 10.973C14.8309 10.7889 15.0805 10.6855 15.3408 10.6855C15.6011 10.6855 15.8507 10.7889 16.0348 10.973C16.2189 11.157 16.3223 11.4066 16.3223 11.6669V13.0373C16.3223 13.2976 16.2189 13.5472 16.0348 13.7313C15.8507 13.9153 15.6011 14.0187 15.3408 14.0187ZM21.5074 8.12616H20.1371C19.8768 8.12616 19.6271 8.02276 19.4431 7.8387C19.259 7.65464 19.1556 7.40501 19.1556 7.14471C19.1556 6.88442 19.259 6.63478 19.4431 6.45073C19.6271 6.26667 19.8768 6.16327 20.1371 6.16327H21.5074C21.7677 6.16327 22.0174 6.26667 22.2014 6.45073C22.3855 6.63478 22.4889 6.88442 22.4889 7.14471C22.4889 7.40501 22.3855 7.65464 22.2014 7.8387C22.0174 8.02276 21.7677 8.12616 21.5074 8.12616Z" fill="#E41F2D"/>
<path d="M15.8723 41.7028C15.8723 41.068 15.9447 40.4501 16.0777 39.8548C13.7189 39.1068 12.1514 37.6298 12.1514 35.9841C12.1514 34.4855 13.4297 33.1045 15.5705 32.2897L15.7828 32.209L15.6065 32.0658C15.3518 31.8596 15.1079 31.6404 14.8758 31.409C13.5121 30.0454 12.6368 28.3571 12.401 26.6455C11.1506 26.3736 9.91649 26.5671 8.95599 27.2972C7.14882 28.6708 6.91079 31.4859 8.2517 33.9651C5.98496 34.3735 4.23603 35.818 3.97352 37.7441C3.7576 39.3279 4.59811 40.8662 6.0568 41.9193H15.8778C15.876 41.847 15.8723 41.7753 15.8723 41.7028Z" fill="#80D261"/>
<path d="M29.5764 41.9191C29.5877 41.9052 29.6004 41.8918 29.6115 41.8779C29.6134 41.8197 29.6159 41.7614 29.6159 41.7027C29.6159 38.7969 27.2521 36.4331 24.3464 36.4331C21.4406 36.4331 19.0767 38.7969 19.0767 41.7027C19.0767 41.7753 19.0806 41.8471 19.0835 41.9191H29.5764Z" fill="#017B4E"/>
<path d="M24.3461 33.229C27.2986 33.229 29.9018 34.7478 31.4193 37.0439C31.3734 36.1945 31.4244 35.3426 31.5715 34.5048C31.4718 34.3488 31.3754 34.1907 31.2825 34.0305C30.2886 32.3091 29.7564 30.4608 29.7839 28.826C29.811 27.2156 30.3786 26.0096 31.3822 25.4302C31.4807 25.3735 31.5828 25.3233 31.6879 25.28C31.0236 22.5 29.3944 20.5349 27.4896 20.5349C25.8829 20.5349 24.4732 21.934 23.6723 24.0398C23.4606 23.7774 23.2352 23.5263 22.9971 23.2876C20.0848 20.3754 15.8852 19.8532 13.617 22.1214C11.3488 24.3896 11.8709 28.5893 14.7832 31.5015C15.0185 31.7361 15.2657 31.9584 15.524 32.1673C13.419 32.9683 12.0205 34.3778 12.0205 35.984C12.0205 37.7202 13.6538 39.2267 16.048 39.9829C16.845 36.1322 20.2628 33.229 24.3461 33.229Z" fill="#017B4E"/>
<path d="M21.5623 40.2741C20.8633 40.1352 20.2098 39.9363 19.618 39.6881C19.3354 40.3511 19.1958 41.0662 19.2083 41.7868L19.2097 41.7883H21.8292C21.8878 41.5795 21.9589 41.3745 22.0421 41.1743C22.2018 40.7876 21.9727 40.3556 21.5623 40.2741ZM12.021 35.9841C12.021 37.6899 13.5968 39.1747 15.9226 39.9434C16.1006 39.0889 16.4085 38.2667 16.8356 37.5055C16.5521 37.0301 16.3968 36.5182 16.3968 35.9843C16.3968 34.6152 17.4125 33.3892 19.0158 32.561C19.4122 32.3562 19.4825 31.824 19.1666 31.5089L19.1594 31.5017C16.2471 28.5894 15.725 24.3897 17.9931 22.1216C18.4404 21.6743 18.9636 21.3372 19.5364 21.1039C17.3353 20.3597 15.0766 20.6622 13.6172 22.1216C11.349 24.3897 11.8712 28.5894 14.7834 31.5017C15.0187 31.7362 15.266 31.9585 15.5242 32.1675C13.4194 32.9683 12.021 34.3778 12.021 35.9841Z" fill="#026841"/>
<path d="M23.3918 33.2841C23.7086 33.2478 24.0272 33.2294 24.3461 33.2289C25.0383 33.2289 25.7108 33.3142 26.3553 33.4716L21.0039 28.1203C20.8199 27.9362 20.5703 27.8329 20.31 27.8329C20.0497 27.8329 19.8001 27.9362 19.616 28.1203C19.432 28.3043 19.3286 28.5539 19.3286 28.8142C19.3286 29.0745 19.432 29.3241 19.616 29.5082L23.3918 33.2841Z" fill="#026841"/>
<path d="M51.6678 31.307C51.926 31.0979 52.1733 30.8757 52.4086 30.6412C55.3209 27.7289 55.843 23.5292 53.5748 21.261C51.3066 18.9929 47.107 19.515 44.1947 22.4273C43.9566 22.666 43.7312 22.9171 43.5195 23.1794C42.7186 21.0736 41.3089 19.6745 39.7022 19.6745C37.5198 19.6745 35.6991 22.2536 35.277 25.6826C33.858 24.8676 32.421 24.6796 31.3171 25.317C29.1565 26.5645 29.0903 30.495 31.1694 34.0961C31.2871 34.2985 31.4104 34.4976 31.5392 34.6932C31.8536 32.7045 32.7084 30.7831 34.1154 29.1711C34.171 29.1073 34.2397 29.0562 34.3167 29.0212C34.3938 28.9861 34.4774 28.968 34.562 28.968C34.6392 28.9678 34.7156 28.9829 34.7869 29.0124C34.8582 29.0419 34.923 29.0852 34.9774 29.1399L47.7567 41.9193H49.8979C49.8737 41.1663 49.6122 40.3555 49.1484 39.5506C52.5848 39.132 55.1713 37.3091 55.1713 35.1237C55.1712 33.5173 53.7728 32.108 51.6678 31.307Z" fill="#68CA44"/>
<path d="M47.576 27.2597C47.392 27.0757 47.1424 26.9723 46.8821 26.9723C46.6218 26.9723 46.3722 27.0757 46.1882 27.2597L39.7354 33.7125L41.1232 35.1004L47.576 28.6476C47.7601 28.4636 47.8635 28.214 47.8635 27.9537C47.8635 27.6934 47.7601 27.4438 47.576 27.2597Z" fill="#80D261"/>
<path d="M32.8199 41.7028C32.8199 41.722 32.8192 41.7413 32.8186 41.7604L32.8139 41.9192H47.9416L35.0698 29.0474C34.7745 28.7522 34.2913 28.7704 34.0167 29.085C32.0918 31.2906 31.1754 34.0702 31.267 36.8224C32.2436 38.2032 32.8199 39.8865 32.8199 41.7028Z" fill="white"/>
<path d="M40.1965 41.9191H44.7432C45.46 41.6217 46.1111 41.1859 46.6594 40.6367L38.2803 32.2577C35.9665 34.5715 35.9665 38.3229 38.2803 40.6367C38.8286 41.1859 39.4797 41.6217 40.1965 41.9191Z" fill="#FEDF74"/>
<path d="M40.2001 41.9191H42.4234C41.7064 41.6219 41.055 41.1861 40.5066 40.6367C38.5784 38.7085 38.2586 35.7825 39.5441 33.5215L38.2803 32.2577C35.9665 34.5715 35.9665 38.3229 38.2803 40.6367C38.8295 41.1865 39.482 41.6223 40.2001 41.9191Z" fill="#FED402"/>
<path d="M19.2131 41.9191C19.2098 41.847 19.208 41.7749 19.2076 41.7027C19.2076 38.8646 21.5084 36.564 24.3463 36.564C27.1843 36.564 29.4851 38.8647 29.4851 41.7027C29.4851 41.7753 29.4826 41.8473 29.4796 41.9191H32.9455C32.9473 41.847 32.951 41.7753 32.951 41.7027C32.951 36.9504 29.0985 33.098 24.3463 33.098C19.5942 33.098 15.7417 36.9505 15.7417 41.7027C15.7417 41.7753 15.7454 41.8469 15.7472 41.9191H19.2131Z" fill="#FED2A4"/>
<path d="M17.4958 67H36.6455C36.9067 67 37.1662 66.9514 37.4076 66.8517C46.8389 62.9578 53.5927 53.8958 54.1395 43.1944C54.1786 42.4282 53.5599 41.7883 52.7926 41.7883H1.34869C0.581465 41.7883 -0.0373682 42.428 0.0017587 43.1944C0.548619 53.8958 7.3024 62.9578 16.7337 66.8517C16.9756 66.9506 17.2345 67.0009 17.4958 67Z" fill="#A7C9E3"/>
<path d="M5.83623 48.1281H0.711914C2.74926 56.6291 8.79208 63.5726 16.7337 66.8517C16.9755 66.9505 17.2345 67.0009 17.4958 67H22.6201C22.3589 67 22.0994 66.9514 21.858 66.8517C13.9164 63.5728 7.87358 56.6291 5.83623 48.1281Z" fill="#C4E2FF"/>
<path d="M52.7926 41.7883H1.34869C0.581465 41.7883 -0.0373682 42.428 0.0017587 43.1944C0.0862917 44.8573 0.324023 46.5089 0.711932 48.1281H53.4294C53.8172 46.5089 54.0549 44.8573 54.1395 43.1944C54.1786 42.4282 53.5598 41.7883 52.7926 41.7883Z" fill="#EAF6FF"/>
<path d="M0.0017587 43.1944C0.0862917 44.8573 0.324023 46.5089 0.711932 48.1281H5.83625C5.4484 46.5089 5.21067 44.8573 5.12608 43.1944C5.08695 42.4282 5.70578 41.7883 6.47301 41.7883H1.34869C0.581465 41.7883 -0.0373682 42.4282 0.0017587 43.1944Z" fill="#D8ECFE"/>
<path d="M44.089 6.18409C44.4154 6.09667 44.6284 5.78091 44.5839 5.44604C44.4022 4.06713 43.7697 2.78698 42.7849 1.80488C41.8029 0.819978 40.5227 0.187457 39.1438 0.00582983C38.809 -0.0385314 38.4932 0.174507 38.4058 0.500739L36.6277 7.13661C36.4934 7.6378 36.952 8.09633 37.4531 7.96207L44.089 6.18409Z" fill="#FE9901"/>
<path d="M39.5753 7.13674L41.2999 0.700561C40.6289 0.340997 39.8985 0.105638 39.1438 0.00582983C38.809 -0.0385314 38.4932 0.174507 38.4058 0.500739L36.6277 7.13661C36.4934 7.6378 36.952 8.09633 37.4531 7.96207L39.5576 7.3982C39.5463 7.31073 39.5523 7.22189 39.5753 7.13674Z" fill="#FB8801"/>
</svg>
