<svg width="71" height="73" viewBox="0 0 71 73" fill="none" xmlns="http://www.w3.org/2000/svg">
<path d="M37.6736 37.5744L19.4526 24.8413L15.4392 21.669C24.0127 10.8113 39.77 8.97079 50.6342 17.5581C61.4984 26.1454 63.3554 41.9086 54.782 52.7664C46.2086 63.6242 30.4513 65.4647 19.5871 56.8774C16.0821 54.1069 13.5146 50.5897 11.9324 46.7311L16.6376 44.7999L37.6736 37.5744Z" fill="#F5A26A"/>
<path d="M19.4526 24.8412C20.4831 23.5393 21.6942 22.3457 23.0806 21.298C31.8728 14.654 44.3862 16.3955 51.0302 25.1876C57.6742 33.9796 55.9329 46.4932 47.1408 53.1373C38.3486 59.7813 25.8352 58.0399 19.1911 49.2478C18.1762 47.9047 17.266 46.2823 16.6377 44.7998L35.1108 37.2176L19.4526 24.8412Z" fill="#FFDB63"/>
<path d="M19.2669 48.28L38.907 40.2189L35.1102 37.2178L16.6371 44.8C17.2655 46.2825 18.1756 47.9049 19.1906 49.2479C19.6418 49.8451 20.121 50.4085 20.6234 50.9402C20.0986 50.0614 19.6343 49.147 19.2669 48.28ZM19.4521 24.8414L22.7895 27.4794C23.671 26.4844 24.6492 25.5796 25.7098 24.7783C33.9138 18.5787 45.3573 19.6812 52.2495 26.9996C51.8759 26.374 51.4687 25.7692 51.0296 25.1877C44.3856 16.3956 31.8721 14.6542 23.08 21.2982C21.6937 22.3459 20.4827 23.5395 19.4521 24.8414Z" fill="#FFD205"/>
<path d="M17.3679 22.7424C12.0031 29.5971 10.6033 39.1034 13.7519 47.2175L37.1239 38.1906L17.3679 22.7424Z" fill="#F5A26A"/>
<path d="M17.9592 43.4976C18.121 44.0793 18.3089 44.6535 18.5221 45.2184L18.5908 45.3487L37.1239 38.1907L21.4191 25.9103C17.6881 30.7242 16.2004 37.1791 17.9592 43.4976Z" fill="#FFDB63"/>
<path d="M25.0065 28.7157L21.4188 25.9102C17.6879 30.7242 16.2001 37.1791 17.9589 43.4976C18.1208 44.0793 18.3086 44.6535 18.5219 45.2184L18.5905 45.3487L21.2107 44.3367C20.1955 38.6757 21.7004 33.0451 25.0065 28.7157Z" fill="#FFD205"/>
<path d="M38.9548 49.2449C37.9759 48.0096 36.182 47.8009 34.948 48.7787C33.7141 49.7566 33.5074 51.5507 34.4863 52.786C35.4652 54.0213 37.2591 54.23 38.493 53.2522C39.727 52.2744 39.9337 50.4802 38.9548 49.2449Z" fill="#F54C5A"/>
<path d="M51.1052 37.8062C50.1263 36.5709 48.3324 36.3621 47.0984 37.34C45.8645 38.3178 45.6578 40.1119 46.6367 41.3472C47.6156 42.5826 49.4095 42.7913 50.6434 41.8134C51.8774 40.8356 52.0841 39.0415 51.1052 37.8062Z" fill="#F54C5A"/>
<path d="M22.107 26.9401C23.0826 25.7047 24.8754 25.4953 26.1115 26.4723C27.3476 27.4493 27.559 29.2429 26.5835 30.4783" fill="#F54C5A"/>
<path d="M41.739 21.9495C40.7601 20.7141 38.9662 20.5054 37.7322 21.4833C36.4983 22.4611 36.2915 24.2552 37.2705 25.4905C38.2494 26.7258 40.0433 26.9346 41.2772 25.9567C42.5112 24.9789 42.7179 23.1848 41.739 21.9495Z" fill="#F54C5A"/>
<path d="M28.0199 40.1557C28.8751 41.1704 28.9302 42.6787 28.0767 43.7596C27.1012 44.995 25.3083 45.2044 24.0722 44.2274C23.7779 43.9955 23.5323 43.7077 23.3495 43.3806C23.1667 43.0535 23.0502 42.6935 23.0068 42.3214" fill="#F54C5A"/>
<path d="M29.6511 47.62C29.7373 47.7338 29.7922 47.8682 29.8103 48.0098C29.8284 48.1514 29.8091 48.2953 29.7543 48.4272L28.1888 52.2009C28.1057 52.4012 27.9464 52.5604 27.746 52.6433C27.5455 52.7262 27.3204 52.726 27.12 52.6429C26.9196 52.5598 26.7605 52.4005 26.6776 52.2001C26.5947 51.9996 26.5948 51.7744 26.6779 51.5741L28.2434 47.8004C28.2986 47.6674 28.3879 47.5512 28.5023 47.4638C28.6167 47.3763 28.7522 47.3206 28.895 47.3023C29.0378 47.284 29.183 47.3038 29.3157 47.3596C29.4485 47.4153 29.5642 47.5052 29.6511 47.62ZM38.5015 42.2333C38.6019 42.366 38.6594 42.5262 38.6664 42.6925C38.6733 42.8588 38.6294 43.0232 38.5404 43.1639C38.4514 43.3045 38.3217 43.4147 38.1685 43.4796C38.0152 43.5446 37.8458 43.5613 37.6829 43.5274L33.6812 42.6961C33.5761 42.6743 33.4762 42.632 33.3874 42.5716C33.2986 42.5111 33.2226 42.4338 33.1636 42.344C33.1047 42.2542 33.0641 42.1537 33.044 42.0481C33.024 41.9426 33.0249 41.8342 33.0468 41.729C33.0909 41.5166 33.2176 41.3305 33.3989 41.2115C33.5803 41.0925 33.8015 41.0505 34.0139 41.0946L38.0155 41.9259C38.2095 41.9659 38.3823 42.0752 38.5015 42.2333ZM48.878 27.8024C48.9855 27.9449 49.0434 28.1185 49.043 28.297C49.0426 28.4754 48.9839 28.6488 48.8759 28.7908L46.4013 32.0407C46.2699 32.2133 46.0753 32.3266 45.8604 32.3557C45.6454 32.3848 45.4277 32.3273 45.2551 32.1959C45.0825 32.0645 44.9692 31.8699 44.9401 31.655C44.911 31.44 44.9685 31.2223 45.0999 31.0497L47.5744 27.7998C47.6509 27.6994 47.7496 27.618 47.8628 27.562C47.976 27.506 48.1006 27.477 48.2269 27.4773C48.3531 27.4775 48.4776 27.507 48.5906 27.5634C48.7036 27.6198 48.8019 27.7016 48.878 27.8024ZM35.7126 31.0269C35.8405 31.1958 35.8978 31.4077 35.8726 31.618C35.8474 31.8283 35.7416 32.0206 35.5774 32.1545C35.4133 32.2883 35.2036 32.3533 34.9925 32.3356C34.7814 32.318 34.5854 32.2192 34.4458 32.06L31.7427 28.9918C31.4434 28.652 31.4768 28.136 31.8158 27.8374C32.1547 27.5387 32.6714 27.5715 32.9702 27.9104L35.6732 30.9786C35.6869 30.9943 35.7001 31.0104 35.7126 31.0269ZM41.0112 32.0447C41.1053 32.1691 41.1616 32.3179 41.1735 32.4734L41.4923 36.5485C41.5069 36.7636 41.4362 36.9757 41.2953 37.1388C41.1544 37.3019 40.9549 37.4028 40.74 37.4196C40.5252 37.4364 40.3124 37.3677 40.1479 37.2285C39.9834 37.0892 39.8805 36.8907 39.8616 36.676L39.5428 32.6008C39.529 32.4245 39.5728 32.2483 39.6676 32.0989C39.7624 31.9496 39.903 31.8349 40.0685 31.7722C40.234 31.7096 40.4153 31.7022 40.5852 31.7514C40.7552 31.8005 40.9047 31.9034 41.0112 32.0447ZM46.4959 47.4987C46.6237 47.6676 46.681 47.8795 46.6558 48.0898C46.6306 48.3001 46.5248 48.4924 46.3606 48.6263C46.1965 48.7601 45.9868 48.8251 45.7758 48.8074C45.5647 48.7898 45.3687 48.691 45.229 48.5318L42.5259 45.4636C42.4549 45.383 42.4005 45.2892 42.3657 45.1876C42.331 45.0859 42.3166 44.9784 42.3234 44.8713C42.3302 44.7641 42.358 44.6592 42.4053 44.5628C42.4526 44.4664 42.5184 44.3802 42.599 44.3092C42.6796 44.2382 42.7734 44.1837 42.875 44.149C42.9767 44.1142 43.0841 44.0998 43.1913 44.1066C43.2985 44.1134 43.4034 44.1412 43.4998 44.1885C43.5962 44.2358 43.6824 44.3016 43.7534 44.3822L46.4565 47.4505C46.4701 47.4661 46.4833 47.4822 46.4959 47.4987ZM32.7886 22.2238C32.8776 22.3418 32.933 22.4818 32.9489 22.6287C32.9647 22.7757 32.9404 22.9242 32.8786 23.0585C32.8168 23.1928 32.7197 23.3078 32.5978 23.3913C32.4758 23.4748 32.3334 23.5237 32.1859 23.5327L28.1077 23.7844C27.8912 23.7977 27.6783 23.7245 27.5157 23.5809C27.3532 23.4372 27.2544 23.2349 27.241 23.0184C27.2277 22.8019 27.3009 22.5889 27.4445 22.4264C27.5882 22.2638 27.7905 22.165 28.007 22.1517L32.0851 21.9001C32.22 21.8917 32.3549 21.9168 32.4777 21.9733C32.6004 22.0298 32.7073 22.1159 32.7886 22.2238ZM14.5108 33.9551C14.6147 34.0928 14.6725 34.2598 14.6758 34.4322C14.6791 34.6047 14.6278 34.7738 14.5293 34.9154L12.195 38.269C12.0711 38.447 11.8816 38.5685 11.6681 38.6068C11.4545 38.6451 11.2346 38.597 11.0565 38.4731C10.8785 38.3492 10.757 38.1596 10.7187 37.9461C10.6804 37.7326 10.7285 37.5126 10.8524 37.3346L13.1867 33.981C13.248 33.8929 13.3262 33.8176 13.4166 33.7597C13.507 33.7017 13.608 33.6621 13.7137 33.6432C13.8194 33.6243 13.9278 33.6263 14.0327 33.6493C14.1377 33.6723 14.237 33.7157 14.3252 33.777C14.3961 33.8261 14.4588 33.8862 14.5108 33.9551Z" fill="#81CDA1"/>
<path d="M15.6895 41.098C15.1218 39.6299 15.8532 37.9796 17.323 37.4121C18.7928 36.8446 20.4448 37.5746 21.0124 39.0428M19.3289 29.8475C18.8017 31.0653 17.4761 31.787 16.1279 31.5047C14.5873 31.1821 13.6007 29.6705 13.9243 28.1285C14.0008 27.7617 14.149 27.4136 14.3603 27.1041C14.5717 26.7947 14.842 26.53 15.1558 26.3253" fill="#F54C5A"/>
<path d="M46.5178 23.3852C46.3909 23.2173 46.1296 23.4141 46.2568 23.5824C46.3837 23.7504 46.6449 23.5534 46.5178 23.3852Z" fill="#060606"/>
<path d="M19.2311 3.55688V8.71431C19.2165 9.5937 19.4531 10.459 19.913 11.2087C20.3729 11.9584 21.037 12.5614 21.8275 12.9469C26.0247 14.8872 28.7128 19.0884 28.7159 23.7122V64.0232C28.8209 66.5333 26.8746 68.6548 24.3647 68.7656C21.8594 68.649 19.9195 66.529 20.0254 64.0232C20.1304 66.5333 18.184 68.6548 15.6742 68.7656C13.1644 68.6547 11.2179 66.5333 11.323 64.0232C11.4289 66.5291 9.48905 68.649 6.98366 68.7656C4.47385 68.6547 2.52732 66.5333 2.63249 64.0232V23.7124C2.63571 19.0885 5.32389 14.8874 9.52088 12.947C10.3114 12.5615 10.9756 11.9586 11.4355 11.2089C11.8954 10.4592 12.1319 9.59385 12.1173 8.71445V3.55702H19.2311V3.55688Z" fill="#59474E"/>
<path d="M13.3035 0H18.0459C19.3555 0 20.4171 1.06157 20.4171 2.37121V3.55688C20.4171 3.87134 20.2922 4.17292 20.0698 4.39528C19.8475 4.61763 19.5459 4.74255 19.2314 4.74255H12.1178C11.8033 4.74255 11.5018 4.61763 11.2794 4.39528C11.057 4.17292 10.9321 3.87134 10.9321 3.55688V2.37121C10.9321 1.06171 11.9938 0 13.3035 0Z" fill="#C03A2B"/>
<path d="M2.63281 29.6405H28.7164V49.7959H2.63281V29.6405Z" fill="#0098F7"/>
<path d="M8.56115 23.7124V29.6404H6.18994V23.7124C6.19326 23.4001 6.31964 23.1018 6.54162 22.8821C6.76361 22.6625 7.06327 22.5393 7.37555 22.5393C7.68782 22.5393 7.98749 22.6625 8.20947 22.8821C8.43145 23.1018 8.55783 23.4001 8.56115 23.7124Z" fill="#7A6C6C"/>
<path d="M8.5608 29.6405V37.9398C8.5608 38.2542 8.43588 38.5558 8.21352 38.7782C7.99116 39.0005 7.68958 39.1254 7.37512 39.1254C7.06067 39.1254 6.75908 39.0005 6.53673 38.7782C6.31437 38.5558 6.18945 38.2542 6.18945 37.9398V29.6405H8.5608Z" fill="#9AD8FF"/>
<path d="M8.5608 49.7959V56.9097C8.5608 57.2241 8.43588 57.5257 8.21352 57.7481C7.99116 57.9704 7.68958 58.0954 7.37512 58.0954C7.06067 58.0954 6.75908 57.9704 6.53673 57.7481C6.31437 57.5257 6.18945 57.2241 6.18945 56.9097V49.7959H8.5608Z" fill="#7A6C6C"/>
<path d="M8.56115 42.6822V49.7959H6.18994V42.6822C6.19326 42.3699 6.31964 42.0716 6.54162 41.8519C6.76361 41.6323 7.06327 41.5091 7.37555 41.5091C7.68782 41.5091 7.98749 41.6323 8.20947 41.8519C8.43145 42.0716 8.55783 42.3699 8.56115 42.6822Z" fill="#9AD8FF"/>
<circle cx="16" cy="39" r="6" fill="white"/>
<g clip-path="url(#clip0_2217_4286)">
<path d="M21.0334 42.264C21.1549 41.8695 21.2179 41.4525 21.2179 41.0205C21.2179 39.6293 20.5339 38.406 19.4944 37.6373C17.6824 36.3038 15.0424 36.3015 11.3989 35.154C12.4969 33.8363 14.1492 33 15.9987 33C19.3122 33 21.9987 35.685 21.9987 38.9985C21.9987 40.2015 21.6424 41.3228 21.0334 42.264Z" fill="#303F9F"/>
<path d="M15.9985 45C12.685 45 10.0015 42.3135 10.0015 38.9977C10.0015 37.6687 10.3682 36.909 10.9772 35.9385C15.0715 37.0515 18.3925 39.7793 19.5977 43.8015C18.5957 44.5537 17.3492 45 15.9985 45Z" fill="#D32F2F"/>
</g>
<defs>
<clipPath id="clip0_2217_4286">
<rect width="12" height="12" fill="white" transform="matrix(1 0 0 -1 10 45)"/>
</clipPath>
</defs>
</svg>
