<svg width="78" height="78" viewBox="0 0 78 78" fill="none" xmlns="http://www.w3.org/2000/svg">
<g clip-path="url(#clip0_2217_4041)">
<path d="M71.9062 69.4688H47.5312C45.9151 69.4688 44.3651 68.8267 43.2223 67.6839C42.0795 66.5411 41.4375 64.9912 41.4375 63.375V49.9688H78V63.375C78 64.9912 77.358 66.5411 76.2152 67.6839C75.0724 68.8267 73.5224 69.4688 71.9062 69.4688Z" fill="#373737"/>
<path d="M71.9062 45.1364H47.5312C44.8389 45.1364 42.6562 47.319 42.6562 50.0114C42.6562 52.7038 44.8389 54.8864 47.5312 54.8864H71.9062C74.5986 54.8864 76.7812 52.7038 76.7812 50.0114C76.7812 47.319 74.5986 45.1364 71.9062 45.1364Z" fill="#F5FCFC"/>
<path d="M47.5313 43.875C46.6807 43.8752 45.8394 44.0534 45.0618 44.3982C44.2842 44.743 43.5873 45.2468 43.0161 45.8772C42.4449 46.5075 42.0119 47.2505 41.7451 48.0582C41.4783 48.8659 41.3835 49.7206 41.4668 50.5672C41.6578 52.1018 42.4091 53.5117 43.5764 54.526C44.7437 55.5404 46.2447 56.0876 47.7909 56.0625H71.9063C73.5225 56.0625 75.0725 55.4205 76.2153 54.2777C77.3581 53.1349 78.0001 51.5849 78.0001 49.9688C78.0001 48.3526 77.3581 46.8026 76.2153 45.6598C75.0725 44.517 73.5225 43.875 71.9063 43.875H47.5313ZM75.5626 49.9688C75.5626 50.9384 75.1774 51.8684 74.4917 52.5541C73.806 53.2398 72.876 53.625 71.9063 53.625H47.7385C46.7766 53.6445 45.8432 53.2981 45.127 52.6558C44.4107 52.0135 43.965 51.1233 43.88 50.165C43.8533 49.669 43.928 49.1728 44.0994 48.7066C44.2709 48.2404 44.5356 47.8141 44.8772 47.4536C45.2189 47.0931 45.6305 46.806 46.0868 46.6098C46.5431 46.4136 47.0346 46.3124 47.5313 46.3125H71.9063C72.876 46.3125 73.806 46.6977 74.4917 47.3834C75.1774 48.0691 75.5626 48.9991 75.5626 49.9688Z" fill="#4D4D4D"/>
<path d="M67.0312 48.75H52.4062C51.7332 48.75 51.1875 49.2957 51.1875 49.9688C51.1875 50.6418 51.7332 51.1875 52.4062 51.1875H67.0312C67.7043 51.1875 68.25 50.6418 68.25 49.9688C68.25 49.2957 67.7043 48.75 67.0312 48.75Z" fill="#FF7D14"/>
<path d="M32.9062 69.4688H3.65625C2.68655 69.4688 1.75657 69.0835 1.07089 68.3979C0.385211 67.7122 0 66.7822 0 65.8125L0 52.4062H36.5625V65.8125C36.5625 66.7822 36.1773 67.7122 35.4916 68.3979C34.8059 69.0835 33.8759 69.4688 32.9062 69.4688Z" fill="#FF640A"/>
<path d="M32.9062 45.1364H3.65625C2.31006 45.1364 1.21875 46.2277 1.21875 47.5739V52.4489C1.21875 53.7951 2.31006 54.8864 3.65625 54.8864H32.9062C34.2524 54.8864 35.3438 53.7951 35.3438 52.4489V47.5739C35.3438 46.2277 34.2524 45.1364 32.9062 45.1364Z" fill="#F5FCFC"/>
<path d="M32.9062 46.3125C33.2294 46.3128 33.5392 46.4413 33.7677 46.6698C33.9962 46.8983 34.1247 47.2081 34.125 47.5312V52.4062C34.1247 52.7294 33.9962 53.0392 33.7677 53.2677C33.5392 53.4962 33.2294 53.6247 32.9062 53.625H3.65625C3.33312 53.6247 3.02331 53.4962 2.79482 53.2677C2.56633 53.0392 2.43782 52.7294 2.4375 52.4062V47.5312C2.43782 47.2081 2.56633 46.8983 2.79482 46.6698C3.02331 46.4413 3.33312 46.3128 3.65625 46.3125H32.9062ZM32.9062 43.875H3.65625C2.68655 43.875 1.75657 44.2602 1.07089 44.9459C0.385211 45.6316 0 46.5616 0 47.5312L0 52.4062C0 53.3759 0.385211 54.3059 1.07089 54.9916C1.75657 55.6773 2.68655 56.0625 3.65625 56.0625H32.9062C33.8759 56.0625 34.8059 55.6773 35.4916 54.9916C36.1773 54.3059 36.5625 53.3759 36.5625 52.4062V47.5312C36.5625 46.5616 36.1773 45.6316 35.4916 44.9459C34.8059 44.2602 33.8759 43.875 32.9062 43.875Z" fill="#FF7D14"/>
<path d="M25.5938 48.75H10.9688C10.2957 48.75 9.75 49.2957 9.75 49.9688C9.75 50.6418 10.2957 51.1875 10.9688 51.1875H25.5938C26.2668 51.1875 26.8125 50.6418 26.8125 49.9688C26.8125 49.2957 26.2668 48.75 25.5938 48.75Z" fill="#FF640A"/>
<path d="M6.09375 56.0625H3.65625C3.65928 58.7443 4.3435 61.3813 5.64473 63.7263C6.94595 66.0712 8.82153 68.0471 11.0955 69.4688H19.5C15.9456 69.4649 12.5379 68.0512 10.0246 65.5379C7.5113 63.0246 6.09762 59.6169 6.09375 56.0625ZM18.2812 56.0625H15.8438C15.8468 58.7443 16.531 61.3813 17.8322 63.7263C19.1335 66.0712 21.009 68.0471 23.283 69.4688H31.6875C28.1331 69.4649 24.7254 68.0512 22.2121 65.5379C19.6988 63.0246 18.2851 59.6169 18.2812 56.0625ZM30.4688 56.0625H28.0312C28.0334 58.5918 28.6419 61.0837 29.8056 63.3293C30.9694 65.575 32.6545 67.5089 34.7198 68.9691C35.4468 68.5537 36.0088 67.9009 36.3114 67.1202C34.5117 65.8912 33.0389 64.2417 32.0208 62.3149C31.0027 60.388 30.4699 58.2418 30.4688 56.0625Z" fill="#FF7D14"/>
<path d="M3.65625 53.625H6.09375V56.0625H3.65625V53.625ZM15.8438 53.625H18.2812V56.0625H15.8438V53.625ZM28.0312 53.625H30.4688V56.0625H28.0312V53.625ZM3.65625 43.875H6.09375V46.3125H3.65625V43.875ZM28.0312 43.875H30.4688V46.3125H28.0312V43.875ZM34.125 48.75H36.5625V51.1875H34.125V48.75ZM0 48.75H2.4375V51.1875H0V48.75ZM15.8438 43.875H18.2812V46.3125H15.8438V43.875Z" fill="#FF9119"/>
<path d="M30.4688 37.7812H6.09375C4.47759 37.7812 2.92762 37.1392 1.78482 35.9964C0.642018 34.8536 0 33.3037 0 31.6875L0 18.2812H36.5625V31.6875C36.5625 33.3037 35.9205 34.8536 34.7777 35.9964C33.6349 37.1392 32.0849 37.7812 30.4688 37.7812Z" fill="#373737"/>
<path d="M30.4688 13.4489H6.09375C3.40136 13.4489 1.21875 15.6315 1.21875 18.3239C1.21875 21.0163 3.40136 23.1989 6.09375 23.1989H30.4688C33.1611 23.1989 35.3438 21.0163 35.3438 18.3239C35.3438 15.6315 33.1611 13.4489 30.4688 13.4489Z" fill="#F5FCFC"/>
<path d="M6.09383 12.1875C5.24316 12.1877 4.40195 12.3659 3.6243 12.7107C2.84666 13.0555 2.14981 13.5593 1.57859 14.1897C1.00736 14.82 0.574411 15.563 0.307588 16.3707C0.040765 17.1784 -0.0540212 18.0331 0.0293275 18.8797C0.22031 20.4145 0.971794 21.8246 2.13936 22.8389C3.30693 23.8533 4.80819 24.4004 6.35464 24.375H30.4688C32.085 24.375 33.635 23.733 34.7778 22.5902C35.9206 21.4474 36.5626 19.8974 36.5626 18.2812C36.5626 16.6651 35.9206 15.1151 34.7778 13.9723C33.635 12.8295 32.085 12.1875 30.4688 12.1875H6.09383ZM34.1251 18.2812C34.1251 19.2509 33.7399 20.1809 33.0542 20.8666C32.3685 21.5523 31.4385 21.9375 30.4688 21.9375H6.30101C5.33935 21.9567 4.40625 21.6102 3.69024 20.9679C2.97423 20.3257 2.5287 19.4356 2.44367 18.4775C2.41702 17.9816 2.49167 17.4855 2.66306 17.0194C2.83445 16.5533 3.09899 16.127 3.44054 15.7665C3.7821 15.406 4.19351 15.1189 4.64968 14.9226C5.10586 14.7264 5.59723 14.6251 6.09383 14.625H30.4688C31.4385 14.625 32.3685 15.0102 33.0542 15.6959C33.7399 16.3816 34.1251 17.3116 34.1251 18.2812Z" fill="#4D4D4D"/>
<path d="M22.5469 15.8438C25.2393 15.8438 27.4219 13.6611 27.4219 10.9688C27.4219 8.27636 25.2393 6.09375 22.5469 6.09375C19.8545 6.09375 17.6719 8.27636 17.6719 10.9688C17.6719 13.6611 19.8545 15.8438 22.5469 15.8438Z" fill="#FA5046"/>
<path d="M14.0156 15.8438C16.708 15.8438 18.8906 13.6611 18.8906 10.9688C18.8906 8.27636 16.708 6.09375 14.0156 6.09375C11.3232 6.09375 9.14062 8.27636 9.14062 10.9688C9.14062 13.6611 11.3232 15.8438 14.0156 15.8438Z" fill="#FF7D14"/>
<path d="M26.8125 21.9375C29.5049 21.9375 31.6875 19.7549 31.6875 17.0625C31.6875 14.3701 29.5049 12.1875 26.8125 12.1875C24.1201 12.1875 21.9375 14.3701 21.9375 17.0625C21.9375 19.7549 24.1201 21.9375 26.8125 21.9375Z" fill="#FF7D14"/>
<path d="M9.75 21.9375C12.4424 21.9375 14.625 19.7549 14.625 17.0625C14.625 14.3701 12.4424 12.1875 9.75 12.1875C7.05761 12.1875 4.875 14.3701 4.875 17.0625C4.875 19.7549 7.05761 21.9375 9.75 21.9375Z" fill="#FA5046"/>
<path d="M18.2812 21.9375C20.9736 21.9375 23.1562 19.7549 23.1562 17.0625C23.1562 14.3701 20.9736 12.1875 18.2812 12.1875C15.5889 12.1875 13.4062 14.3701 13.4062 17.0625C13.4062 19.7549 15.5889 21.9375 18.2812 21.9375Z" fill="#FF9119"/>
<path d="M22.5469 11.9438C23.8931 11.9438 24.9844 10.8525 24.9844 9.50626C24.9844 8.16006 23.8931 7.06876 22.5469 7.06876C21.2007 7.06876 20.1094 8.16006 20.1094 9.50626C20.1094 10.8525 21.2007 11.9438 22.5469 11.9438Z" fill="#FF695F"/>
<path d="M14.0156 11.9438C15.3618 11.9438 16.4531 10.8525 16.4531 9.50626C16.4531 8.16006 15.3618 7.06876 14.0156 7.06876C12.6694 7.06876 11.5781 8.16006 11.5781 9.50626C11.5781 10.8525 12.6694 11.9438 14.0156 11.9438Z" fill="#FF9119"/>
<path d="M26.8125 18.0375C28.1587 18.0375 29.25 16.9462 29.25 15.6C29.25 14.2538 28.1587 13.1625 26.8125 13.1625C25.4663 13.1625 24.375 14.2538 24.375 15.6C24.375 16.9462 25.4663 18.0375 26.8125 18.0375Z" fill="#FF9119"/>
<path d="M9.75 18.0375C11.0962 18.0375 12.1875 16.9462 12.1875 15.6C12.1875 14.2538 11.0962 13.1625 9.75 13.1625C8.40381 13.1625 7.3125 14.2538 7.3125 15.6C7.3125 16.9462 8.40381 18.0375 9.75 18.0375Z" fill="#FF695F"/>
<path d="M18.2812 18.0375C19.6274 18.0375 20.7188 16.9462 20.7188 15.6C20.7188 14.2538 19.6274 13.1625 18.2812 13.1625C16.9351 13.1625 15.8438 14.2538 15.8438 15.6C15.8438 16.9462 16.9351 18.0375 18.2812 18.0375Z" fill="#FFAA32"/>
<path d="M74.3438 37.7812H45.0938C44.1241 37.7812 43.1941 37.396 42.5084 36.7104C41.8227 36.0247 41.4375 35.0947 41.4375 34.125V20.7188H78V34.125C78 35.0947 77.6148 36.0247 76.9291 36.7104C76.2434 37.396 75.3134 37.7812 74.3438 37.7812Z" fill="#F5FCFC"/>
<path d="M74.3438 13.4062H45.0938C43.0745 13.4062 41.4375 15.0432 41.4375 17.0625V26.8125C41.4375 28.8318 43.0745 30.4688 45.0938 30.4688H74.3438C76.363 30.4688 78 28.8318 78 26.8125V17.0625C78 15.0432 76.363 13.4062 74.3438 13.4062Z" fill="#FFE078"/>
<path d="M74.3438 23.1562H45.0938C44.1241 23.1562 43.1941 22.771 42.5084 22.0854C41.8227 21.3997 41.4375 20.4697 41.4375 19.5V26.8125C41.4375 27.7822 41.8227 28.7122 42.5084 29.3979C43.1941 30.0835 44.1241 30.4688 45.0938 30.4688H74.3438C75.3134 30.4688 76.2434 30.0835 76.9291 29.3979C77.6148 28.7122 78 27.7822 78 26.8125V19.5C78 20.4697 77.6148 21.3997 76.9291 22.0854C76.2434 22.771 75.3134 23.1562 74.3438 23.1562Z" fill="#FFB700"/>
<path d="M74.3438 24.375H45.0938C44.1243 24.374 43.1949 23.9885 42.5095 23.303C41.824 22.6176 41.4385 21.6882 41.4375 20.7188V15.8438C41.4385 14.8743 41.824 13.9449 42.5095 13.2595C43.1949 12.574 44.1243 12.1885 45.0938 12.1875H74.3438C75.3132 12.1885 76.2426 12.574 76.928 13.2595C77.6135 13.9449 77.999 14.8743 78 15.8438V20.7188C77.999 21.6882 77.6135 22.6176 76.928 23.303C76.2426 23.9885 75.3132 24.374 74.3438 24.375ZM45.0938 14.625C44.7705 14.625 44.4605 14.7534 44.232 14.982C44.0034 15.2105 43.875 15.5205 43.875 15.8438V20.7188C43.875 21.042 44.0034 21.352 44.232 21.5805C44.4605 21.8091 44.7705 21.9375 45.0938 21.9375H74.3438C74.667 21.9375 74.977 21.8091 75.2055 21.5805C75.4341 21.352 75.5625 21.042 75.5625 20.7188C75.5625 20.3955 75.4341 20.0855 75.2055 19.857C74.977 19.6284 74.667 19.5 74.3438 19.5H51.1875C50.8643 19.5 50.5543 19.3716 50.3257 19.143C50.0972 18.9145 49.9688 18.6045 49.9688 18.2812C49.9688 17.958 50.0972 17.648 50.3257 17.4195C50.5543 17.1909 50.8643 17.0625 51.1875 17.0625H74.3438C74.7588 17.0619 75.171 17.1319 75.5625 17.2697V15.8438C75.5625 15.5205 75.4341 15.2105 75.2055 14.982C74.977 14.7534 74.667 14.625 74.3438 14.625H45.0938Z" fill="#FFCB1E"/>
<path d="M54.8438 12.1875H64.5938V37.7812H54.8438V12.1875Z" fill="#4D4D4D"/>
<path d="M54.8438 24.375H64.5938V37.7812H54.8438V24.375Z" fill="#373737"/>
</g>
<defs>
<clipPath id="clip0_2217_4041">
<rect width="78" height="78" fill="white"/>
</clipPath>
</defs>
</svg>
