<svg width="67" height="67" viewBox="0 0 67 67" fill="none" xmlns="http://www.w3.org/2000/svg">
<g clip-path="url(#clip0_2217_4352)">
<path d="M62.0216 15.9139C61.8346 15.6112 61.8431 15.2267 62.0368 14.928L63.9214 12.0236C64.1736 11.6349 64.2848 11.1714 64.2363 10.7106C64.1877 10.2497 63.9825 9.81953 63.6548 9.49187L57.5079 3.34488C57.1802 3.01723 56.75 2.81199 56.2892 2.76347C55.8283 2.71496 55.3648 2.8261 54.9761 3.07832L52.0717 4.96296C51.7732 5.15663 51.3886 5.16514 51.0858 4.97814C46.0096 1.84223 40.2777 0.188032 34.5098 0.0151672C26.2772 0.262753 18.1184 3.52822 11.8348 9.81182C0.634278 21.0126 -0.976994 38.1713 7.00124 51.086C7.18824 51.3887 7.17973 51.7733 6.98606 52.0719L5.10142 54.9764C4.8492 55.3651 4.73806 55.8286 4.78657 56.2894C4.83509 56.7502 5.04033 57.1804 5.36798 57.5081L11.515 63.6551C11.6399 63.7801 11.7807 63.8882 11.9337 63.9766C11.9641 63.9591 11.994 63.9409 12.0238 63.9217L14.9282 62.037C15.2267 61.8433 15.6113 61.8348 15.9141 62.0218C28.8288 69.9999 45.9875 68.3888 57.1882 57.1882C68.3885 45.9875 69.9998 28.8287 62.0216 15.9139Z" fill="#505559"/>
<path d="M7.39101 57.5083C7.06336 57.1807 6.85812 56.7505 6.8096 56.2896C6.76108 55.8288 6.87223 55.3653 7.12445 54.9766L9.00909 52.0722C9.20276 51.7737 9.21126 51.3891 9.02427 51.0863C1.04616 38.1715 2.65743 21.0127 13.8581 9.81218C19.8844 3.78585 27.6355 0.535432 35.5224 0.0610669C26.288 -0.494039 16.8677 2.75625 9.81191 9.81218C-1.38874 21.0128 -2.99988 38.1715 4.97823 51.0863C5.16522 51.389 5.15672 51.7736 4.96305 52.0722L3.07841 54.9766C2.8262 55.3653 2.71506 55.8289 2.76358 56.2897C2.8121 56.7505 3.01733 57.1808 3.34497 57.5085L9.49196 63.6554C9.81962 63.9831 10.2498 64.1883 10.7106 64.2369C11.1715 64.2854 11.635 64.1742 12.0237 63.922L13.1038 63.2211L7.39101 57.5083Z" fill="#373C42"/>
<path d="M34.006 62.8219C49.9231 62.8219 62.8265 49.694 62.8265 33.5C62.8265 17.3059 49.9231 4.17807 34.006 4.17807C18.0889 4.17807 5.18555 17.3059 5.18555 33.5C5.18555 49.694 18.0889 62.8219 34.006 62.8219Z" fill="#FCD258"/>
<path d="M8.22 33.5C8.22 17.9836 20.2704 5.28173 35.5232 4.24244C18.4892 3.08211 4.17383 16.5754 4.17383 33.5C4.17383 50.4376 18.5015 63.9171 35.5232 62.7575C20.2704 61.7182 8.22 49.0164 8.22 33.5Z" fill="#F9B044"/>
<path d="M20.4075 30.2413C21.252 26.244 23.9677 22.9369 27.5952 21.2797C28.7884 20.6094 30.0822 20.1369 31.4264 19.8803C28.7615 18.2374 25.9728 17.4485 23.5909 17.6279C22.3173 17.7239 21.0671 17.2496 20.1639 16.3466L4.60809 0.790655C3.89399 0.0765554 2.8793 -0.153757 1.97127 0.0995866C1.88844 0.165016 1.80848 0.235811 1.73206 0.312233C0.677855 1.36644 0.677855 3.07559 1.73206 4.12992L17.288 19.6858C18.1912 20.5889 18.6653 21.8393 18.5693 23.1129C18.4058 25.2848 19.0472 27.7951 20.4075 30.2413Z" fill="#EBF3FF"/>
<path d="M21.674 23.5912C21.7699 22.3175 21.2957 21.0673 20.3926 20.1641L4.83669 4.60821C3.82083 3.59235 3.78393 1.96839 4.72586 0.908295L4.60821 0.790652C3.55401 -0.263551 1.84486 -0.263551 0.790652 0.790652C-0.263551 1.84486 -0.263551 3.55401 0.790652 4.60821L16.3464 20.1641C17.2496 21.0673 17.7237 22.3175 17.6278 23.5912C17.4381 26.1096 18.3308 29.0827 20.1712 31.8836C20.3201 29.9632 20.9046 28.102 21.8801 26.4412C21.6769 25.452 21.6061 24.4924 21.674 23.5912Z" fill="#DBEAFC"/>
<path d="M39.3563 27.2392C39.3422 25.447 39.8472 21.6193 44.2416 20.4673C44.7323 20.3387 45.2165 20.7099 45.2204 21.2171C45.2345 23.0093 44.7295 26.837 40.3351 27.989C39.8444 28.1176 39.3602 27.7464 39.3563 27.2392ZM15.0523 39.6877C16.7594 39.0169 20.2467 38.2404 22.8676 41.5649C23.2475 42.0468 23.0516 42.7592 22.4804 42.9836C20.7734 43.6544 17.2861 44.4309 14.6651 41.1065C14.2852 40.6245 14.4811 39.9121 15.0523 39.6877Z" fill="#A0D94C"/>
<path d="M30.662 38.4323C32.2293 38.4323 33.4999 37.1618 33.4999 35.5945C33.4999 34.0272 32.2293 32.7567 30.662 32.7567C29.0948 32.7567 27.8242 34.0272 27.8242 35.5945C27.8242 37.1618 29.0948 38.4323 30.662 38.4323Z" fill="#E94442"/>
<path d="M46.0683 43.4304C47.2252 43.4304 48.163 42.4926 48.163 41.3358C48.163 40.1789 47.2252 39.2411 46.0683 39.2411C44.9114 39.2411 43.9736 40.1789 43.9736 41.3358C43.9736 42.4926 44.9114 43.4304 46.0683 43.4304Z" fill="#E94442"/>
<path d="M37.2612 13.3718C38.418 13.3718 39.3558 12.434 39.3558 11.2771C39.3558 10.1202 38.418 9.18243 37.2612 9.18243C36.1043 9.18243 35.1665 10.1202 35.1665 11.2771C35.1665 12.434 36.1043 13.3718 37.2612 13.3718Z" fill="#E94442"/>
<path d="M32.3496 47.5914C31.4638 47.6862 30.6374 48.0821 30.0084 48.713C28.4829 50.2385 28.4829 52.712 30.0084 54.2376C30.6374 54.8685 31.4638 55.2644 32.3496 55.3592C33.2355 55.2645 34.0619 54.8685 34.6908 54.2376C36.2164 52.712 36.2164 50.2385 34.6908 48.713C34.0619 48.0821 33.2354 47.6862 32.3496 47.5914Z" fill="#E94442"/>
<path d="M33.9515 48.1325C32.4487 47.2213 30.4643 47.4148 29.1661 48.7129C27.6406 50.2385 27.6406 52.712 29.1661 54.2376C30.4643 55.5357 32.4487 55.7292 33.9515 54.8181C31.4485 53.3005 31.4383 49.6559 33.9515 48.1325Z" fill="#CF3636"/>
<path d="M33.9028 20.1319C33.9028 19.8637 33.7963 19.6064 33.6066 19.4167C33.4169 19.227 33.1596 19.1204 32.8913 19.1204C25.2979 19.1204 19.1203 25.2981 19.1203 32.8915C19.1203 33.4501 19.5731 33.9031 20.1318 33.9031C20.6906 33.9031 21.1434 33.4501 21.1434 32.8915C21.1434 26.4137 26.4135 21.1435 32.8913 21.1435C33.1596 21.1435 33.4169 21.0369 33.6066 20.8472C33.7963 20.6575 33.9028 20.4002 33.9028 20.1319ZM55.2497 33.039C55.8015 33.039 56.2604 32.5913 56.2604 32.0263C56.2604 31.3106 54.6194 29.048 51.9669 29.048C51.002 29.048 48.4462 29.5567 48.4462 30.7809C48.4462 31.3296 48.8891 31.7923 49.4599 31.7923C50.046 31.7923 50.5852 31.0718 51.9589 31.0718C54.1341 31.0716 54.0742 33.039 55.2497 33.039ZM22.6017 48.2062C22.0399 48.2062 21.5908 48.6637 21.5908 49.2167C21.5908 49.7716 21.5857 50.2895 21.3117 50.9704C20.3024 53.479 17.7544 52.0137 17.7544 53.7318C17.7544 54.4037 18.3265 54.7444 18.7649 54.7444C19.0104 54.7444 23.6212 54.4973 23.6212 49.4488C23.6213 48.1727 22.631 48.2062 22.6017 48.2062ZM46.48 49.3747C41.8183 49.3747 41.3245 53.8151 41.3245 54.4794C41.3245 54.7457 41.4295 55.0012 41.6167 55.1906C41.8039 55.3799 42.0583 55.4878 42.3245 55.4909C42.5908 55.4939 42.8475 55.3918 43.039 55.2068C43.2305 55.0217 43.3413 54.7686 43.3473 54.5024C43.3532 54.1411 43.583 51.3978 46.4801 51.3978C46.5609 51.3978 46.5928 51.3993 46.6221 51.3993C47.902 51.3993 48.0842 49.3747 46.48 49.3747Z" fill="#F9B044"/>
<path d="M12.7502 30.4141C12.2282 30.3055 11.6791 30.6367 11.5607 31.2073C11.4395 31.8676 11.9412 32.4171 12.5532 32.4171C13.1187 32.4171 13.5648 31.9555 13.5648 31.4055C13.5648 30.92 13.2137 30.5013 12.7502 30.4141Z" fill="#EBF3FF"/>
<path d="M9.48225 37.1564C10.0409 37.1564 10.4938 36.7035 10.4938 36.1448C10.4938 35.5862 10.0409 35.1333 9.48225 35.1333C8.92359 35.1333 8.4707 35.5862 8.4707 36.1448C8.4707 36.7035 8.92359 37.1564 9.48225 37.1564Z" fill="#EBF3FF"/>
<path d="M32.8951 26.2045C32.7619 26.204 32.63 26.2298 32.5069 26.2805C32.3837 26.3311 32.2718 26.4056 32.1776 26.4996C32.0833 26.5936 32.0085 26.7053 31.9575 26.8283C31.9066 26.9513 31.8804 27.0832 31.8805 27.2163C31.8805 27.7713 32.33 28.2279 32.8921 28.2279C33.438 28.2279 33.9036 27.7814 33.9036 27.2163C33.9036 26.6496 33.44 26.2045 32.8951 26.2045ZM37.8877 42.9816C37.2622 42.8592 36.6778 43.3343 36.6778 43.9743C36.6778 44.5274 37.128 44.9845 37.6894 44.9845C37.8221 44.9847 37.9536 44.9587 38.0764 44.908C38.1991 44.8573 38.3106 44.7829 38.4045 44.6891C38.4985 44.5953 38.573 44.4838 38.6239 44.3612C38.6747 44.2385 38.7009 44.1071 38.7009 43.9743C38.7009 43.5031 38.3785 43.0841 37.8877 42.9816ZM42.1646 35.5946C42.1648 35.4616 42.1387 35.3299 42.0878 35.207C42.0369 35.0841 41.9622 34.9725 41.8681 34.8786C41.7739 34.7846 41.6621 34.7103 41.5391 34.6597C41.416 34.6091 41.2842 34.5834 41.1512 34.584C40.5893 34.584 40.1415 35.0422 40.1415 35.5946C40.1415 36.1676 40.6118 36.6061 41.1531 36.6061C41.7775 36.6061 42.1646 36.0866 42.1646 35.5946ZM46.0691 13.5644C46.6378 13.5644 47.0806 13.102 47.0806 12.5529C47.0806 12.0073 46.637 11.5413 46.0689 11.5413C45.6049 11.5413 45.1818 11.858 45.0765 12.3546C44.9451 12.9945 45.4438 13.5644 46.0691 13.5644ZM26.5124 13.5644C27.0628 13.5644 27.5239 13.1166 27.5239 12.5529C27.5239 12.019 27.0947 11.5413 26.5124 11.5413C26.0446 11.5413 25.6252 11.8577 25.5198 12.3546C25.4072 12.9697 25.854 13.5644 26.5124 13.5644ZM52.3528 24.2828C52.9108 24.2828 53.3643 23.8286 53.3643 23.2713C53.3643 22.7729 53.0006 22.3643 52.5511 22.28C51.9337 22.1526 51.3413 22.6293 51.3413 23.2713C51.3413 23.8265 51.7926 24.2828 52.3528 24.2828ZM46.0691 36.0167C46.636 36.0167 47.0806 35.5518 47.0806 35.0052C47.0806 34.432 46.6098 33.9936 46.0689 33.9936C45.5301 33.9936 45.0562 34.4298 45.0562 35.0052C45.0562 35.551 45.5002 36.0167 46.0691 36.0167ZM55.2447 40.3248C54.7034 40.3248 54.2384 40.764 54.2384 41.3362C54.2384 41.8926 54.6897 42.3477 55.2499 42.3477C55.8207 42.3477 56.2614 41.8777 56.2614 41.3362C56.2612 41.203 56.2347 41.0711 56.1835 40.9482C56.1322 40.8252 56.0572 40.7136 55.9628 40.6196C55.8683 40.5257 55.7563 40.4513 55.6331 40.4007C55.5099 40.3501 55.3779 40.3243 55.2447 40.3248ZM51.4062 46.5571C50.8473 46.5571 50.3945 47.0155 50.3945 47.5686C50.3945 48.1317 50.8558 48.5802 51.406 48.5802C51.8588 48.5802 52.2906 48.2721 52.3987 47.7669C52.4277 47.6201 52.4238 47.4688 52.3873 47.3237C52.3508 47.1786 52.2827 47.0435 52.1878 46.9278C52.093 46.8122 51.9737 46.719 51.8385 46.6549C51.7034 46.5908 51.5557 46.5574 51.4062 46.5571Z" fill="#EBF3FF"/>
</g>
<defs>
<clipPath id="clip0_2217_4352">
<rect width="67" height="67" fill="white"/>
</clipPath>
</defs>
</svg>
