<svg width="88" height="68" viewBox="0 0 88 68" fill="none" xmlns="http://www.w3.org/2000/svg">
<path d="M78.4191 29.5295C68.7568 35.048 56.8096 35.048 47.1473 29.5295C43.3036 27.3317 42.2386 23.1105 44.1943 21.3001C46.1404 19.4605 49.4418 19.7316 51.9397 21.1258C58.6394 24.9501 66.9269 24.9501 73.6266 21.1258C76.1245 19.7413 79.426 19.4702 81.372 21.3001C83.3277 23.1105 82.2627 27.3317 78.4191 29.5295Z" fill="url(#paint0_linear_2217_4094)"/>
<path d="M78.4191 29.5295C68.7568 35.048 56.8096 35.048 47.1473 29.5295C43.3036 27.3317 42.2386 23.1105 44.1943 21.3001C46.1404 19.4605 49.4418 19.7316 51.9397 21.1258C58.6394 24.9501 66.9269 24.9501 73.6266 21.1258C76.1245 19.7413 79.426 19.4702 81.372 21.3001C83.3277 23.1105 82.2627 27.3317 78.4191 29.5295Z" fill="#FFB336"/>
<path d="M85.313 30.6333C71.9329 40.4408 53.6345 40.4408 40.2545 30.6333C37.8921 28.9003 37.35 25.9958 38.8022 24.5726C40.2641 23.1397 42.7911 23.3236 44.6306 24.65C55.416 32.5503 70.1612 32.5503 80.9465 24.65C82.7764 23.3236 85.3033 23.13 86.7652 24.5726C88.2175 25.9958 87.6753 28.9003 85.313 30.6333Z" fill="url(#paint1_linear_2217_4094)"/>
<path d="M75.0694 31.9016C72.0196 32.2308 72.3198 35.6194 69.1345 35.8324C65.9395 35.9873 65.8427 32.589 62.7833 32.6181C59.7239 32.589 59.6174 35.9873 56.4321 35.8324C53.2469 35.6194 53.5373 32.2308 50.4973 31.9016C49.1999 31.737 48.3673 32.2502 47.5928 32.8504C48.2705 33.0731 48.9385 33.3635 49.5582 33.7024C57.7295 38.369 67.8372 38.369 76.0085 33.7024C76.6281 33.3539 77.2962 33.0731 77.9739 32.8504C77.1993 32.2502 76.3667 31.737 75.0694 31.9016Z" fill="url(#paint2_linear_2217_4094)"/>
<path d="M81.8558 43.9649C70.0732 50.6936 55.4926 50.6936 43.71 43.9649C39.0144 41.2927 37.7268 36.1421 40.1085 33.925C42.4902 31.6788 46.508 32.0177 49.5578 33.712C57.7291 38.3785 67.8368 38.3785 76.0081 33.712C79.0578 32.0177 83.0757 31.6885 85.4574 33.925C87.8391 36.1324 86.5515 41.283 81.8558 43.9649Z" fill="url(#paint3_linear_2217_4094)"/>
<path d="M81.8558 43.9649C70.0732 50.6936 55.4926 50.6936 43.71 43.9649C39.0144 41.2927 37.7268 36.1421 40.1085 33.925C42.4902 31.6788 46.508 32.0177 49.5578 33.712C57.7291 38.3785 67.8368 38.3785 76.0081 33.712C79.0578 32.0177 83.0757 31.6885 85.4574 33.925C87.8391 36.1324 86.5515 41.283 81.8558 43.9649Z" fill="#FFB336"/>
<path d="M79.958 35.0771L82.5624 37.6815L83.8307 36.4132L80.7229 33.3247L79.958 35.0771Z" fill="url(#paint4_linear_2217_4094)"/>
<path d="M80.752 33.3539C80.6552 33.228 80.4616 33.228 80.3648 33.3539C80.1421 33.654 79.8032 34.1865 79.8032 34.5931C79.8032 35.2031 80.2679 35.3096 80.5487 35.3096C80.8295 35.3096 81.2942 35.2031 81.2942 34.5931C81.3136 34.1865 80.9747 33.6637 80.752 33.3539Z" fill="#FFE89E"/>
<path d="M41.3965 38.6691L44.2332 41.2928L45.4918 40.0245L42.384 36.9264L41.3965 38.6691Z" fill="url(#paint5_linear_2217_4094)"/>
<path d="M42.451 37.0232C42.3929 36.8779 42.1992 36.8295 42.0734 36.9263C41.7829 37.1684 41.3279 37.6041 41.2311 37.9913C41.0858 38.5819 41.5022 38.7949 41.7829 38.8724C42.0637 38.9401 42.5381 38.9498 42.6833 38.3592C42.7898 37.9623 42.5962 37.3717 42.451 37.0232Z" fill="#FFE89E"/>
<path d="M51.814 38.5432L54.399 41.1282L55.7447 39.8211L52.6175 36.7133L51.814 38.5432Z" fill="url(#paint6_linear_2217_4094)"/>
<path d="M52.665 36.7813C52.5876 36.636 52.3939 36.6167 52.2874 36.7328C52.026 37.0039 51.6291 37.488 51.5807 37.8946C51.5032 38.4949 51.9486 38.6692 52.2294 38.6982C52.5198 38.737 52.9845 38.6885 53.062 38.0786C53.1201 37.672 52.849 37.1104 52.665 36.7813Z" fill="#FFE89E"/>
<path d="M69.9956 41.835L72.5709 44.42L73.7231 43.2775L70.683 40.2762L69.9956 41.835Z" fill="url(#paint7_linear_2217_4094)"/>
<path d="M70.034 40.1213C70.0921 39.9761 70.2858 39.9276 70.4116 40.0245C70.7021 40.2665 71.1571 40.7022 71.2539 41.0894C71.3991 41.68 70.9828 41.893 70.7021 41.9705C70.4213 42.0382 69.9469 42.0479 69.8017 41.4573C69.6952 41.0604 69.8888 40.4698 70.034 40.1213Z" fill="#FFE89E"/>
<path d="M60.585 45.272L63.1797 47.886L64.448 46.6177L61.1562 43.4712L60.585 45.272Z" fill="url(#paint8_linear_2217_4094)"/>
<path d="M60.7788 43.5196C60.8563 43.3743 61.0499 43.355 61.1564 43.4712C61.4178 43.7422 61.8147 44.2263 61.8631 44.633C61.9406 45.2332 61.4952 45.4075 61.2145 45.4365C60.924 45.4753 60.4593 45.4269 60.3818 44.8169C60.3334 44.42 60.5948 43.8487 60.7788 43.5196Z" fill="#FFE89E"/>
<path d="M47.0698 23.3526L49.9066 25.9764L51.1749 24.7081L48.0574 21.6099L47.0698 23.3526Z" fill="url(#paint9_linear_2217_4094)"/>
<path d="M48.1253 21.7069C48.0672 21.5617 47.8735 21.5132 47.7477 21.6101C47.4572 21.8521 47.0022 22.2878 46.9054 22.675C46.7602 23.2656 47.1765 23.4786 47.4572 23.5561C47.738 23.6239 48.2124 23.6335 48.3576 23.0429C48.4641 22.646 48.2705 22.0554 48.1253 21.7069Z" fill="#FFE89E"/>
<path d="M59.1812 26.5768L61.7662 29.1618L63.1119 27.8547L59.9847 24.7469L59.1812 26.5768Z" fill="url(#paint10_linear_2217_4094)"/>
<path d="M60.0332 24.805C59.9557 24.6597 59.7621 24.6404 59.6556 24.7566C59.3942 25.0276 58.9973 25.5117 58.9488 25.9184C58.8714 26.5186 59.3168 26.6929 59.5975 26.7219C59.888 26.7607 60.3527 26.7123 60.4301 26.1023C60.4882 25.7054 60.2171 25.1438 60.0332 24.805Z" fill="#FFE89E"/>
<path d="M75.6216 24.0691L78.1969 26.6541L79.349 25.5117L76.309 22.5007L75.6216 24.0691Z" fill="url(#paint11_linear_2217_4094)"/>
<path d="M75.6595 22.3458C75.7176 22.2005 75.9112 22.1521 76.0371 22.2489C76.3276 22.491 76.7826 22.9267 76.8794 23.3139C77.0246 23.9045 76.6083 24.1175 76.3276 24.195C76.0468 24.2627 75.5724 24.2724 75.4272 23.6818C75.3207 23.2946 75.5143 22.6943 75.6595 22.3458Z" fill="#FFE89E"/>
<path d="M71.1576 31.6499C69.1244 31.6499 67.9626 30.8463 66.8299 30.0621C65.7358 29.3069 64.7096 28.5904 62.7926 28.6292H62.7732C60.866 28.5904 59.83 29.3069 58.736 30.0621C57.4483 30.9528 56.1123 31.8725 53.4788 31.5918H53.4595C50.8454 31.2142 49.7804 29.9846 48.7445 28.8034C47.8731 27.8062 47.0405 26.8574 45.1623 26.4121C44.8621 26.3443 44.6782 26.0442 44.746 25.744C44.8137 25.4439 45.1139 25.26 45.414 25.3277C47.6408 25.8505 48.667 27.0317 49.5771 28.0773C50.555 29.2004 51.407 30.1686 53.6047 30.4977C55.8121 30.7301 56.8771 30.004 58.097 29.152C59.2298 28.3678 60.5077 27.4867 62.7732 27.5255C65.0291 27.4867 66.3167 28.3678 67.4495 29.152C68.6791 29.9943 69.7344 30.7301 71.9418 30.4977C74.1395 30.1782 74.9915 29.2004 75.9694 28.0773C76.8795 27.0317 77.9057 25.8505 80.1325 25.3277C80.4326 25.26 80.7328 25.4439 80.8005 25.744C80.8683 26.0442 80.6843 26.3443 80.3842 26.4121C78.5253 26.8574 77.6927 27.8062 76.8214 28.8131C75.7854 29.9943 74.7204 31.2142 72.1064 31.6014H72.087C71.7578 31.6402 71.448 31.6499 71.1576 31.6499Z" fill="url(#paint12_linear_2217_4094)"/>
<path d="M59.8314 55.6639C58.8859 56.1006 57.7871 56.0312 56.8938 56.5168C55.3618 57.3345 55.1823 58.3932 50.9414 61.1351C47.1228 63.6309 43.0134 65.451 38.7453 66.5369C30.6252 68.602 22.5688 67.8378 15.1607 64.8481C12.9167 63.9338 10.255 62.908 8.30435 61.267C6.35947 59.6328 4.12709 58.5456 1.95356 57.3265C1.16634 56.883 0.29616 56.3292 0.0617317 55.3387C-0.496845 52.9892 2.96363 50.0426 7.39365 50.518C7.41681 50.5203 7.89627 50.568 7.91653 50.5806C8.86872 50.7091 10.0235 51.0332 11.3008 51.5984L11.3066 51.6052C11.3616 51.6211 11.3645 51.6257 11.4127 51.6541H11.4185C13.0566 52.3569 15.3893 53.8 17.012 54.7291C26.3467 60.1252 36.9741 59.3383 45.3074 54.0502C45.4425 53.9672 45.5717 53.8842 45.701 53.7943V53.7875C48.6097 51.9714 52.6808 48.1856 57.3645 48.9395C57.3858 48.9395 57.6491 48.9896 57.7929 49.0362C62.2017 50.021 62.9802 54.2151 59.8314 55.6639Z" fill="#FF9F00"/>
<path d="M60.9363 50.8226C60.1674 49.9026 58.7444 49.2225 57.7932 49.036C57.77 49.0224 57.7517 49.0155 57.7286 49.0224C57.6224 48.9883 57.5057 48.9655 57.3938 48.9462C52.9271 48.1331 48.8772 51.804 45.7013 53.7873V53.7941C44.7511 54.456 42.8361 55.4897 41.7942 55.9412C35.1414 58.9287 27.8992 59.0629 22.3414 57.1603H22.3289C17.7098 55.666 14.8397 53.1209 11.4188 51.6539H11.413C11.3648 51.6255 11.3619 51.6209 11.3069 51.605L11.3011 51.5982C10.9596 51.4469 10.6258 51.3059 10.2727 51.1831C5.68351 49.5171 1.84872 51.0398 0.449872 53.3574C-0.0498564 51.9166 0.64957 50.1641 1.7127 49.1952C2.83468 48.1831 4.26247 47.7965 5.60826 47.2699C8.41369 46.2089 11.2847 44.2552 14.0274 42.837C23.5637 37.9015 34.9774 37.6957 44.8852 42.4151H44.8909C45.3376 42.6289 45.7843 42.8507 46.2242 43.0929H46.231C49.9123 45.016 51.9113 47.1187 54.6675 47.7748C56.5448 48.2331 59.1293 47.9215 60.5195 49.9219C60.7019 50.1857 60.8427 50.4973 60.9363 50.8226Z" fill="#FF9F00"/>
<path d="M49.215 51.3902C47.8991 52.25 46.6295 53.2121 45.3078 54.0502C37.3527 59.0858 27.2414 59.9376 18.9033 55.7537C16.3545 54.4801 13.9571 52.7686 11.3784 51.6336C19.2699 44.443 35.6587 42.1094 49.215 51.3902Z" fill="#FFE797"/>
<path d="M60.9363 50.8227C60.5195 50.3246 59.9966 49.9573 59.4564 49.6662C55.7731 47.6885 51.8717 49.5411 48.4045 51.9383C48.5926 51.0308 49.1444 50.1722 49.8439 49.6798C50.9726 48.8838 52.3406 48.7928 53.6574 48.7655C42.7734 43.399 39.5078 41.2871 34.7034 40.4411C21.2841 38.0768 12.6266 45.0206 2.99964 50.0619C6.28261 49.0725 9.71703 50.1063 11.4121 51.654C11.25 51.5585 10.5747 51.2878 10.2737 51.1832C5.46741 49.441 1.7619 51.1832 0.449872 53.3576C-0.0498564 51.9167 0.64957 50.1643 1.7127 49.1954C2.83468 48.1832 4.26247 47.7966 5.60826 47.27C8.53428 46.1408 11.2133 44.2917 14.0274 42.8372C25.0851 37.1238 38.3868 37.83 48.9563 44.6931C50.8018 45.8917 52.6049 47.2837 54.6675 47.775C56.5448 48.2333 59.1293 47.9217 60.5195 49.922C60.7019 50.1859 60.8427 50.4975 60.9363 50.8227Z" fill="#E26C24" fill-opacity="0.313726"/>
<path d="M31.3982 44.2362C35.4772 43.9338 38.9761 47.4502 39.129 50.4812C39.283 53.5108 36.0012 54.2567 31.9222 54.5577C27.8421 54.8588 24.5096 54.6025 24.3556 51.5715C24.2015 48.5419 27.3181 44.5386 31.3982 44.2362Z" fill="#FFC700"/>
<path d="M39.129 50.3096C39.2843 53.4566 35.9237 54.2405 31.7522 54.5527C28.2674 54.8182 25.3081 54.6685 24.3501 52.7715C25.7705 53.3648 27.8648 53.3733 30.1892 53.2009C34.3595 52.8888 37.7213 52.1049 37.566 48.9578C37.4936 47.6471 36.8449 46.2459 35.7856 45.0876C37.7178 46.3589 39.0301 48.4253 39.129 50.3096Z" fill="#FF9F00"/>
<path opacity="0.52" d="M25.8745 48.9465C25.7115 48.7174 25.621 48.4083 25.623 48.0871C25.6249 47.7659 25.7192 47.4589 25.8851 47.2337C26.6007 46.2558 27.4794 45.5358 28.4438 45.1368C28.5543 45.092 28.6701 45.0776 28.7846 45.0945C28.8991 45.1115 29.01 45.1594 29.1111 45.2355C29.2122 45.3117 29.3014 45.4146 29.3737 45.5384C29.446 45.6621 29.4999 45.8044 29.5324 45.9569C29.5649 46.1095 29.5753 46.2694 29.563 46.4275C29.5508 46.5856 29.5161 46.7388 29.4609 46.8784C29.4058 47.018 29.3313 47.1412 29.2416 47.241C29.152 47.3409 29.049 47.4153 28.9385 47.4602C28.251 47.7472 27.6249 48.2626 27.1149 48.961C26.949 49.1862 26.7251 49.3112 26.4925 49.3085C26.2599 49.3057 26.0376 49.1755 25.8745 48.9465ZM24.9368 51.9761C24.828 51.9234 24.7278 51.8415 24.642 51.7353C24.5561 51.6291 24.4862 51.5005 24.4364 51.3569C24.3865 51.2134 24.3576 51.0577 24.3514 50.8987C24.3451 50.7397 24.3617 50.5806 24.4 50.4304C24.4377 50.2851 24.4789 50.1397 24.5228 49.998C24.6184 49.7139 24.7901 49.4921 25.0016 49.379C25.2132 49.266 25.4483 49.2705 25.6574 49.3917C25.8666 49.5129 26.0337 49.7412 26.1236 50.0289C26.2135 50.3165 26.2191 50.641 26.1394 50.9343C26.1091 51.0341 26.0811 51.1351 26.0552 51.2372C25.9778 51.5399 25.8165 51.7877 25.6068 51.9262C25.397 52.0648 25.1561 52.0827 24.9368 51.9761Z" fill="white"/>
<path d="M7.82789 52.4024C8.0411 52.3523 8.26105 52.3023 8.47619 52.3455C8.9682 52.4433 9.15921 52.988 8.83314 53.4429C8.5196 53.8796 7.47866 54.3038 7.00305 54.4482C6.74064 54.5278 6.46763 54.5892 6.2004 54.5415C5.60806 54.4346 5.24049 53.6863 5.64664 53.1154C6.05472 52.5434 7.25774 52.5354 7.82693 52.4024H7.82789ZM52.7986 51.2333C52.9626 51.1105 53.1363 50.9934 53.3282 50.9547C53.8299 50.8523 54.1155 51.3459 53.9119 51.8758C53.8212 52.1112 53.6591 52.2966 53.5019 52.4752C53.225 52.789 52.9231 53.1188 52.5439 53.1916C52.159 53.2644 51.6901 52.9323 51.7181 52.4388C51.7471 51.9247 52.4803 51.4721 52.7986 51.2333Z" fill="#EA8318"/>
<path d="M8.75148 50.7398C8.58072 50.7171 8.081 50.6443 7.91699 50.5806C8.20641 50.6193 8.46689 50.6761 8.75148 50.7398Z" fill="#FFC700"/>
<path opacity="0.5" d="M59.8318 55.664C58.8864 56.1007 57.7876 56.0313 56.8942 56.5169C55.8012 57.0969 54.7854 58.3444 53.7685 59.1268C42.6607 67.7298 28.5467 70.2693 15.1611 64.847C12.9172 63.9338 10.2555 62.908 8.30483 61.267C6.35995 59.6329 4.12757 58.5457 1.95404 57.3266C1.16682 56.8831 0.296641 56.3292 0.0622125 55.3387C-0.359373 53.5658 1.44659 51.9521 2.9178 51.2379C2.19426 51.9999 1.78328 53.1564 2.12962 54.1958C2.45859 55.159 3.29887 55.706 4.08609 56.1769C8.42253 58.7947 12.7879 61.4263 17.4408 63.1446C27.3582 66.8076 38.3927 66.0741 47.8991 61.1215C51.4947 59.2519 54.8616 56.8069 58.2111 54.3687C58.8806 53.8842 59.5907 53.3372 59.856 52.4638C60.2197 51.2584 59.527 49.8937 58.5806 49.2717C62.4154 50.6272 62.6816 54.3528 59.8318 55.664Z" fill="#E26C24"/>
<path d="M45.2936 50.1213C45.2386 50.3987 45.0234 50.6478 45.0813 50.9253C45.1296 51.2209 45.4643 51.3597 45.4962 51.669C45.5251 51.9635 45.2067 52.1705 44.9598 52.0864C44.7128 52.0136 44.516 51.7043 44.3906 51.5223L44.3443 51.4689C44.2666 51.5211 44.1767 51.5423 44.088 51.5293C43.9992 51.5162 43.9165 51.4697 43.8521 51.3966C43.7877 51.3235 43.7451 51.2277 43.7307 51.1237C43.7163 51.0197 43.7308 50.913 43.7722 50.8195C43.8339 50.6216 44.161 50.1178 44.2719 49.945C44.4185 49.713 44.598 49.4537 44.8392 49.4378C45.1209 49.4241 45.3621 49.7915 45.2936 50.1213ZM41.8832 53.1667C41.8312 53.4317 41.6266 53.6671 41.6807 53.9309C41.7279 54.213 42.0463 54.3449 42.0772 54.6394C42.1051 54.9203 41.8012 55.117 41.5659 55.0374C41.289 54.9544 41.0873 54.5666 40.9803 54.4495C40.9063 54.4995 40.8206 54.5198 40.736 54.5075C40.6514 54.4951 40.5725 54.4507 40.5112 54.381C40.4498 54.3112 40.4094 54.2199 40.3958 54.1207C40.3823 54.0215 40.3965 53.9198 40.4362 53.8309C40.494 53.6432 40.8057 53.1633 40.9118 52.9984C41.0507 52.7778 41.2205 52.5322 41.452 52.5162C41.7192 52.5026 41.9479 52.8529 41.8832 53.1667ZM15.498 50.6341C15.442 50.9128 15.2279 51.1607 15.2857 51.4382C15.334 51.7338 15.6687 51.8726 15.7006 52.1819C15.7324 52.498 15.332 52.7892 14.978 52.4935C14.8323 52.3889 14.7117 52.2058 14.595 52.0352L14.5487 51.9817C14.471 52.034 14.3811 52.0552 14.2924 52.0421C14.2037 52.0291 14.1209 51.9826 14.0565 51.9095C13.9921 51.8363 13.9495 51.7406 13.9351 51.6366C13.9207 51.5326 13.9353 51.4258 13.9766 51.3324C14.0384 51.1345 14.3654 50.6319 14.4763 50.4579C14.623 50.2259 14.8024 49.9666 15.0436 49.9507C15.3253 49.937 15.5665 50.3055 15.498 50.6341ZM23.063 47.8203C23.008 48.099 22.7929 48.3469 22.8508 48.6244C22.9 48.92 23.2347 49.0588 23.2676 49.3681C23.2965 49.6626 22.9781 49.8696 22.7302 49.7855C22.4832 49.7127 22.2864 49.4033 22.161 49.2214L22.1147 49.1679C22.037 49.2202 21.9471 49.2414 21.8584 49.2283C21.7697 49.2153 21.6869 49.1688 21.6225 49.0957C21.5581 49.0225 21.5155 48.9268 21.5011 48.8228C21.4867 48.7188 21.5013 48.612 21.5426 48.5186C21.6044 48.3219 21.9314 47.8181 22.0423 47.6441C22.189 47.4121 22.3684 47.1528 22.6096 47.1369C22.8913 47.1232 23.1315 47.4917 23.063 47.8203ZM22.2761 53.293C22.2356 53.4999 22.0755 53.6853 22.1179 53.8923C22.1546 54.1129 22.4045 54.2164 22.4286 54.4472C22.4498 54.6667 22.2125 54.8214 22.0282 54.7588C21.844 54.7042 21.6963 54.4734 21.6037 54.3381L21.569 54.2983C21.4069 54.4199 21.158 54.2983 21.1156 54.0742C21.0548 53.8388 21.2989 53.4988 21.515 53.1622C21.624 52.9882 21.7581 52.7949 21.9385 52.7835C22.1478 52.7721 22.3273 53.0473 22.2761 53.293ZM32.5611 56.3418C32.5264 56.5204 32.3884 56.6796 32.426 56.857C32.4569 57.0469 32.6711 57.1356 32.6923 57.3346C32.7116 57.537 32.4559 57.7247 32.2292 57.5348C32.1347 57.4665 32.0575 57.3494 31.9832 57.2402L31.9533 57.2061C31.8134 57.3107 31.5993 57.2061 31.5636 57.0128C31.5115 56.8115 31.7208 56.5192 31.907 56.2281C32.0006 56.0803 32.1154 55.9142 32.2707 55.904C32.4511 55.8949 32.6055 56.1314 32.5611 56.3418ZM39.6576 48.0288C39.6229 48.2073 39.484 48.3665 39.5226 48.5439C39.5534 48.7338 39.7676 48.8226 39.7888 49.0216C39.8081 49.2092 39.6026 49.3423 39.4444 49.2888C39.2862 49.2422 39.1589 49.0432 39.0798 48.9272L39.0489 48.8931C38.91 48.9977 38.6958 48.8931 38.6591 48.6997C38.608 48.4984 38.8173 48.205 39.0035 47.9151C39.0971 47.7672 39.2119 47.6 39.3672 47.5909C39.5476 47.5818 39.702 47.8184 39.6576 48.0288Z" fill="#049E5C"/>
<path d="M49.4864 51.3083C52.2841 48.5471 56.4198 47.8239 59.7771 49.5115C59.9247 49.5843 59.8292 49.8493 59.6825 49.7731C56.4073 48.1275 52.3709 48.8315 49.6407 51.5255C49.5182 51.6472 49.3638 51.4277 49.4864 51.3083ZM11.4231 51.8565C11.2591 51.8565 8.0774 49.9914 3.77086 51.132C3.62037 51.1775 3.55862 50.8966 3.71877 50.8546C6.30518 50.182 9.00308 50.4354 11.4665 51.5824C11.59 51.6404 11.5552 51.8565 11.4231 51.8565Z" fill="white"/>
<path opacity="0.52" d="M38.5561 59.5303C38.4877 59.2397 38.52 58.929 38.6459 58.6665C38.7719 58.404 38.9811 58.2111 39.2276 58.1304C42.5628 57.0411 45.7593 55.4306 48.7321 53.3416C48.841 53.2613 48.9624 53.2074 49.0892 53.1831C49.2161 53.1589 49.3457 53.1647 49.4706 53.2003C49.5955 53.2359 49.7131 53.3005 49.8165 53.3904C49.9199 53.4803 50.007 53.5937 50.0727 53.7238C50.1385 53.8539 50.1815 53.9982 50.1993 54.1482C50.217 54.2982 50.2092 54.4509 50.1763 54.5973C50.1433 54.7437 50.0859 54.8808 50.0074 55.0007C49.9289 55.1206 49.8308 55.2208 49.719 55.2954C46.5989 57.4876 43.2441 59.1781 39.7437 60.3219C39.4972 60.4025 39.2336 60.3644 39.0109 60.216C38.7882 60.0676 38.6246 59.8209 38.5561 59.5303Z" fill="white"/>
<path d="M60.1146 17.8715C59.9628 17.8715 59.8126 17.8416 59.6724 17.7836C59.5323 17.7255 59.4049 17.6404 59.2976 17.5332C59.1904 17.4259 59.1053 17.2985 59.0472 17.1584C58.9892 17.0182 58.9593 16.868 58.9593 16.7163C58.9593 16.0818 58.7936 15.8227 58.5192 15.3938C58.1796 14.863 57.7145 14.1364 57.7145 12.8256C57.7145 11.5151 58.1796 10.7883 58.5192 10.2575C58.7937 9.82861 58.9593 9.56966 58.9593 8.93506C58.9593 8.30075 58.7936 8.04181 58.5192 7.61287C58.1796 7.08223 57.7145 6.35564 57.7145 5.04499C57.7145 3.73464 58.1796 3.00805 58.5192 2.47742C58.7936 2.04847 58.9593 1.78968 58.9593 1.15523C58.9593 1.00351 58.9892 0.853284 59.0472 0.713117C59.1053 0.572949 59.1904 0.44559 59.2976 0.338314C59.4049 0.231037 59.5323 0.145944 59.6724 0.0878958C59.8126 0.0298473 59.9628 -1.99272e-05 60.1146 9.97488e-09C60.2663 -1.99242e-05 60.4165 0.0298462 60.5567 0.0878928C60.6969 0.145939 60.8242 0.23103 60.9315 0.338304C61.0388 0.445579 61.1239 0.572937 61.182 0.713105C61.24 0.853274 61.2699 1.00351 61.2699 1.15523C61.2699 2.46573 60.8049 3.19232 60.4653 3.72295C60.1909 4.15189 60.0252 4.41053 60.0252 5.04499C60.0252 5.67945 60.1909 5.93839 60.4653 6.36733C60.8049 6.89797 61.2699 7.6244 61.2699 8.93506C61.2699 10.2457 60.8049 10.9723 60.4653 11.5031C60.1907 11.932 60.0252 12.1908 60.0252 12.8256C60.0252 13.4603 60.1909 13.7193 60.4653 14.1484C60.8049 14.679 61.2699 15.4056 61.2699 16.7163C61.2699 17.0227 61.1481 17.3165 60.9315 17.5331C60.7148 17.7498 60.421 17.8715 60.1146 17.8715ZM68.6729 17.8715C68.5212 17.8715 68.3709 17.8416 68.2308 17.7836C68.0906 17.7255 67.9632 17.6404 67.856 17.5332C67.7487 17.4259 67.6636 17.2985 67.6055 17.1584C67.5475 17.0182 67.5176 16.868 67.5177 16.7163C67.5177 16.0818 67.3519 15.8227 67.0775 15.3938C66.7379 14.863 66.2729 14.1364 66.2729 12.8256C66.2729 11.5148 66.7379 10.7883 67.0775 10.2575C67.3521 9.82861 67.5177 9.56966 67.5177 8.93506C67.5177 8.30075 67.3519 8.04181 67.0775 7.61287C66.7379 7.08223 66.2727 6.35564 66.2727 5.04499C66.2727 4.89328 66.3026 4.74305 66.3606 4.60288C66.4187 4.46271 66.5038 4.33535 66.611 4.22808C66.7183 4.1208 66.8457 4.03571 66.9858 3.97766C67.126 3.91961 67.2762 3.88974 67.4279 3.88976C67.5797 3.88974 67.7299 3.91961 67.8701 3.97766C68.0103 4.0357 68.1376 4.12079 68.2449 4.22807C68.3522 4.33534 68.4373 4.4627 68.4954 4.60287C68.5534 4.74304 68.5833 4.89327 68.5833 5.04499C68.5833 5.67945 68.7491 5.93839 69.0235 6.36733C69.363 6.89797 69.8281 7.6244 69.8281 8.93506C69.8281 10.2457 69.363 10.9723 69.0235 11.5031C68.7489 11.932 68.5833 12.191 68.5833 12.8256C68.5833 13.4602 68.7491 13.7191 69.0235 14.1482C69.363 14.679 69.8281 15.4056 69.8281 16.7163C69.8281 16.868 69.7983 17.0182 69.7402 17.1584C69.6822 17.2985 69.5971 17.4259 69.4898 17.5332C69.3825 17.6404 69.2552 17.7255 69.115 17.7836C68.9748 17.8416 68.8246 17.8715 68.6729 17.8715ZM51.4006 17.8715C51.2489 17.8715 51.0987 17.8416 50.9585 17.7836C50.8184 17.7255 50.691 17.6404 50.5837 17.5332C50.4765 17.4259 50.3914 17.2985 50.3333 17.1584C50.2753 17.0182 50.2454 16.868 50.2454 16.7163C50.2454 16.0818 50.0797 15.8227 49.8052 15.3938C49.4657 14.863 49.0006 14.1364 49.0006 12.8256C49.0006 11.5148 49.4657 10.7883 49.8052 10.2575C50.0798 9.82861 50.2454 9.56966 50.2454 8.93506C50.2454 8.30075 50.0797 8.04181 49.8052 7.61287C49.4657 7.08223 49.0005 6.35564 49.0005 5.04499C49.0005 4.40689 49.5178 3.88976 50.1559 3.88976C50.794 3.88976 51.3111 4.40689 51.3111 5.04499C51.3111 5.67945 51.4768 5.93839 51.7513 6.36733C52.0908 6.89797 52.5559 7.6244 52.5559 8.93506C52.5559 10.2457 52.0908 10.9723 51.7513 11.5031C51.4767 11.932 51.3111 12.191 51.3111 12.8256C51.3111 13.4602 51.4768 13.7191 51.7513 14.1482C52.0908 14.679 52.5559 15.4056 52.5559 16.7163C52.5559 16.868 52.526 17.0182 52.468 17.1584C52.4099 17.2985 52.3248 17.4259 52.2176 17.5332C52.1103 17.6404 51.9829 17.7255 51.8428 17.7836C51.7026 17.8416 51.5524 17.8715 51.4006 17.8715Z" fill="#FDCB82"/>
<defs>
<linearGradient id="paint0_linear_2217_4094" x1="43.2363" y1="20" x2="82.33" y2="20" gradientUnits="userSpaceOnUse">
<stop stop-color="#FFE89E"/>
<stop offset="1" stop-color="#FF9003"/>
</linearGradient>
<linearGradient id="paint1_linear_2217_4094" x1="62.7837" y1="22.9516" x2="62.7837" y2="39.0126" gradientUnits="userSpaceOnUse">
<stop stop-color="#FF5C5C"/>
<stop offset="0.108" stop-color="#F55354"/>
<stop offset="1" stop-color="#A60B15"/>
</linearGradient>
<linearGradient id="paint2_linear_2217_4094" x1="62.7831" y1="31.0184" x2="62.7831" y2="38.2108" gradientUnits="userSpaceOnUse">
<stop stop-color="#CFE958"/>
<stop offset="0.137" stop-color="#C7E458"/>
<stop offset="0.345" stop-color="#B3D65A"/>
<stop offset="0.598" stop-color="#90BE5C"/>
<stop offset="0.883" stop-color="#619F5F"/>
<stop offset="1" stop-color="#4C9060"/>
</linearGradient>
<linearGradient id="paint3_linear_2217_4094" x1="38.9399" y1="32.3404" x2="86.6259" y2="32.3404" gradientUnits="userSpaceOnUse">
<stop stop-color="#FFE89E"/>
<stop offset="1" stop-color="#FF9003"/>
</linearGradient>
<linearGradient id="paint4_linear_2217_4094" x1="79.958" y1="33.3247" x2="83.8307" y2="33.3247" gradientUnits="userSpaceOnUse">
<stop stop-color="#FF9003"/>
<stop offset="1" stop-color="#FF9003" stop-opacity="0"/>
</linearGradient>
<linearGradient id="paint5_linear_2217_4094" x1="41.3965" y1="36.9264" x2="45.4918" y2="36.9264" gradientUnits="userSpaceOnUse">
<stop stop-color="#FF9003"/>
<stop offset="1" stop-color="#FF9003" stop-opacity="0"/>
</linearGradient>
<linearGradient id="paint6_linear_2217_4094" x1="51.814" y1="36.7133" x2="55.7447" y2="36.7133" gradientUnits="userSpaceOnUse">
<stop stop-color="#FF9003"/>
<stop offset="1" stop-color="#FF9003" stop-opacity="0"/>
</linearGradient>
<linearGradient id="paint7_linear_2217_4094" x1="69.9956" y1="40.2762" x2="73.7231" y2="40.2762" gradientUnits="userSpaceOnUse">
<stop stop-color="#FF9003"/>
<stop offset="1" stop-color="#FF9003" stop-opacity="0"/>
</linearGradient>
<linearGradient id="paint8_linear_2217_4094" x1="60.585" y1="43.4712" x2="64.448" y2="43.4712" gradientUnits="userSpaceOnUse">
<stop stop-color="#FF9003"/>
<stop offset="1" stop-color="#FF9003" stop-opacity="0"/>
</linearGradient>
<linearGradient id="paint9_linear_2217_4094" x1="47.0698" y1="21.6099" x2="51.1749" y2="21.6099" gradientUnits="userSpaceOnUse">
<stop stop-color="#FF9003"/>
<stop offset="1" stop-color="#FF9003" stop-opacity="0"/>
</linearGradient>
<linearGradient id="paint10_linear_2217_4094" x1="59.1812" y1="24.7469" x2="63.1119" y2="24.7469" gradientUnits="userSpaceOnUse">
<stop stop-color="#FF9003"/>
<stop offset="1" stop-color="#FF9003" stop-opacity="0"/>
</linearGradient>
<linearGradient id="paint11_linear_2217_4094" x1="75.6216" y1="22.5007" x2="79.349" y2="22.5007" gradientUnits="userSpaceOnUse">
<stop stop-color="#FF9003"/>
<stop offset="1" stop-color="#FF9003" stop-opacity="0"/>
</linearGradient>
<linearGradient id="paint12_linear_2217_4094" x1="44.7319" y1="25.3137" x2="80.8146" y2="25.3137" gradientUnits="userSpaceOnUse">
<stop stop-color="#FFE89E"/>
<stop offset="1" stop-color="#FF9003"/>
</linearGradient>
</defs>
</svg>
