<svg width="74" height="74" viewBox="0 0 74 74" fill="none" xmlns="http://www.w3.org/2000/svg">
<path d="M52.794 30.5649C53.5764 30.8869 54.2737 31.3854 54.8315 32.0215C54.9034 32.1037 54.9919 32.1695 55.0912 32.2148C55.1906 32.26 55.2984 32.2835 55.4075 32.2838C55.5274 32.2834 55.6456 32.2551 55.7527 32.2011C56.5286 31.8106 57.3849 31.6065 58.2536 31.6048C58.9819 31.6048 59.6953 31.7475 60.3738 32.0292C62.624 32.9625 63.9708 35.2231 63.7782 37.5894C64.216 37.057 64.6092 36.4894 64.9538 35.8925C67.6179 31.278 66.9193 25.8872 63.3932 23.8514C59.8672 21.8156 54.849 23.9061 52.185 28.5204C51.8761 29.0556 51.607 29.6128 51.3799 30.1874C51.8659 30.2502 52.3414 30.3772 52.794 30.5649Z" fill="#FED402"/>
<path d="M72.2358 33.2302C69.8305 30.825 65.6742 30.9337 62.1743 33.2314C62.833 33.8892 63.3149 34.7026 63.5754 35.5963C63.836 36.4899 63.8667 37.4349 63.6647 38.3436C63.6426 38.4418 63.6409 38.5434 63.6595 38.6423C63.6781 38.7412 63.7167 38.8352 63.7729 38.9187C63.8305 39.0043 63.9048 39.0775 63.9912 39.1338C64.0777 39.1901 64.1746 39.2285 64.2762 39.2466C64.7676 39.3343 65.2449 39.4878 65.6954 39.703C68.2153 40.9057 69.4637 43.9088 68.5372 46.5398C68.4694 46.7287 68.3916 46.9138 68.3042 47.0944C69.1486 46.5795 69.9283 45.9653 70.6267 45.265C74.3945 41.4974 75.1147 36.1092 72.2358 33.2302Z" fill="#FAC600"/>
<path d="M37.0414 33.966C37.4825 33.8432 37.9382 33.7809 38.3961 33.7808C39.0803 33.7808 39.7485 33.9184 40.3822 34.1901C41.4766 34.6603 42.37 35.5015 42.9051 36.5657C42.9157 36.5868 42.9305 36.6056 42.9485 36.6208C42.9666 36.6361 42.9875 36.6475 43.0101 36.6545C43.0328 36.6614 43.0565 36.6637 43.08 36.6611C43.1035 36.6586 43.1263 36.6514 43.1469 36.6398C43.9039 36.2156 44.7569 35.9924 45.6246 35.9914C46.3088 35.9914 46.9771 36.1292 47.6114 36.4011C48.881 36.9456 49.851 37.9577 50.3426 39.2516C50.3518 39.276 50.3665 39.298 50.3854 39.316C50.4043 39.334 50.427 39.3476 50.4519 39.3557C50.4767 39.3637 50.5031 39.3662 50.529 39.3627C50.5549 39.3593 50.5796 39.3501 50.6015 39.3358C51.6915 38.6217 52.9662 38.2413 54.2693 38.2415C55.1751 38.2415 56.0601 38.4241 56.8998 38.7841C60.2884 40.2373 61.8634 44.1762 60.4105 47.5653C60.187 48.0824 59.8992 48.5693 59.5538 49.0144C59.534 49.0403 59.5217 49.0712 59.5185 49.1037C59.5153 49.1362 59.5212 49.1689 59.5355 49.1982C59.5499 49.2275 59.5722 49.2522 59.5999 49.2695C59.6275 49.2869 59.6595 49.2961 59.6922 49.2962H66.7166C67.6339 48.6161 68.3257 47.6761 68.7025 46.5981C69.6643 43.8671 68.3841 40.7926 65.7709 39.5455C65.3064 39.3234 64.8139 39.165 64.307 39.0748C63.9812 39.0169 63.7642 38.7048 63.8357 38.3818C64.4241 35.7242 63.0425 32.9472 60.4409 31.8681C58.8395 31.204 57.1096 31.322 55.674 32.0456C55.5569 32.105 55.4233 32.1236 55.2945 32.0984C55.1656 32.0732 55.0489 32.0057 54.9628 31.9066C54.3866 31.2512 53.6675 30.737 52.8609 30.4038C50.7 29.5076 48.305 30.0352 46.7157 31.5539C46.6149 31.6491 46.483 31.7044 46.3444 31.7096C46.2059 31.7148 46.0702 31.6695 45.9626 31.582C45.438 31.1541 44.8416 30.8227 44.2012 30.6032C41.4911 29.6706 38.4511 30.9331 37.2019 33.5125C37.1285 33.664 37.0643 33.8173 37.0054 33.9714C37.0174 33.97 37.0297 33.9691 37.0414 33.966Z" fill="#FFE5C2"/>
<path d="M10.3981 28.1929L19.5797 32.3226C19.6418 32.0706 19.7241 31.824 19.826 31.5852C20.249 30.597 20.9861 29.7758 21.923 29.2489L15.8073 21.3344C15.5188 20.9611 14.9211 21.1709 14.9295 21.6427L15.0031 25.8676C15.0051 25.9806 14.968 26.0909 14.8979 26.1797C14.8279 26.2685 14.7294 26.3303 14.619 26.3547L10.4932 27.2677C10.0326 27.3693 9.96777 27.9993 10.3981 28.1929Z" fill="#FF8F53"/>
<path d="M56.9693 38.6232C54.7761 37.6828 52.3649 37.975 50.5065 39.1893C50.0206 37.9105 49.0375 36.8221 47.6807 36.2404C46.1272 35.5743 44.4305 35.7203 43.0619 36.4873C42.5102 35.3849 41.5853 34.514 40.4517 34.0296C39.3599 33.5598 38.1401 33.4779 36.9953 33.7975C36.5868 32.3192 35.5357 31.0331 34.0165 30.3817C32.2067 29.6057 30.2019 29.9313 28.7488 31.0583C28.2059 30.0738 27.3494 29.2991 26.3155 28.8575C23.7447 27.7551 20.7671 28.9456 19.6648 31.5164C18.8129 33.5034 19.3315 35.7326 20.7976 37.1519C21.3762 36.9266 21.9916 36.8102 22.6126 36.8087C23.0818 36.8087 23.5506 36.8748 24.0059 37.0052C25.489 37.4301 26.6814 38.4921 27.2773 39.9188C27.2953 39.9615 27.3295 39.9953 27.3724 40.0129C27.4153 40.0304 27.4634 40.0303 27.5062 40.0125C28.1237 39.7524 28.7871 39.6185 29.4571 39.6187C30.2857 39.6194 31.1014 39.8236 31.8325 40.2134C32.5636 40.6033 33.1878 41.1667 33.65 41.8544C33.6632 41.874 33.6802 41.8907 33.7 41.9036C33.7199 41.9164 33.7421 41.9251 33.7654 41.9292C33.7887 41.9332 33.8125 41.9325 33.8355 41.927C33.8585 41.9216 33.8802 41.9116 33.8992 41.8975C34.7663 41.2561 35.8341 40.9029 36.9056 40.9029C37.3744 40.9029 37.8431 40.969 38.2982 41.0993C39.6263 41.48 40.7159 42.3622 41.366 43.5836C41.3783 43.6067 41.3956 43.6267 41.4166 43.6423C41.4377 43.6578 41.4619 43.6684 41.4876 43.6733C41.5133 43.6783 41.5398 43.6773 41.5651 43.6707C41.5904 43.664 41.6138 43.6518 41.6338 43.6348C42.8464 42.6035 44.3859 42.0353 45.969 42.0353C46.5897 42.0353 47.21 42.1229 47.8126 42.2954C50.8242 43.1583 52.8353 46.0126 52.6467 49.1215V49.2964H59.5585C59.9735 48.7933 60.3146 48.2336 60.5716 47.6343C62.0651 44.1508 60.4522 40.1167 56.9693 38.6232Z" fill="#FF8F53"/>
<path d="M10.1265 39.8153C10.429 38.7591 11.0741 37.8652 11.9178 37.2386L4.85068 30.1511C4.51757 29.8171 3.95101 30.1004 4.01851 30.5673L4.62283 34.7493C4.63901 34.8612 4.61601 34.9752 4.55772 35.0721C4.49944 35.169 4.40945 35.2428 4.30301 35.2809L0.324865 36.7053C-0.119288 36.8643 -0.10425 37.4976 0.346898 37.6354L9.97243 40.577C10.0037 40.3194 10.0552 40.0647 10.1265 39.8153Z" fill="#F95915"/>
<path d="M13.4325 46.0305C14.1313 46.2313 14.8652 46.2786 15.5839 46.1692C15.4453 47.246 15.647 48.3392 16.1608 49.2957H52.809C53.0804 46.095 51.0651 43.0447 47.8605 42.1267C45.5665 41.4695 43.2111 42.0625 41.5203 43.5009C40.8773 42.2933 39.7654 41.3373 38.3462 40.9308C36.7214 40.4653 35.0565 40.8234 33.795 41.7565C33.1092 40.7322 32.082 39.9845 30.8965 39.6466C29.7543 39.3178 28.534 39.3899 27.4384 39.8508C26.8472 38.4357 25.6429 37.2919 24.0537 36.8367C22.1607 36.2945 20.2127 36.8696 18.9128 38.1702C18.2503 37.2619 17.3031 36.601 16.222 36.2927C13.5329 35.5224 10.7286 37.0778 9.95835 39.7669C9.18807 42.4559 10.7437 45.2602 13.4325 46.0305Z" fill="#F95915"/>
<path d="M26.6489 46.0792C27.3732 46.0792 27.9604 45.492 27.9604 44.7677C27.9604 44.0434 27.3732 43.4562 26.6489 43.4562C25.9246 43.4562 25.3374 44.0434 25.3374 44.7677C25.3374 45.492 25.9246 46.0792 26.6489 46.0792Z" fill="#FEA95C"/>
<path d="M31.8159 35.7847C32.5402 35.7847 33.1273 35.1975 33.1273 34.4732C33.1273 33.7489 32.5402 33.1617 31.8159 33.1617C31.0916 33.1617 30.5044 33.7489 30.5044 34.4732C30.5044 35.1975 31.0916 35.7847 31.8159 35.7847Z" fill="#FED2A4"/>
<path d="M24.996 35.9594C25.7204 35.9594 26.3075 35.3723 26.3075 34.648C26.3075 33.9237 25.7204 33.3365 24.996 33.3365C24.2717 33.3365 23.6846 33.9237 23.6846 34.648C23.6846 35.3723 24.2717 35.9594 24.996 35.9594Z" fill="#FED2A4"/>
<path d="M17.8232 44.2777C18.5475 44.2777 19.1347 43.6906 19.1347 42.9663C19.1347 42.242 18.5475 41.6548 17.8232 41.6548C17.0989 41.6548 16.5117 42.242 16.5117 42.9663C16.5117 43.6906 17.0989 44.2777 17.8232 44.2777Z" fill="#FEA95C"/>
<path d="M39.235 18.8928C39.0746 18.8928 38.9158 18.8612 38.7676 18.7998C38.6195 18.7385 38.4848 18.6485 38.3714 18.5351C38.258 18.4217 38.1681 18.2871 38.1067 18.1389C38.0453 17.9907 38.0138 17.8319 38.0138 17.6715C38.0138 17.0008 37.8386 16.7269 37.5485 16.2734C37.1895 15.7123 36.6979 14.9442 36.6979 13.5585C36.6979 12.1731 37.1895 11.4048 37.5485 10.8437C37.8387 10.3903 38.0138 10.1165 38.0138 9.44565C38.0138 8.7751 37.8386 8.50136 37.5485 8.04791C37.1895 7.48695 36.6979 6.71884 36.6979 5.33329C36.6979 3.94806 37.1895 3.17995 37.5485 2.61899C37.8386 2.16553 38.0138 1.89195 38.0138 1.22124C38.0138 1.06086 38.0453 0.902046 38.1067 0.753868C38.1681 0.605691 38.258 0.471054 38.3714 0.357647C38.4848 0.24424 38.6195 0.154284 38.7676 0.0929186C38.9158 0.0315529 39.0746 -2.1066e-05 39.235 1.05449e-08C39.3954 -2.10628e-05 39.5542 0.0315518 39.7024 0.0929155C39.8506 0.154279 39.9853 0.244232 40.0987 0.357637C40.2121 0.471042 40.3021 0.605678 40.3634 0.753856C40.4248 0.902034 40.4564 1.06085 40.4564 1.22124C40.4564 2.60663 39.9648 3.37474 39.6058 3.9357C39.3157 4.38916 39.1405 4.66257 39.1405 5.33329C39.1405 6.004 39.3157 6.27774 39.6058 6.73119C39.9648 7.29215 40.4564 8.0601 40.4564 9.44565C40.4564 10.8312 39.9648 11.5993 39.6058 12.1604C39.3156 12.6139 39.1405 12.8875 39.1405 13.5585C39.1405 14.2295 39.3157 14.5033 39.6058 14.9569C39.9648 15.5178 40.4564 16.286 40.4564 17.6715C40.4564 17.9954 40.3277 18.306 40.0986 18.5351C39.8696 18.7641 39.5589 18.8928 39.235 18.8928ZM48.2824 18.8928C48.122 18.8928 47.9632 18.8612 47.815 18.7998C47.6669 18.7385 47.5322 18.6485 47.4188 18.5351C47.3054 18.4217 47.2155 18.2871 47.1541 18.1389C47.0927 17.9907 47.0612 17.8319 47.0612 17.6715C47.0612 17.0008 46.886 16.7269 46.5959 16.2734C46.2369 15.7123 45.7453 14.9442 45.7453 13.5585C45.7453 12.1728 46.2369 11.4048 46.5959 10.8437C46.8861 10.3903 47.0612 10.1165 47.0612 9.44565C47.0612 8.7751 46.886 8.50136 46.5959 8.04791C46.2369 7.48695 45.7451 6.71884 45.7451 5.33329C45.7451 5.17291 45.7767 5.01409 45.838 4.86591C45.8994 4.71774 45.9893 4.5831 46.1028 4.46969C46.2162 4.35629 46.3508 4.26633 46.499 4.20496C46.6472 4.1436 46.806 4.11202 46.9663 4.11205C47.1267 4.11202 47.2856 4.1436 47.4337 4.20496C47.5819 4.26632 47.7166 4.35628 47.83 4.46968C47.9434 4.58309 48.0334 4.71772 48.0948 4.8659C48.1562 5.01408 48.1877 5.1729 48.1877 5.33329C48.1877 6.004 48.363 6.27774 48.6531 6.73119C49.012 7.29215 49.5037 8.0601 49.5037 9.44565C49.5037 10.8312 49.012 11.5993 48.6531 12.1604C48.3628 12.6139 48.1877 12.8876 48.1877 13.5585C48.1877 14.2294 48.363 14.5031 48.6531 14.9567C49.012 15.5178 49.5037 16.286 49.5037 17.6715C49.5037 17.8319 49.4721 17.9907 49.4107 18.1389C49.3494 18.2871 49.2594 18.4217 49.146 18.5351C49.0326 18.6485 48.898 18.7385 48.7498 18.7998C48.6016 18.8612 48.4428 18.8928 48.2824 18.8928ZM30.0232 18.8928C29.8628 18.8928 29.704 18.8612 29.5558 18.7998C29.4076 18.7385 29.273 18.6485 29.1596 18.5351C29.0462 18.4217 28.9562 18.2871 28.8948 18.1389C28.8335 17.9907 28.8019 17.8319 28.8019 17.6715C28.8019 17.0008 28.6267 16.7269 28.3366 16.2734C27.9776 15.7123 27.486 14.9442 27.486 13.5585C27.486 12.1728 27.9776 11.4048 28.3366 10.8437C28.6269 10.3903 28.8019 10.1165 28.8019 9.44565C28.8019 8.7751 28.6267 8.50136 28.3366 8.04791C27.9776 7.48695 27.4858 6.71884 27.4858 5.33329C27.4858 4.65872 28.0327 4.11205 28.7072 4.11205C29.3818 4.11205 29.9285 4.65872 29.9285 5.33329C29.9285 6.004 30.1037 6.27774 30.3938 6.73119C30.7528 7.29215 31.2444 8.0601 31.2444 9.44565C31.2444 10.8312 30.7528 11.5993 30.3938 12.1604C30.1035 12.6139 29.9285 12.8876 29.9285 13.5585C29.9285 14.2294 30.1037 14.5031 30.3938 14.9567C30.7528 15.5178 31.2444 16.286 31.2444 17.6715C31.2444 17.8319 31.2128 17.9907 31.1515 18.1389C31.0901 18.2871 31.0002 18.4217 30.8868 18.5351C30.7733 18.6485 30.6387 18.7385 30.4905 18.7998C30.3424 18.8612 30.1835 18.8928 30.0232 18.8928Z" fill="#FDCB82"/>
<path d="M32.2383 74.0001H52.4823C52.7584 74.0001 53.0327 73.9488 53.288 73.8434C63.2582 69.7269 70.3979 60.147 70.976 48.8341C71.0174 48.0241 70.3633 47.3477 69.5521 47.3477H15.1684C14.3574 47.3477 13.7032 48.024 13.7445 48.8341C14.3226 60.147 21.4624 69.7269 31.4326 73.8434C31.6883 73.9479 31.9621 74.0011 32.2383 74.0001Z" fill="#A7C9E3"/>
<path d="M19.9128 54.0499H14.4956C16.6494 63.0367 23.0375 70.377 31.4329 73.8435C31.6886 73.948 31.9624 74.0012 32.2386 74.0002H37.6557C37.3796 74.0002 37.1053 73.9489 36.8501 73.8435C28.4547 70.3772 22.0665 63.0367 19.9128 54.0499Z" fill="#C4E2FF"/>
<path d="M69.5521 47.3477H15.1684C14.3574 47.3477 13.7032 48.024 13.7445 48.8341C13.8339 50.592 14.0852 52.338 14.4953 54.0498H70.2253C70.6353 52.338 70.8866 50.592 70.976 48.8341C71.0174 48.0241 70.3632 47.3477 69.5521 47.3477Z" fill="#EAF6FF"/>
<path d="M13.7445 48.8341C13.8339 50.592 14.0852 52.338 14.4953 54.0498H19.9124C19.5024 52.338 19.2511 50.592 19.1617 48.8341C19.1203 48.0241 19.7745 47.3477 20.5856 47.3477H15.1684C14.3574 47.3477 13.7032 48.0241 13.7445 48.8341Z" fill="#D8ECFE"/>
</svg>
