<svg width="77" height="77" viewBox="0 0 77 77" fill="none" xmlns="http://www.w3.org/2000/svg">
<g clip-path="url(#clip0_2217_3956)">
<path d="M33.0354 44.004L63.0756 34.2572L70.1089 32.4254C75.0724 51.4436 63.6617 70.8809 44.6222 75.8399C25.5828 80.7989 6.12458 69.4018 1.16094 50.3836C-3.80269 31.3653 7.60818 11.928 26.6476 6.96904C32.7901 5.36923 38.9762 5.47164 44.705 6.98329L42.8638 13.9708L33.0354 44.004Z" fill="#F5A26A"/>
<path d="M63.0755 34.2573C63.6685 36.5405 63.9841 38.9357 63.9841 41.4045C63.9841 57.0613 51.2917 69.7536 35.635 69.7536C19.9782 69.7536 7.28564 57.0613 7.28564 41.4045C7.28564 25.7476 19.9779 13.0553 35.6348 13.0553C38.0265 13.0553 40.6451 13.4132 42.8637 13.9709L35.6348 41.4046L63.0755 34.2573Z" fill="#FFDB63"/>
<path d="M36.6665 13.9709L28.981 43.1377L35.6349 41.4046L42.8637 13.9709C40.6451 13.4133 38.0265 13.0553 35.6349 13.0553C34.5714 13.0553 33.5224 13.1159 32.4893 13.2299C33.935 13.3878 35.3692 13.6448 36.6665 13.9709ZM63.0755 34.2573L57.2266 35.7807C57.5995 37.6321 57.7872 39.5159 57.787 41.4045C57.787 56.014 46.7353 68.0407 32.5364 69.5845C33.5655 69.6968 34.5999 69.7532 35.635 69.7536C51.2919 69.7536 63.9842 57.0612 63.9842 41.4045C63.984 38.9357 63.6684 36.5406 63.0755 34.2573Z" fill="#FFD205"/>
<path d="M77 25.063C73.8255 13.1106 64.2492 3.38134 52.3549 0L42.5674 34.2241L77 25.063Z" fill="#F5A26A"/>
<path d="M52.9678 7.95531C52.1698 7.64051 51.3581 7.36162 50.5351 7.11947L50.3286 7.08569L42.5674 34.2241L69.9392 26.9416C67.6785 18.5892 61.6363 11.3738 52.9678 7.95531Z" fill="#FFDB63"/>
<path d="M63.6864 28.6053L69.9395 26.9416C67.6786 18.5892 61.6363 11.3738 52.9679 7.95531C52.1699 7.64051 51.3582 7.36162 50.5352 7.11947L50.3287 7.08569L49.2314 10.9224C56.5176 14.6207 61.6109 21.1494 63.6864 28.6053Z" fill="#FFD205"/>
<path d="M18.7096 35.4603C20.9483 35.4088 22.7214 33.5542 22.67 31.318C22.6186 29.0818 20.762 27.3107 18.5233 27.3622C16.2846 27.4136 14.5114 29.2682 14.5629 31.5045C14.6143 33.7407 16.4708 35.5118 18.7096 35.4603Z" fill="#F54C5A"/>
<path d="M21.2672 59.0312C23.5059 58.9797 25.2791 57.1252 25.2276 54.8889C25.1762 52.6527 23.3196 50.8816 21.0809 50.9331C18.8422 50.9846 17.069 52.8391 17.1205 55.0754C17.1719 57.3116 19.0284 59.0827 21.2672 59.0312Z" fill="#F54C5A"/>
<path d="M58.4225 35.4692C58.9872 37.6331 57.6889 39.8448 55.5227 40.409C53.3565 40.9733 51.1424 39.6765 50.5776 37.5126" fill="#F54C5A"/>
<path d="M47.2638 61.9965C49.5025 61.945 51.2756 60.0904 51.2242 57.8542C51.1728 55.618 49.3162 53.8469 47.0775 53.8983C44.8388 53.9498 43.0656 55.8044 43.1171 58.0407C43.1685 60.2769 45.025 62.048 47.2638 61.9965Z" fill="#F54C5A"/>
<path d="M38.3781 30.8517C36.4954 30.952 34.7385 29.7225 34.2444 27.8291C33.6797 25.6652 34.978 23.4536 37.1442 22.8893C37.6592 22.7544 38.1958 22.7226 38.7231 22.7955C39.2504 22.8685 39.7582 23.0448 40.2172 23.3144" fill="#F54C5A"/>
<path d="M28.5204 26.3063C28.3176 26.3065 28.1182 26.2536 27.9422 26.1528C27.7662 26.0521 27.6196 25.907 27.5171 25.7319L24.5806 20.7251C24.4247 20.4593 24.3807 20.1424 24.4584 19.8442C24.5362 19.5459 24.7292 19.2908 24.995 19.1349C25.2608 18.979 25.5777 18.935 25.8759 19.0128C26.1742 19.0905 26.4293 19.2835 26.5852 19.5493L29.5217 24.5562C29.6253 24.7326 29.6804 24.9333 29.6815 25.1379C29.6827 25.3425 29.6298 25.5438 29.5282 25.7213C29.4265 25.8989 29.2799 26.0465 29.1029 26.1493C28.926 26.252 28.725 26.3061 28.5204 26.3063ZM27.0453 40.9522C26.8089 40.9523 26.5781 40.8803 26.3836 40.7457C26.1892 40.6112 26.0405 40.4205 25.9573 40.1992C25.8741 39.9779 25.8603 39.7365 25.918 39.5071C25.9756 39.2778 26.1018 39.0715 26.2797 38.9158L30.6496 35.092C30.7644 34.9915 30.8979 34.9146 31.0425 34.8657C31.187 34.8167 31.3398 34.7968 31.4921 34.8069C31.6443 34.8171 31.7931 34.8571 31.9299 34.9248C32.0667 34.9924 32.1888 35.0864 32.2892 35.2012C32.4922 35.4332 32.5947 35.7362 32.5742 36.0437C32.5537 36.3512 32.4119 36.6379 32.18 36.8409L27.8101 40.6647C27.5986 40.8503 27.3267 40.9525 27.0453 40.9522ZM34.5147 65.0748C34.2612 65.0746 34.0147 64.9915 33.8128 64.8382C33.6108 64.6849 33.4646 64.4699 33.3962 64.2258L31.832 58.6371C31.749 58.3404 31.7872 58.0227 31.9383 57.7542C32.0894 57.4856 32.3411 57.288 32.6378 57.205C32.9346 57.1219 33.2522 57.1601 33.5208 57.3112C33.7894 57.4624 33.9869 57.714 34.07 58.0108L35.6342 63.5994C35.6826 63.7721 35.6903 63.9537 35.6568 64.13C35.6232 64.3062 35.5494 64.4723 35.4409 64.6152C35.3325 64.7581 35.1924 64.8739 35.0317 64.9537C34.871 65.0334 34.694 65.0749 34.5147 65.0748ZM42.1366 47.3899C41.8356 47.3901 41.5464 47.2737 41.3296 47.0649C41.1128 46.8562 40.9855 46.5715 40.9744 46.2708C40.9632 45.9701 41.0692 45.6768 41.27 45.4527C41.4707 45.2285 41.7506 45.091 42.0507 45.069L47.8439 44.6332C48.4854 44.585 49.0416 45.0648 49.0898 45.7048C49.138 46.3449 48.6582 46.9025 48.0182 46.9508L42.225 47.3866C42.1956 47.3888 42.1661 47.3899 42.1366 47.3899ZM36.4445 52.5241C36.2229 52.5241 36.0059 52.4605 35.8195 52.3408L30.9273 49.2115C30.671 49.044 30.4912 48.7821 30.4269 48.4827C30.3627 48.1833 30.4192 47.8707 30.5842 47.6128C30.7492 47.3548 31.0094 47.1725 31.3081 47.1053C31.6068 47.0381 31.92 47.0915 32.1796 47.254L37.0718 50.3833C37.2835 50.5187 37.4456 50.7192 37.5338 50.9546C37.622 51.19 37.6314 51.4476 37.5607 51.6888C37.49 51.9301 37.343 52.1419 37.1418 52.2925C36.9405 52.4431 36.6958 52.5243 36.4445 52.5241ZM14.2294 45.5036C13.9285 45.5039 13.6392 45.3874 13.4224 45.1787C13.2057 44.9699 13.0783 44.6853 13.0672 44.3846C13.0561 44.0839 13.1621 43.7906 13.3628 43.5664C13.5636 43.3422 13.8435 43.2047 14.1436 43.1828L19.9367 42.7469C20.0889 42.7355 20.2418 42.7541 20.3868 42.8018C20.5318 42.8495 20.6659 42.9252 20.7816 43.0247C20.8973 43.1242 20.9923 43.2456 21.0611 43.3818C21.1299 43.518 21.1712 43.6664 21.1827 43.8186C21.1941 43.9708 21.1755 44.1237 21.1278 44.2687C21.0801 44.4136 21.0044 44.5478 20.9049 44.6635C20.8054 44.7792 20.684 44.8742 20.5478 44.943C20.4116 45.0118 20.2632 45.0531 20.111 45.0645L14.3179 45.5003C14.2884 45.5024 14.2589 45.5035 14.2294 45.5036ZM54.6194 51.6159C54.4094 51.6157 54.2033 51.5586 54.0232 51.4507C53.843 51.3428 53.6955 51.188 53.5962 51.003C53.497 50.8179 53.4498 50.6093 53.4596 50.3996C53.4694 50.1898 53.5359 49.9866 53.652 49.8116L56.86 44.9734C57.0303 44.7166 57.2957 44.5379 57.5977 44.4767C57.8998 44.4155 58.2138 44.4768 58.4706 44.6471C58.7275 44.8175 58.9062 45.0828 58.9674 45.3849C59.0285 45.687 58.9672 46.0009 58.7969 46.2578L55.5889 51.0958C55.483 51.2559 55.3389 51.3872 55.1697 51.478C55.0005 51.5688 54.8114 51.6161 54.6194 51.6159ZM56.978 20.8497C56.733 20.8495 56.4942 20.7719 56.2959 20.6279C56.0976 20.484 55.9498 20.281 55.8737 20.048L54.0719 14.5296C53.9762 14.2367 54.0008 13.9177 54.1403 13.6429C54.2798 13.3681 54.5227 13.16 54.8157 13.0643C55.1086 12.9686 55.4276 12.9932 55.7024 13.1327C55.9772 13.2722 56.1853 13.5152 56.281 13.8081L58.0828 19.3265C58.1302 19.4716 58.1486 19.6246 58.1368 19.7767C58.125 19.9288 58.0834 20.0772 58.0144 20.2132C57.9453 20.3493 57.8501 20.4704 57.7342 20.5697C57.6183 20.6689 57.4839 20.7444 57.3389 20.7917C57.2224 20.8301 57.1006 20.8496 56.978 20.8497Z" fill="#81CDA1"/>
<path d="M47.8718 16.0676C50.0223 16.6816 51.2663 18.9242 50.6507 21.0763C50.035 23.2284 47.7925 24.4756 45.6421 23.8615M57.5069 29.8295C56.5781 28.1888 56.8956 26.0681 58.3703 24.7818C60.0557 23.3118 62.6142 23.4883 64.0848 25.1759C64.435 25.5768 64.7027 26.0429 64.8724 26.5475C65.0421 27.0521 65.1106 27.5852 65.0738 28.1163" fill="#F54C5A"/>
<path d="M41.5439 66.1825C41.8429 66.1825 41.8435 65.7177 41.5439 65.7177C41.2447 65.7177 41.2443 66.1825 41.5439 66.1825Z" fill="#060606"/>
</g>
<defs>
<clipPath id="clip0_2217_3956">
<rect width="77" height="77" fill="white"/>
</clipPath>
</defs>
</svg>
