<svg width="83" height="83" viewBox="0 0 83 83" fill="none" xmlns="http://www.w3.org/2000/svg">
<path d="M46.5149 51.8236C46.8498 51.9426 47.1803 52.0734 47.5059 52.2158C49.0529 51.3462 50.742 50.7578 52.4945 50.4781C52.7338 49.9182 52.8569 49.3155 52.8561 48.7066C52.8561 46.2163 50.8374 44.1975 48.3471 44.1975C47.6944 44.1975 47.0748 44.3372 46.5149 44.5867V51.8236ZM31.2723 54.9066C32.6004 53.6893 34.1368 52.7211 35.8081 52.0483C35.8162 51.9374 35.8219 51.8257 35.8219 51.7129C35.8219 49.2226 33.8031 47.2038 31.3128 47.2038C28.8225 47.2038 26.8037 49.2226 26.8037 51.7129C26.8037 51.8379 26.8102 51.9614 26.8201 52.084C28.4577 52.7574 29.9646 53.7128 31.2723 54.9066Z" fill="#FD4755"/>
<path d="M30.042 53.8965C29.6702 53.2288 29.4753 52.477 29.4758 51.7127C29.4758 49.6877 30.8109 47.9745 32.6487 47.405C32.2161 47.2712 31.7657 47.2033 31.3128 47.2037C28.8225 47.2037 26.8037 49.2224 26.8037 51.7127C26.8037 51.8377 26.8102 51.9613 26.8201 52.0838C27.9642 52.5539 29.0463 53.1627 30.042 53.8965Z" fill="#FB2B3A"/>
<path d="M36.1002 22.453C34.9319 22.453 33.9849 21.5059 33.9849 20.3376V38.4083C33.9849 39.5766 34.9319 40.5236 36.1002 40.5236C37.2686 40.5236 38.2156 39.5766 38.2156 38.4083V20.3376C38.2156 21.5059 37.2686 22.453 36.1002 22.453Z" fill="#FEDF74"/>
<path d="M40.3312 24.1543C39.1629 24.1543 38.2158 23.2073 38.2158 22.0389V51.307C39.2842 51.0737 40.3745 50.9562 41.4681 50.9563C41.7968 50.9563 42.123 50.968 42.4466 50.9889V22.0389C42.4466 23.2073 41.4993 24.1543 40.3312 24.1543Z" fill="#FAC600"/>
<path d="M44.5617 22.453C43.3933 22.453 42.4463 21.5059 42.4463 20.3376V50.9889C43.8922 51.0809 45.3172 51.3816 46.677 51.8818V20.3376C46.677 21.5059 45.7298 22.453 44.5617 22.453Z" fill="#FEDF74"/>
<path d="M80.596 13.3859H56.7201C55.9048 13.3859 55.1437 12.9869 54.6726 12.3218C53.9119 11.248 52.6601 10.5468 51.2439 10.5468H46.5151V20.9009H51.2439C52.6601 20.9009 53.9119 20.1998 54.6726 19.126C55.1439 18.4609 55.905 18.0619 56.7201 18.0619H80.662C81.9908 18.0619 83.0606 16.9536 82.9974 15.6108C82.9382 14.3533 81.855 13.3859 80.596 13.3859Z" fill="#ACC7E4"/>
<path d="M36.1002 22.6545C34.9319 22.6545 33.9849 21.7074 33.9849 20.5391V10.9087C33.9849 9.74035 34.9319 8.7933 36.1002 8.7933C37.2686 8.7933 38.2156 9.74035 38.2156 10.9087V20.5391C38.2156 21.7074 37.2686 22.6545 36.1002 22.6545Z" fill="#FAC600"/>
<path d="M40.3312 24.3245C39.1629 24.3245 38.2158 23.3775 38.2158 22.2092V9.23863C38.2158 8.0703 39.1629 7.12326 40.3312 7.12326C41.4995 7.12326 42.4466 8.0703 42.4466 9.23863V22.2092C42.4466 23.3773 41.4993 24.3245 40.3312 24.3245Z" fill="#FEDF74"/>
<path d="M44.5617 22.6545C43.3933 22.6545 42.4463 21.7074 42.4463 20.5391V10.9087C42.4463 9.74035 43.3933 8.7933 44.5617 8.7933C45.73 8.7933 46.677 9.74035 46.677 10.9087V20.5391C46.677 21.7074 45.7298 22.6545 44.5617 22.6545Z" fill="#FAC600"/>
<path d="M8.57316 58.3084C9.84074 56.6507 11.3906 55.2294 13.1515 54.1097L13.3362 53.9921L13.1932 53.8263C12.2081 52.6868 11.4575 51.3642 10.984 49.9343C10.7109 49.1072 10.5325 48.2518 10.4525 47.3845C7.61899 46.9532 4.76484 47.5901 2.41192 49.0813C2.24584 49.187 2.11601 49.341 2.03978 49.5225C1.96354 49.7041 1.94454 49.9045 1.98532 50.0972C2.73641 53.6071 5.08611 56.7138 8.57316 58.3084Z" fill="#017B4E"/>
<path d="M5.57939 48.9519C5.53862 48.7593 5.55762 48.5588 5.63385 48.3772C5.71008 48.1957 5.83991 48.0417 6.00599 47.936C6.32242 47.736 6.64824 47.5513 6.98232 47.3824C5.35708 47.6239 3.8003 48.2026 2.41192 49.0813C2.24584 49.187 2.11601 49.341 2.03978 49.5225C1.96354 49.7041 1.94454 49.9045 1.98532 50.0972C2.73622 53.6073 5.08592 56.714 8.57297 58.3084C9.14795 57.5582 9.78211 56.8551 10.4694 56.2061C7.91962 54.4821 6.20072 51.8566 5.57939 48.9519Z" fill="#026841"/>
<path d="M13.1771 54.1006C15.8036 52.4292 18.8273 51.4863 21.9382 51.3686C22.1042 49.7664 21.9407 48.1042 21.4003 46.476C20.1443 42.6923 17.1456 39.9779 13.5923 38.926C13.4034 38.8706 13.202 38.8741 13.0151 38.9361C12.8282 38.9982 12.6647 39.1158 12.5464 39.2733C10.3276 42.2413 9.54757 46.21 10.8035 49.9937C11.3055 51.5106 12.1133 52.9084 13.1771 54.1006Z" fill="#80D261"/>
<path d="M13.1769 54.1007C14.1542 53.4794 15.1903 52.956 16.2703 52.5381C15.7696 51.7412 15.3667 50.887 15.0702 49.9938C13.9263 46.5479 14.4718 42.9487 16.2544 40.0915C15.4185 39.5948 14.5243 39.2034 13.5923 38.9263C13.4034 38.8708 13.202 38.8744 13.0151 38.9364C12.8282 38.9985 12.6647 39.1161 12.5464 39.2735C10.3276 42.2415 9.54757 46.2103 10.8035 49.994C11.3054 51.5108 12.1132 52.9085 13.1769 54.1007Z" fill="#68CA44"/>
<path d="M16.0613 52.621C16.9417 52.267 17.8494 51.9852 18.7755 51.7784L17.4824 47.8831C17.363 47.5263 17.107 47.2314 16.7705 47.0632C16.434 46.8949 16.0445 46.867 15.6875 46.9855C15.3304 47.104 15.0349 47.3594 14.8659 47.6955C14.6968 48.0316 14.668 48.421 14.7857 48.7784L16.0613 52.621Z" fill="#017B4E"/>
<path d="M54.886 50.1263C52.1692 50.1263 49.6191 50.8367 47.4087 52.0798C52.2028 54.1873 55.7077 58.686 56.4144 64.0661H64.2849L64.257 63.88C64.2246 63.6669 64.2081 63.4517 64.2076 63.2361C64.2076 60.8392 66.1576 58.8892 68.5546 58.8892C68.6056 58.8892 68.6564 58.8913 68.7069 58.8931C66.2615 53.7127 60.9944 50.1263 54.886 50.1263Z" fill="#FAC600"/>
<path d="M64.2074 63.236C64.2074 62.3231 64.491 61.4755 64.9736 60.7753C63.2152 56.9584 59.3566 54.3013 54.8858 54.3013C53.7648 54.3012 52.6503 54.4717 51.5806 54.8068C54.1649 57.174 55.9348 60.4159 56.4142 64.0661H64.2847L64.2569 63.88C64.2245 63.6669 64.2079 63.4516 64.2074 63.236Z" fill="#FEDF74"/>
<path d="M54.8857 58.4764C54.7651 58.4764 54.6454 58.4803 54.5263 58.4865C55.4925 60.1716 56.1501 62.0563 56.4141 64.0661H61.685C61.0585 60.8842 58.2485 58.4764 54.8857 58.4764ZM11.6636 60.5286C11.6939 60.4801 11.7229 60.4331 11.7544 60.3833C13.737 57.141 17.3047 55.1315 21.0933 55.1315C23.8242 55.1315 26.4417 56.1477 28.4633 57.993L28.6057 58.1229L28.7092 57.9604C29.4562 56.7876 30.36 55.7225 31.3956 54.7946C28.6786 52.3116 25.0641 50.7942 21.0932 50.7942C15.2298 50.7942 10.1403 54.0978 7.57812 58.9439C7.8057 58.9075 8.0358 58.8891 8.26628 58.889C9.64032 58.889 10.8665 59.5303 11.6636 60.5286Z" fill="#FAC600"/>
<path d="M12.6138 63.236C12.6138 63.4454 12.5972 63.6621 12.5646 63.8798L12.5368 64.066H56.6172C55.6335 56.5762 49.2263 50.7942 41.4681 50.7942C36.0471 50.7942 31.2858 53.6174 28.5733 57.8732C26.5981 56.0706 23.9723 54.9693 21.0939 54.9693C17.0434 54.9693 13.4953 57.1505 11.5562 60.3989C12.2142 61.1608 12.6138 62.1523 12.6138 63.236Z" fill="#FED402"/>
<path d="M12.6978 64.0661C12.7479 63.7969 12.7755 63.5197 12.7755 63.236C12.7755 60.7456 10.7567 58.7269 8.2664 58.7269C5.77607 58.7269 3.75732 60.7456 3.75732 63.236C3.75732 63.5197 3.78472 63.7969 3.83497 64.0661H12.6978Z" fill="#FD4755"/>
<path d="M6.50848 64.0661C6.45658 63.7924 6.43009 63.5145 6.42937 63.236C6.42937 61.2109 7.76451 59.4977 9.60234 58.9282C9.16967 58.7944 8.7193 58.7265 8.2664 58.7269C5.77607 58.7269 3.75732 60.7456 3.75732 63.236C3.75732 63.5197 3.78472 63.7969 3.83497 64.0661H6.50848Z" fill="#FB2B3A"/>
<path d="M72.9859 64.0661C73.036 63.7969 73.0636 63.5197 73.0636 63.236C73.0636 60.7456 71.0448 58.7269 68.5545 58.7269C66.0642 58.7269 64.0454 60.7456 64.0454 63.236C64.0454 63.5197 64.0728 63.7969 64.1231 64.0661H72.9859Z" fill="#FD4755"/>
<path d="M67.4649 64.0661C67.4129 63.7925 67.3863 63.5145 67.3855 63.236C67.3855 61.3359 68.5613 59.7116 70.2245 59.0477C69.6933 58.8355 69.1265 58.7266 68.5545 58.7269C66.0642 58.7269 64.0454 60.7456 64.0454 63.236C64.0454 63.5197 64.0728 63.7969 64.1231 64.0661H67.4649Z" fill="#FB2B3A"/>
<path d="M27.7263 64.0661C26.863 61.2213 24.2168 59.1445 21.0936 59.1445C17.9706 59.1445 15.3243 61.2213 14.4609 64.0661H27.7263Z" fill="#FAC600"/>
<path d="M52.3877 64.0661C51.4392 58.8986 46.905 54.9694 41.4675 54.9694C36.0301 54.9694 31.4959 58.8986 30.5474 64.0661H52.3877Z" fill="#FEDF74"/>
<path d="M48.1004 64.0661C47.237 61.2213 44.5909 59.1445 41.4677 59.1445C38.3446 59.1445 35.6984 61.2213 34.835 64.0661H48.1004Z" fill="#FAC600"/>
<path d="M7.20557 69.1578L10.9099 75.0912C11.06 75.3315 11.2688 75.5298 11.5167 75.6672C11.7645 75.8046 12.0432 75.8767 12.3266 75.8768H64.4297C65.0058 75.8768 65.5413 75.5798 65.8464 75.0912L69.5507 69.1578H7.20557Z" fill="#A7C9E3"/>
<path d="M18.5409 75.0912L14.8365 69.1578H7.20557L10.9099 75.0912C11.06 75.3315 11.2688 75.5298 11.5167 75.6672C11.7645 75.8046 12.0432 75.8767 12.3266 75.8768H19.9574C19.6741 75.8767 19.3954 75.8046 19.1476 75.6672C18.8998 75.5297 18.691 75.3315 18.5409 75.0912Z" fill="#83B1D4"/>
<path d="M74.0485 69.3199H2.70804C1.21242 69.3199 0 68.1075 0 66.6119C0 65.1163 1.21242 63.9038 2.70804 63.9038H74.0485C75.5441 63.9038 76.7565 65.1163 76.7565 66.6119C76.7564 68.1075 75.544 69.3199 74.0485 69.3199Z" fill="#C2E2FB"/>
<path d="M9.33312 66.6119C9.33312 65.1163 10.5455 63.9038 12.0412 63.9038H2.70804C1.21242 63.904 0 65.1164 0 66.6119C0 68.1075 1.21242 69.3199 2.70804 69.3199H12.0412C10.5455 69.3199 9.33312 68.1075 9.33312 66.6119Z" fill="#D8ECFE"/>
</svg>
