<svg width="18" height="18" viewBox="0 0 18 18" fill="none" xmlns="http://www.w3.org/2000/svg">
<path id="Vector" d="M16.7448 12.8117V15.1867C16.7457 15.4072 16.7005 15.6254 16.6122 15.8274C16.5239 16.0294 16.3943 16.2108 16.2319 16.3598C16.0694 16.5089 15.8776 16.6224 15.6687 16.693C15.4599 16.7636 15.2385 16.7899 15.019 16.77C12.5829 16.5053 10.2428 15.6729 8.18684 14.3396C6.27404 13.1241 4.65231 11.5024 3.43684 9.58965C2.0989 7.52436 1.26628 5.17295 1.00642 2.72591C0.986644 2.50699 1.01266 2.28635 1.08282 2.07803C1.15298 1.86972 1.26575 1.67829 1.41394 1.51595C1.56214 1.3536 1.74252 1.22389 1.94359 1.13508C2.14466 1.04626 2.36202 1.00029 2.58184 1.00008H4.95684C5.34104 0.996297 5.71351 1.13235 6.00482 1.38288C6.29613 1.6334 6.4864 1.98131 6.54017 2.36175C6.64041 3.1218 6.82632 3.86807 7.09434 4.58633C7.20085 4.86968 7.2239 5.17764 7.16076 5.47369C7.09762 5.76975 6.95094 6.0415 6.73809 6.25674L5.73267 7.26216C6.85965 9.24413 8.5007 10.8851 10.4827 12.0121L11.4881 11.0067C11.7034 10.7938 11.9751 10.6472 12.2712 10.584C12.5672 10.5209 12.8752 10.5439 13.1585 10.6504C13.8768 10.9185 14.6231 11.1044 15.3831 11.2046C15.7677 11.2589 16.1189 11.4526 16.37 11.7489C16.621 12.0452 16.7544 12.4234 16.7448 12.8117Z" stroke="#E81B1B" stroke-width="2" stroke-linecap="round" stroke-linejoin="round"/>
</svg>
