<svg width="53" height="68" viewBox="0 0 53 68" fill="none" xmlns="http://www.w3.org/2000/svg">
<g id="tk">
<g id="Group 15">
<rect id="Rectangle 9" x="1" y="-1" width="46.5714" height="62.3571" rx="1" transform="matrix(1 0 0 -1 3.64285 66)" fill="white" stroke="#372919" stroke-width="2"/>
<rect id="Rectangle 8" x="1" y="-1" width="46.5714" height="62.3571" rx="1" transform="matrix(1 0 0 -1 0 62.3571)" fill="#FFFAEC" stroke="#372919" stroke-width="2"/>
<g id="mutan">
<path id="Vector" fill-rule="evenodd" clip-rule="evenodd" d="M31.5961 32.6323C31.5961 31.7041 32.927 31.726 32.927 32.5813C32.927 33.5905 31.5961 33.465 31.5961 32.6323ZM13.3571 19.9034C13.3571 20.5727 13.4348 21.2935 13.5008 21.8935C13.6814 23.5369 14.2723 25.3627 15.2939 26.6094C15.8083 27.2371 16.436 27.6713 17.2208 27.8778C19.2727 28.4177 20.5163 26.6715 21.5893 26.9297C21.6897 27.3748 21.4949 27.4215 21.2014 27.802L20.5203 28.6769C19.5446 29.9206 20.4076 29.9332 19.8224 30.3999C19.3885 30.7461 18.8403 31.3842 18.4344 31.6649L18.1287 31.3184C18.2587 30.8098 18.5416 29.8828 17.6457 29.8828C16.9704 29.8828 17.188 30.6745 16.8928 30.989C16.4834 31.425 15.8218 30.944 15.8218 31.9704C15.8218 32.1284 16.1124 32.4286 16.2655 32.4286C16.6242 32.4286 17.0198 32.3785 17.3007 32.2249C17.4842 32.508 17.9537 32.8419 18.1997 33.0784C18.3264 33.2 18.3928 33.224 18.5215 33.3571C18.6447 33.4845 18.6635 33.5059 18.808 33.6212C19.3129 34.0238 19.4236 34.4143 19.9626 34.4143C20.2959 34.4143 20.5048 34.106 20.5048 33.7524C20.5048 33.2932 19.6579 32.8459 19.4204 32.4795C19.4723 32.3994 19.9753 31.9383 20.0897 31.847L20.7513 31.2066C21.3353 31.3472 21.5209 31.4337 22.3786 31.1054C22.7538 30.9617 23.5209 30.5084 23.7583 30.4429C23.7583 30.9778 23.8235 31.1878 23.4927 31.6961C23.2644 32.047 23.0318 32.3372 22.7231 32.5814L21.8477 33.3574C21.2699 33.961 20.5982 34.6325 21.8528 35.0586C22.5852 35.3073 23.3299 35.4392 24.0032 35.8416C24.5216 36.1514 24.7785 36.7531 25.3487 36.2098C26.576 35.0403 28.6877 35.3755 28.6877 34.3125C28.6877 33.2999 26.0751 32.4612 26.0751 30.6975C26.0751 30.3081 26.255 30.5076 26.4857 30.6293C27.1364 30.9727 27.8639 31.3085 28.6384 31.3085C28.8505 31.3085 28.9056 31.2491 29.0821 31.2066C29.2136 31.4096 30.413 32.4233 30.413 32.4795C30.413 32.73 30.4008 33.0509 30.491 33.3155C30.6684 33.8359 30.9765 34.1763 31.4469 34.4157C33.2866 35.352 35.0444 32.9134 33.6551 31.3711C32.8846 30.5158 31.4295 30.577 30.9553 31.3085L30.0546 30.5077C29.3461 29.8117 30.2581 29.9212 29.2947 28.6958L28.5512 27.7327C28.4604 27.6181 28.1948 27.3285 28.1948 27.1843C28.1948 26.439 29.8182 27.4366 29.9857 27.5238C31.0292 28.0675 32.2083 28.1925 33.2894 27.6604C33.8192 27.3996 34.1483 27.064 34.5172 26.6374C34.6436 26.4912 34.7332 26.3697 34.8404 26.2075C35.4887 25.2258 35.8985 24.1665 36.1599 22.937C36.502 21.3277 36.5029 19.3089 36.2446 17.6987C36.1908 17.3636 36.0508 16.0625 35.7956 15.8713C35.224 15.4432 34.8239 16.7158 34.2483 17.6021C33.8301 18.2459 33.4429 18.8457 32.9616 19.4299C32.4858 20.0077 32.0011 20.523 31.3798 20.9529C30.7191 21.4101 29.9226 21.7363 29.0821 21.7363C28.2624 21.7363 27.5047 21.0001 27.5047 20.158C27.5047 19.542 27.6477 18.94 28.0467 18.5794C29.2334 17.5067 30.572 18.4268 30.7581 18.4268C31.1811 18.4268 31.0048 16.4221 29.9281 16.0764C29.1338 15.8214 28.2634 16.2232 27.6846 16.5252C27.0336 16.8648 26.6011 17.3501 26.1114 17.8533C25.8675 18.1039 25.0168 19.2635 24.9413 19.5979H24.8428C24.7764 19.3412 24.2572 18.577 24.0825 18.3465C23.7206 17.8689 23.3395 17.4176 22.8719 17.0511L21.9673 16.458C21.7035 16.3226 21.5808 16.2571 21.2757 16.154C20.0493 15.7397 19.0236 16.1469 18.8774 17.5606C18.8315 18.0046 18.7533 18.0823 18.9767 18.4268C19.3867 18.3916 19.6085 18.0704 20.4555 18.0704C21.4695 18.0704 22.2794 18.809 22.2794 19.8525C22.2794 20.3246 22.21 20.7594 21.9207 21.1112C21.1967 21.9918 19.9829 21.7858 19.1073 21.3469C18.3438 20.9641 18.2125 20.764 17.6173 20.2892C17.3445 20.0717 17.2463 19.8683 17.0175 19.6358C16.2365 18.8422 15.2972 17.2025 14.7103 16.1636C14.5591 15.896 14.2591 15.637 13.9674 15.899C13.8458 16.0082 13.8355 16.1909 13.7906 16.3797C13.6173 17.1089 13.5132 17.9126 13.4198 18.6443L13.3571 19.9034L13.3571 19.9034Z" fill="#CC3D41"/>
<path id="Vector_2" fill-rule="evenodd" clip-rule="evenodd" d="M24.3527 12.8338V13.0995H24.0724C23.5633 13.0995 23.0714 13.8416 23.0714 14.5345C23.0714 14.8752 23.3085 15.7768 23.3957 16.1236C23.6692 17.2115 24.4988 16.9792 25.4738 16.9792C26.3251 16.9792 26.4018 16.1233 26.5701 15.4581C26.7468 14.7595 26.8486 13.9744 26.3393 13.4388C26.0674 13.1527 25.9057 13.0995 25.4338 13.0995C25.4871 12.833 25.5187 12.7541 25.2848 12.4469C25.179 12.3079 25.1029 12.1429 24.9133 12.1429C24.6837 12.1429 24.3527 12.5311 24.3527 12.8338Z" fill="#CC3D41"/>
</g>
<path id="Line 2" d="M1.21429 61.9286L6.07144 66.7857" stroke="#372919" stroke-width="2" stroke-linecap="round"/>
</g>
<path id="Line 6" d="M10.9286 46.1429H37.6428" stroke="#0F903D" stroke-width="2" stroke-linecap="round"/>
<path id="Line 7" d="M18.2144 51H30.3572" stroke="#0F903D" stroke-width="2" stroke-linecap="round"/>
</g>
</svg>
